<svg height="512" viewBox="0 0 64 64" width="512" xmlns="http://www.w3.org/2000/svg"><path d="m59 13v28h-54v-28a4.012 4.012 0 0 1 4-4h46a4 4 0 0 1 4 4z" fill="#5aaae7"/><path d="m59 41v4a4.012 4.012 0 0 1 -4 4h-46a4.012 4.012 0 0 1 -4-4v-4z" fill="#acabb1"/><circle cx="53" cy="20" fill="#ff9811" r="2"/><path d="m48 3h4v4h-4z" fill="#ff9811"/><path d="m43 57a2.006 2.006 0 0 1 2 2 2.015 2.015 0 0 1 -2 2h-22a2.006 2.006 0 0 1 -2-2 2.015 2.015 0 0 1 2-2z" fill="#787680"/><path d="m40 57h-16l1-8h14z" fill="#898890"/><path d="m38 21h-1a2.006 2.006 0 0 0 2-2v-6a2.006 2.006 0 0 1 2 2v6a1.986 1.986 0 0 1 -.71 1.52z" fill="#3d9ae2"/><path d="m43 25v8l-2 4h-14l-1-2h13l2-4v-7.33z" fill="#3d9ae2"/><path d="m12 3h4v4h-4z" fill="#ff9811"/><circle cx="11" cy="20" fill="#ff9811" r="2"/><path d="m39.25 51h-14.5l.25-2h14z" fill="#787680"/><path d="m41 23v8h-18v-8l3-2h12z" fill="#00b39d"/><path d="m37 11h-10a2.006 2.006 0 0 0 -2 2v6a2.006 2.006 0 0 0 2 2h10a2.006 2.006 0 0 0 2-2v-6a2.006 2.006 0 0 0 -2-2z" fill="#00ccb3"/><path d="m41 31-2 4h-14l-2-4h4 10z" fill="#009986"/><path d="m37 31h-10a5 5 0 0 1 10 0z" fill="#ff9811"/><path d="m29 18h6v3h-6z" fill="#e6e7e8"/><path d="m31 6h2v5h-2z" fill="#ffa733"/><path d="m28 14h2v2h-2z" fill="#00b39d"/><path d="m34 14h2v2h-2z" fill="#00b39d"/><path d="m47 28h-2v-1a3 3 0 0 0 -3-3h-1v-2h1a5.006 5.006 0 0 1 5 5z" fill="#c6c5ca"/><path d="m19 28h-2v-1a5.006 5.006 0 0 1 5-5h1v2h-1a3 3 0 0 0 -3 3z" fill="#c6c5ca"/><path d="m38 31h-2a4 4 0 0 0 -8 0h-2a6 6 0 0 1 12 0z" fill="#ee8700"/><path d="m52 44h2v2h-2z" fill="#898890"/><path d="m48 15h-6v-2h5.586l1.414-1.414v-1.586h2v2a1 1 0 0 1 -.293.707l-2 2a1 1 0 0 1 -.707.293z" fill="#3d9ae2"/><path d="m52 30h4v2h-4z" fill="#1e81ce"/><path d="m52 34h4v2h-4z" fill="#1e81ce"/><g fill="#3d9ae2"><path d="m50 36h-4a1 1 0 0 1 -.707-.293l-2-2 1.414-1.414 1.707 1.707h3.586z"/><path d="m44 19h4v2h-4z"/><path d="m22 15h-6a1 1 0 0 1 -.707-.293l-2-2a1 1 0 0 1 -.293-.707v-2h2v1.586l1.414 1.414h5.586z"/></g><path d="m8 30h4v2h-4z" fill="#1e81ce"/><path d="m8 34h4v2h-4z" fill="#1e81ce"/><path d="m18 36h-4v-2h3.586l1.707-1.707 1.414 1.414-2 2a1 1 0 0 1 -.707.293z" fill="#3d9ae2"/><path d="m16 19h4v2h-4z" fill="#3d9ae2"/><path d="m49 30h-2a1 1 0 0 0 -2 0h-2a3 3 0 0 1 6 0z" fill="#898890"/><path d="m21 30h-2a1 1 0 0 0 -2 0h-2a3 3 0 0 1 6 0z" fill="#898890"/><circle cx="32" cy="5" fill="#ff9811" r="2"/></svg>