<svg id="flat" height="512" viewBox="0 0 512 512" width="512" xmlns="http://www.w3.org/2000/svg"><path d="m168 216v-136l-40-40h-72v176z" fill="#486be0"/><path d="m104 72h-80v144h112v-112z" fill="#548aff"/><g fill="#3b57c4"><path d="m96 136h16v16h-16z"/><path d="m48 136h32v16h-32z"/><path d="m80 104h32v16h-32z"/><path d="m48 104h16v16h-16z"/><path d="m80 168h32v16h-32z"/><path d="m48 168h16v16h-16z"/></g><path d="m416 216v16l-46.1 15.37012a40.01443 40.01443 0 0 1 -43.38-12.34012l-10.97-13.15991-11.55-13.87009-8 64h-80l-8-64-11.55 13.87012-10.97 13.15988a40.01443 40.01443 0 0 1 -43.38 12.34009l-46.1-15.37009v-16h46.71a16.0139 16.0139 0 0 0 13.9-8.06006l4.24-7.42993 12.51-21.88989a63.98018 63.98018 0 0 1 30.35-27.07007l36.29-15.55005h32l36.29 15.55005a63.98018 63.98018 0 0 1 30.35 27.07007l12.51 21.88988 4.24 7.42993a16.0139 16.0139 0 0 0 13.9 8.06007z" fill="#f6bb00"/><path d="m248 184h16v48h-16z" fill="#de9400"/><path d="m248 136h16v32h-16z" fill="#de9400"/><path d="m296 272 16 200h-24l-32-152-32 152h-24l16-200z" fill="#4d6378"/><path d="m232 96v24a24 24 0 0 0 24 24 24 24 0 0 0 24-24v-24z" fill="#f5c99d"/><path d="m280 96h-48v-13.57781a18.42218 18.42218 0 0 1 18.42219-18.42219 18.42223 18.42223 0 0 1 10.21881 3.094l19.359 12.906z" fill="#b1792c"/><path d="m416 216v16l-46.1 15.37012a40.01443 40.01443 0 0 1 -43.38-12.34012l-10.97-13.15991 35.6-21.36009 4.24 7.42993a16.0139 16.0139 0 0 0 13.9 8.06007z" fill="#f5c99d"/><path d="m196.45 221.87012-10.97 13.15988a40.01443 40.01443 0 0 1 -43.38 12.34009l-46.1-15.37009v-16h46.71a16.0139 16.0139 0 0 0 13.9-8.06006l4.24-7.42993z" fill="#f5c99d"/><circle cx="408" cy="136" fill="#548aff" r="80"/><path d="m408 224a88 88 0 1 1 88-88 88.09957 88.09957 0 0 1 -88 88zm0-160a72 72 0 1 0 72 72 72.08156 72.08156 0 0 0 -72-72z" fill="#486be0"/><path d="m408 224c-12.04053 0-22.71436-10.10742-30.05518-28.46-6.41308-16.03316-9.94482-37.1777-9.94482-59.54s3.53174-43.50684 9.94482-59.54c7.34082-18.35258 18.01465-28.46 30.05518-28.46s22.71436 10.10742 30.05518 28.46c6.41308 16.03316 9.94482 37.1777 9.94482 59.54s-3.53174 43.50684-9.94482 59.54c-7.34082 18.35258-18.01465 28.46-30.05518 28.46zm0-160c-9.78564 0-24 28.04785-24 72s14.21436 72 24 72 24-28.04785 24-72-14.21436-72-24-72z" fill="#486be0"/><path d="m408 176c-22.3623 0-43.50732-3.53223-59.53955-9.94531-18.35303-7.34082-28.46045-18.01469-28.46045-30.05469s10.10742-22.71387 28.46045-30.05469c16.03223-6.41308 37.17725-9.94531 59.53955-9.94531s43.50732 3.53223 59.53955 9.94531c18.35303 7.34082 28.46045 18.01469 28.46045 30.05469s-10.10742 22.71387-28.46045 30.05469c-16.03223 6.41308-37.17725 9.94531-59.53955 9.94531zm0-64c-43.95166 0-72 14.21484-72 24s28.04834 24 72 24 72-14.21484 72-24-28.04834-24-72-24z" fill="#486be0"/></svg>