<svg xmlns="http://www.w3.org/2000/svg" xmlns:xlink="http://www.w3.org/1999/xlink" viewBox="0 0 599.74 374.72"><defs><style>.cls-1{fill:#d08b73;}.cls-2{fill:#ee5f43;}.cls-3{fill:#434e84;}.cls-4{fill:#12a189;}.cls-5{fill:#4485f4;}.cls-47,.cls-6{fill:#bc6c56;}.cls-52,.cls-68,.cls-7{fill:#034c8a;}.cls-8{fill:#38aae3;}.cls-9{fill:#faae26;}.cls-10{isolation:isolate;}.cls-11{fill:#a5def6;opacity:0.47;}.cls-12{opacity:0.3;}.cls-13{fill:#4385f4;}.cls-14,.cls-15,.cls-16,.cls-17,.cls-18,.cls-19,.cls-20,.cls-21,.cls-24,.cls-25,.cls-26,.cls-27,.cls-28,.cls-29,.cls-34,.cls-35,.cls-51,.cls-60,.cls-67,.cls-71,.cls-76{fill:none;}.cls-14,.cls-15,.cls-16,.cls-17,.cls-18,.cls-19,.cls-20{stroke:#0254a9;}.cls-14,.cls-15,.cls-16,.cls-17,.cls-18,.cls-19,.cls-20,.cls-21,.cls-24,.cls-25,.cls-26,.cls-27,.cls-28,.cls-29,.cls-34,.cls-35,.cls-51,.cls-52,.cls-60,.cls-67,.cls-68,.cls-76{stroke-linecap:round;}.cls-14,.cls-15,.cls-16,.cls-17,.cls-18,.cls-19,.cls-20,.cls-25,.cls-26,.cls-27,.cls-28,.cls-29,.cls-34,.cls-35,.cls-51,.cls-52,.cls-60,.cls-67,.cls-68,.cls-76{stroke-linejoin:round;}.cls-14{stroke-width:0.77px;}.cls-15{stroke-width:1.9px;}.cls-16{stroke-width:1.72px;}.cls-17{stroke-width:2.73px;}.cls-18{stroke-width:3.22px;}.cls-19{stroke-width:1.99px;}.cls-20{stroke-width:2.4px;}.cls-21,.cls-24{stroke:#363a69;}.cls-21,.cls-24,.cls-71{stroke-miterlimit:10;}.cls-21{stroke-width:1.22px;}.cls-22{fill:#3ca3a4;}.cls-23{fill:#f8ad26;}.cls-24{stroke-width:1.54px;}.cls-25,.cls-26,.cls-27,.cls-28,.cls-29{stroke:#148b7a;}.cls-25{stroke-width:0.41px;}.cls-26{stroke-width:0.59px;}.cls-27{stroke-width:0.42px;}.cls-28{stroke-width:0.43px;}.cls-29{stroke-width:0.44px;}.cls-30{fill:#ee5e43;}.cls-31,.cls-75{fill:#c4422b;}.cls-32{fill:#bec6c4;}.cls-33{fill:#fefefe;}.cls-34,.cls-35{stroke:#baccc6;}.cls-34{stroke-width:1.43px;}.cls-35{stroke-width:2.04px;}.cls-36{fill:#0254a9;}.cls-37{fill:#fabb49;}.cls-38{fill:#d38309;}.cls-39{fill:#13b5a0;}.cls-40{fill:#148a77;}.cls-41{clip-path:url(#clip-path);}.cls-42{clip-path:url(#clip-path-2);}.cls-43{fill:#282e5b;}.cls-44{clip-path:url(#clip-path-3);}.cls-45{clip-path:url(#clip-path-4);}.cls-46{clip-path:url(#clip-path-5);}.cls-47,.cls-63,.cls-75{opacity:0.5;mix-blend-mode:multiply;}.cls-48{clip-path:url(#clip-path-6);}.cls-49{fill:#363a68;}.cls-50{fill:#346ec1;}.cls-51,.cls-52,.cls-67,.cls-68,.cls-71{stroke:#034c8a;}.cls-51{stroke-width:3.44px;}.cls-52{stroke-width:0.97px;}.cls-53{clip-path:url(#clip-path-7);}.cls-54{clip-path:url(#clip-path-8);}.cls-55{clip-path:url(#clip-path-9);}.cls-56{fill:#ff6b6b;}.cls-57{clip-path:url(#clip-path-10);}.cls-58{clip-path:url(#clip-path-11);}.cls-59{clip-path:url(#clip-path-12);}.cls-60{stroke:#282e5b;stroke-width:0.93px;}.cls-61{clip-path:url(#clip-path-13);}.cls-62{clip-path:url(#clip-path-14);}.cls-64{clip-path:url(#clip-path-15);}.cls-65{clip-path:url(#clip-path-16);}.cls-66{clip-path:url(#clip-path-17);}.cls-67{stroke-width:3.05px;}.cls-68{stroke-width:1.03px;}.cls-69{clip-path:url(#clip-path-18);}.cls-70{clip-path:url(#clip-path-19);}.cls-71{stroke-width:0.9px;}.cls-72{clip-path:url(#clip-path-20);}.cls-73{clip-path:url(#clip-path-21);}.cls-74{clip-path:url(#clip-path-22);}.cls-76{stroke:#434e84;stroke-width:4.29px;}</style><clipPath id="clip-path" transform="translate(-84.32 -66.7)"><path class="cls-1" d="M260,231.23c.12.51.22,1,.29,1.53a20.7,20.7,0,0,1,.22,3.33c0,1-.26,2-.23,3.07a3.9,3.9,0,0,0,.67,1.67,17.68,17.68,0,0,1,1.29,2.62c.15.46.23,1.09-.3,1.29s-1.67-.09-1.89.71c-.11.41.05.87-.1,1.28s-.35.35-.55.54a.94.94,0,0,0-.28.64,5.4,5.4,0,0,1-.17,1.44c-.16.44-.48.64-.72,1a1.87,1.87,0,0,0-.19,1c0,1,0,2.17-1.24,2.45a6.65,6.65,0,0,1-2.18-.08,10.71,10.71,0,0,0-2.76-.2,1.65,1.65,0,0,0-1.07.63,7.44,7.44,0,0,0-1.24,2.06,29.66,29.66,0,0,0,1.41,5.8c.8,1.69-2.53,2.4-2.53,2.4l-8.72-4-3.08-4.75,2-5.28a8.92,8.92,0,0,0,.62-2.64l.44-17.38,11.75-4.16,8.57,4.91Z"/></clipPath><clipPath id="clip-path-2" transform="translate(-84.32 -66.7)"><path class="cls-2" d="M235.34,284.25A34.16,34.16,0,0,1,232.65,274a26.36,26.36,0,0,1,.94-10.07c.48-1.62,1.36-3,1.7-4.7l2.39-6.5a50.66,50.66,0,0,0,8.32,6.68,9,9,0,0,0,4.12,1.39l.53,0,10.13,11.7a9.23,9.23,0,0,1,2.3,2.6,10.36,10.36,0,0,1,1.13,5.74c-.09,1.21-.33,2.41-.41,3.62a13.68,13.68,0,0,0,.23,3.19c.41,2.4.81,4.79,1.06,7.21.28,2.62,1.43,17.69,1.6,19.06s.36,2.44.5,3.16a16.74,16.74,0,0,1-7.6,2.59c-4,.31-8.56-1-10.79,0a1.93,1.93,0,0,1-1.51.16c-.32-.18-.31-.8-.35-1.09-.09-.61-.16-1.21-.26-1.82a1.74,1.74,0,0,0-.13-.59.26.26,0,0,0-.38-.12c-.31.12-2.12,2.06-2.42,2.31-.8.63-3.39-.45-10.79-7.07a9.66,9.66,0,0,0,2.79-2.08,7.8,7.8,0,0,0,1-1.32,2.8,2.8,0,0,1,1.12-1.28,3,3,0,0,0,1.05-1c.25-.39.27-.87.5-1.25s.58-.38.86-.56a2.53,2.53,0,0,0,.8-.95Z"/></clipPath><clipPath id="clip-path-3" transform="translate(-84.32 -66.7)"><path class="cls-5" d="M380.47,314.28s-5,15.91-5.3,20.21-4.92,32.49-5.49,35.08c-2.78,12.76-5.78,40.86-5.78,40.86l2,2.59-2,3.86v5a27,27,0,0,1,4.72-.87c1.49,0,5.59,1.74,5.59,1.74s4.44-12.18,4.44-14,2-2.65,1.82-4-.65-4.8,0-6.29a144.43,144.43,0,0,0,3.8-18.22c.25-3.48,4.22-14.42,4.22-14.42s4.72-13.91,5.47-15.9,1.93-12.42,6.55-12.42,12.08,14.91,13.33,20.37,9.19,32.31,10.43,34.29,6,8.7,6,8.7l-1.84,7.23,1.25,9.9s.82,5.13.94,6.24,4.26,0,4.26,0,7.69-1.63,8.93-2.25,1.37-3.35,1.12-4.22a18.23,18.23,0,0,1-1-3.48c0-.87-5.35-36.18-5.84-38.91s-4.64-12.32-5.55-16.3a111.74,111.74,0,0,1-1.78-16.36c0-3-.49-6.21-.49-7.45s-7-23.11-7-23.11Z"/></clipPath><clipPath id="clip-path-4" transform="translate(-84.32 -66.7)"><path class="cls-7" d="M385.11,241.89c-1.45.81-1.72.71-6.42,2.41a42.34,42.34,0,0,0-4.85,1.86c-2.64,2.36-1,6.27-2.32,12.46-.69,3.23-3.22,6.28-3,7.62s4.37,1.2,7.62,1.16c3.61,0,4.18-.87,5.14-.33,3.81,2.19-3.55,16.64-3,31.64.06,1.43.3,6,0,12.18-.13,2.84-.34,5.17-.49,6.71a126.44,126.44,0,0,0,23.35,4c9.77.73,14.21-.12,18.14-2.23a23.26,23.26,0,0,0,6.71-5.47,15.63,15.63,0,0,1-1.49-6.21c0-2.07.39-2.84.25-5.47a27.82,27.82,0,0,0-.75-4.72c-.8-3.74-1.3-5.09-1.73-7-.53-2.26-2.43-10.52,1.73-16.4a14.36,14.36,0,0,1,1.25-1.49c.71.44,1.32,1.78,2.15,1.33s2-9.07,3.07-11.68a18.55,18.55,0,0,0,2-6.79,9.29,9.29,0,0,0-4-9.11c-.65-.51-2-1.53-7.46-4-1.87-.84-2.8-1.26-3.72-1.57a29.85,29.85,0,0,0-6.22-1.41c-8.81-1.1-10.85,1.31-17.18,0a8.92,8.92,0,0,0-4.43-.08C387.68,239.8,387.46,240.59,385.11,241.89Z"/></clipPath><clipPath id="clip-path-5" transform="translate(-84.32 -66.7)"><path class="cls-6" d="M400.51,226.82q-1.08,7-2.15,13.91h12.42q-1-7.12-2-14.24Z"/></clipPath><clipPath id="clip-path-6" transform="translate(-84.32 -66.7)"><path class="cls-6" d="M369.8,266.29c-.5,3.4.7,12.06.89,18.34a6.59,6.59,0,0,0,5.47,7.13c4,1.06,15.77,2.13,31.64,2.65l11.1-5.3c3.54-3.74,5.33-7.83,4-9.84-1.66-2.59-8.2-1.43-12.31,1.06a16,16,0,0,0-6.13,6.95c-3.72-.76-7.72-1.73-11.93-3-3.68-1.09-7.11-2.27-10.27-3.48a38.86,38.86,0,0,0,.48-7.44,29.17,29.17,0,0,0-.73-6.33C377.93,265.89,372.23,265.6,369.8,266.29Z"/></clipPath><clipPath id="clip-path-7" transform="translate(-84.32 -66.7)"><path class="cls-8" d="M460.57,410.29c.68-4.5,1.54-8.83,1.13-13.4-.45-5.15-.86-10.25-.95-15.42,0-2.59-.05-5.18-.05-7.77a50,50,0,0,1,.22-6.81,7.82,7.82,0,0,1,2.88-5.42c2.7-2,6.52-2,9.73-2.05,1.2,0,2.41,0,3.61,0l0,.33h0a.32.32,0,0,0,.31-.43h.22c13.19-1,26.36-2.14,39.54-3.33a3.23,3.23,0,0,0,2.81-1.9,74.47,74.47,0,0,1,13.49,10.82c-.08.35-.16.7-.26,1s-.21.58-.33.9a4.44,4.44,0,0,0-.21.71l.25,0c.22,2.54,0,6.23-2,8.08-2.25,2-6,2.08-8.82,2.26-5.11.32-10.25.19-15.37.07-5.35-.13-10.71-.32-16.06-.6-2.47-.13-4.94-.32-7.4-.61a43.09,43.09,0,0,1-7-1.16c-.38-.11-1.11-.39-1.11-.39a55.72,55.72,0,0,1,.71,13.53c-.37,4.94-1.52,9.8-2.4,14.67a34.34,34.34,0,0,0-.76,6.54,23,23,0,0,0,.24,2.87c0,.18.1.45.17.73a2,2,0,0,1,0,1.23c-.15.3-.62.37-.92.44a18,18,0,0,1-3,.29,27.38,27.38,0,0,1-6.76-.49,8.42,8.42,0,0,1-1.2-.33,1.57,1.57,0,0,1-.87-.67C459.89,413,460.41,411.28,460.57,410.29Z"/></clipPath><clipPath id="clip-path-8" transform="translate(-84.32 -66.7)"><path class="cls-1" d="M520.16,304.29A96,96,0,0,0,510,310.6v0a.36.36,0,0,0,0-.27.4.4,0,0,0-.22-.16.38.38,0,0,1,0-.18,2.88,2.88,0,0,1,.1-.61c.31-1.54.72-3.11,1.1-4.66a5.83,5.83,0,0,1,.83-2,4.22,4.22,0,0,1,.58-.62c.12-.11.25-.19.4-.31a.82.82,0,0,0,.3-.62V301h0a3.06,3.06,0,0,0-.8-1.58,2.33,2.33,0,0,0-1.69-.84c-.43,0-.4.23-1.14.46a2.44,2.44,0,0,1-1.71.11,1.93,1.93,0,0,1-.78-.71,4.37,4.37,0,0,1-.28-.42,4.08,4.08,0,0,1-.4-1.27,34.43,34.43,0,0,0-2.44-5.82,1.51,1.51,0,0,0-.92-.54,2.89,2.89,0,0,1-.77-.19.46.46,0,0,1-.25-.22.77.77,0,0,1-.08-.36,1.7,1.7,0,0,1,.16-.69c.28-.62.92-1.14,1.28-2a7.11,7.11,0,0,0,.24-2.22c.08-1.33.44-2.71.59-4.12a27.91,27.91,0,0,1,.78-4.58,16.8,16.8,0,0,1,.57-1.69l0-.15a6.3,6.3,0,0,1-.06-.8c0-.45,0-.82.25-1,4.92-3.46,29.86-5.67,19.69,19.57a6.49,6.49,0,0,0-.24,1.18,1.62,1.62,0,0,1-.33.84l-.06.06a.36.36,0,0,0-.3,0,.32.32,0,0,0-.14.27,11.6,11.6,0,0,0,.09,1.44c0,.07,0,.23,0,.39a1.12,1.12,0,0,0,.14.54.66.66,0,0,0,.2.21.4.4,0,0,0,.28.08h.26a.92.92,0,0,1,.68.27,3.42,3.42,0,0,1,.68,1.42,7.32,7.32,0,0,1,.22,1.73c0,.1,0,.19,0,.28s-.06.3-.08.52a1.93,1.93,0,0,0,0,.23.49.49,0,0,0,0,.12,13.2,13.2,0,0,0-3,1.17A35.5,35.5,0,0,0,520.16,304.29Z"/></clipPath><clipPath id="clip-path-9" transform="translate(-84.32 -66.7)"><path class="cls-9" d="M533.51,364.91a11.79,11.79,0,0,0,.31-2.12v-.2c0-1.48-.71-2.78-1.06-4.39-.63-3.06,1.42,4-.14-21.95v0c0-4.92,4.48-8.54-.32-22.45A63.77,63.77,0,0,0,529,305.9c-.63-1.24-1.31-2.46-2-3.65-.1-.16,0-.62-.07-.74s-.22.17-.23.07c-1,.25-2.67-.57-3.62-.07a38.56,38.56,0,0,0-3.89,1.3c-3.54,1.71-5.87,5.63-9.19,7.79-1.42,4.33-6.44,7.72-4.46,17.82a94.81,94.81,0,0,1,1.77,10.42c.08.94.15,1.9.15,2.87a14.45,14.45,0,0,1-.06,1.47,27.24,27.24,0,0,1-.66,2.95c-.15.73-.26,1.48-.35,2.24,0,.26-.37,3.3-.39,3.56,1.58.29,3.46-2.16,5-1.75C519.6,352.43,527.12,358.68,533.51,364.91ZM521.38,320l0,0a1.43,1.43,0,0,1,.21.32A2.18,2.18,0,0,1,521.38,320Z"/></clipPath><clipPath id="clip-path-10" transform="translate(-84.32 -66.7)"><path class="cls-9" d="M526.91,301.51a50.83,50.83,0,0,1,5.2,10.75,38.59,38.59,0,0,1,2.78,11.9,22.44,22.44,0,0,1-.42,5c-.37,1.86-1.1,3.64-1.41,5.5a23.32,23.32,0,0,0,0,4.87c.09,2,.34,4,.51,6a60.08,60.08,0,0,1,.2,6.15,18,18,0,0,1-.56,4.68c-.62,2.08.88,3.86.91,6a13.92,13.92,0,0,1-.76,4.28c-1.44,4.49-4.89-2.29-15.83-2.3-7.75,0-6-5.93-9.79-5.71l11.11-10Z"/></clipPath><clipPath id="clip-path-11" transform="translate(-84.32 -66.7)"><path class="cls-1" d="M597.5,419.67s.46,5.65.61,7,1.53,2.9,1.53,5.5-14.81,5-14.81,5H574.75l2.44-6.26s7.79-3.21,9-4.58,2.08-7.94,2.08-7.94Z"/></clipPath><clipPath id="clip-path-12" transform="translate(-84.32 -66.7)"><path class="cls-3" d="M600.4,313.56s4.12,9.16,3.66,12.67-3.35,9.16-3.66,15.72-3.21,17.72-3.21,19.7.46,12.06.46,12.06,4.35,5.65,5,16.41,1.41,30.69,1.41,30.69a39.21,39.21,0,0,1-6.91,1.38c-2.06,0-10.07-2.29-10.07-2.29s.68-19.47,0-22.45-2.75-9.84-3-11.91-3.21-3.89-3.21-6.18-2.29-18.55-3.43-19.47-4.78-19.69-4.57-21.52.72,1.14-.1-4.35,0-8.25,0-8.25l.25-2.64s7.62-11.79,10.53-12S600.4,313.56,600.4,313.56Z"/></clipPath><clipPath id="clip-path-13" transform="translate(-84.32 -66.7)"><path class="cls-1" d="M593.66,250.08c-.91-1-1.75-2-2.55-3a7.23,7.23,0,0,1-1.42-2.23,6.21,6.21,0,0,1-.36-1.86,4.79,4.79,0,0,1-.89-1,5.17,5.17,0,0,1-.77-2c-.19-.86-.88-2-3.13-3.47.05-.36.47-3.81-1.61-5.59a4.94,4.94,0,0,0-1.87-.93c-3.36-.86-4.45,2.66-2,5a6.86,6.86,0,0,1,.84,8.8c-.92,1.44-1.43,2.54-1.84,3a8.61,8.61,0,0,1-.81.81c-.49.42-1.61.81-4.43,2,2.16-.88,4.79,1.34,5.87,3.69s-.08,4.46.78,5.21S583.88,258.15,593.66,250.08Z"/></clipPath><clipPath id="clip-path-14" transform="translate(-84.32 -66.7)"><path class="cls-1" d="M601.32,269.66,608,291.19s2.06,3.32,1.37,4.92-6.41,8.59-6.41,8.59-14.12,15-15.35,15.88-1.22,5.65-1.45,6.64-3.81,3.74-4.88,4.12-5.5-5-5.57-5.72.61-2.67.38-3.28-2.67.53-3.06-.62,1.07-2.9,2-2.9,5.8.31,6.56-.3,15.42-24.13,15-26-2.75-3-3.67-5-6-16.49-6-16.49Z"/></clipPath><clipPath id="clip-path-15" transform="translate(-84.32 -66.7)"><path class="cls-4" d="M164.33,294.05a18.53,18.53,0,0,0-2,3.94c-.69,1.68-1.32,3.39-1.9,5.11a81.5,81.5,0,0,0-2.87,10.64c-1.51,7.74-1.81,15.63-2.29,23.49-.23,3.7-.5,7.39-.75,11.09a17.52,17.52,0,0,0,1.13,8.36c.39.85,1.12,2.22,2.26,1.84a4.17,4.17,0,0,0,1.46-1.15,22.17,22.17,0,0,1,3-3c2.65-1.91,6.12-2.73,9.23-3.57,3.6-1,7.29-1.5,10.91-2.38a19.64,19.64,0,0,0,2.26-.69c.64-6,1.25-12,2-17.93a44.34,44.34,0,0,0-1.17-18.36,34.89,34.89,0,0,0-3.91-8.67c-1.78-2.8-4.26-5.31-6.31-7.95l-9.81-2.12Z"/></clipPath><clipPath id="clip-path-16" transform="translate(-84.32 -66.7)"><path class="cls-1" d="M173.71,335.27a25.37,25.37,0,0,0,2.1,7.12,9.11,9.11,0,0,0,2,3,18.74,18.74,0,0,0,5.33,3.16c6.51,2.91,4.2,2.06,8.39,3.46a201.06,201.06,0,0,0,20.9,5.38c3,3.16,5.43,3.83,6.37,4a20.28,20.28,0,0,0,3.35.42A19.49,19.49,0,0,1,225,362c1.44.25,2.7,1.07,4.11,1.43,1.26.33,2.78-.06,3-1.55a2.19,2.19,0,0,0-.77-1.79,15.69,15.69,0,0,0-5.24-3.49c-3.4-1.14-7.22-2.35-11.5-3.57a133.67,133.67,0,0,0-17.84-10.35c-2.24-1-6.81-2.9-9.94-7.6a23.18,23.18,0,0,1-1.67-2.9Z"/></clipPath><clipPath id="clip-path-17" transform="translate(-84.32 -66.7)"><path class="cls-1" d="M178.46,296a7.43,7.43,0,0,1,1.93-2.73,9.9,9.9,0,0,1,3.85-1.66c.89-.27,1.72-.54,1.78-1.57,0-.1,1.2-6.88,1.28-7,.34-.41,1.13-.34,1.58-.5,2.57-.92-.8-4.59-1.42-5.55s-.12-1.37-.14-2.31a4.63,4.63,0,0,0-.52-1.6,5.69,5.69,0,0,1-.29-1.88c0-.43-.08-.86-.14-1.29-.73.39-.49-.09-1.29-.08s-1.15.85-1.41,1.6a7.69,7.69,0,0,1-1.84,3.28,5.15,5.15,0,0,0-1.88,2.74c-.08.41.27,4.8-1.34,3.72-.8-.54-.73-2.39-.87-3.15a4.18,4.18,0,0,0-1.5-2.33c-1-.94-1.15-2.74-3-2.26-2.37.63-1.23,3.46-.83,5a5.93,5.93,0,0,0,1.37,2.89,1.72,1.72,0,0,0,1.95.11l-.12.2c-.45.86.08,1.68.1,2.42,0,1.23-1.33,2.2-2,2.65a6,6,0,0,1-4.06,1,5.41,5.41,0,0,1-4.25,2.25Z"/></clipPath><clipPath id="clip-path-18" transform="translate(-84.32 -66.7)"><path class="cls-3" d="M290.69,343.65s-9.78,4.57-13.37,9.62-4.89,4.57-6.52,6.68-2,3.75-.81,6.36,1.79,47.93,1.79,47.93v6.2s3.79-1.14,5.58-1,6.65,1,8.44,1.3,1.14-5.54,1.14-5.54l1.47-4.73s1.3-30.81,2.28-33.42,9.13-7.17,9.13-7.17,0-1.3,8.8,0,17.29-2.94,19.24-.65,2.28,13.69,2.28,19.89.66,10.43,0,14,1.31,13,1.63,14.34a10.4,10.4,0,0,1,.22,2.83,9.33,9.33,0,0,1,5-1.2c3.26,0,8.8-.32,8.8-.32s-2.28-7.5,0-12.39,3.27-23.15,3.27-28.37,2.28-15.32,0-19.24-24.13-15.16-24.13-15.16Z"/></clipPath><clipPath id="clip-path-19" transform="translate(-84.32 -66.7)"><path class="cls-5" d="M300,286.18c-9.7,3.93-21.48,6.73-24.36,18-.7,2.76-1.06,5.61-1.81,8.37-.51,1.89-2.5,4.94-1.57,6.9,1.26,2.65,7.86,3.46,10.38,3.65L300,351.31l22.5-5.38,13-24.78,4.08-1.22s2.45.24,2.45-1.06c0-3.18-1.41-6.78-2.12-9.84-1.05-4.51-1.48-10.23-3.51-14.35-2.34-4.75-8.42-4.93-13-6q-5.17-1.26-10.37-2.46Z"/></clipPath><clipPath id="clip-path-20" transform="translate(-84.32 -66.7)"><path class="cls-1" d="M298.35,286.59c-.24.06,0,6.19,0,6.73a4.87,4.87,0,0,0,.32,2.47,7,7,0,0,0,5.29,3.83,11.51,11.51,0,0,0,12.66-5.69V282.19Z"/></clipPath><clipPath id="clip-path-21" transform="translate(-84.32 -66.7)"><path class="cls-1" d="M327.37,322.62s2.39-3.63,5.32-3.87a58.47,58.47,0,0,1,8.07.26l-3.12,19.51s1,2.2.25,3.3-4.4,2.44-4.4,2.44l-19.93,11.62h-1.72l-1-2.32-2.69-.49-2.08,2.81h-2.45v-7.09l3.79-2.33,2.81,1.84s13.21-8.18,14.92-10.45l1.71-2.27Z"/></clipPath><clipPath id="clip-path-22" transform="translate(-84.32 -66.7)"><path class="cls-6" d="M288.49,322.25l.49,13.09,14.67,13.45v7.09h2.45l2.08-2.81,2.69.49,1,2.32s3.06.73,3.31,1.59-1.72,7.09-2.69,7.33-7.83-.61-7.83-.61l-6-4s.24-7.34,0-8.44-17-8-18.59-9.9c-.66-.82-1-2.39-1.83-5.38A127.77,127.77,0,0,1,274.59,320c1.29-.33,3.47,0,5.22-.06C283.72,319.77,286.43,321.48,288.49,322.25Z"/></clipPath></defs><title>banner (4).ssvg</title><g class="cls-10"><g id="BACKGROUND"><path class="cls-11" d="M583.55,438c13.2-14.57,27.36-35.45,25.19-59s-20.93-29.79-26.55-54.92c-8.7-38.9,15.39-55.75,17.26-91.08C602.8,169.59,532,94.9,464.07,87c-41.06-4.76-46.82,18.81-98.22,15.93C302.56,99.39,291.32,62.52,246.4,67.1c-51.26,5.22-104.78,60.17-104.86,110.16-.08,51.54,56.69,74.63,45.13,114.14-7.64,26.11-37,24.73-53.09,55.75-15.28,29.44,9.13,74.74,21.91,90.86Z" transform="translate(-84.32 -66.7)"/><circle class="cls-11" cx="63.5" cy="26.12" r="19.66"/><circle class="cls-11" cx="71.17" cy="212.24" r="19.66"/><circle class="cls-11" cx="194.27" cy="125.21" r="10.77" transform="translate(-115.96 107.34) rotate(-45)"/><path class="cls-11" d="M593.2,306.45A11.5,11.5,0,1,1,604.7,318,11.5,11.5,0,0,1,593.2,306.45Z" transform="translate(-84.32 -66.7)"/><circle class="cls-11" cx="601.26" cy="280.77" r="8.05" transform="translate(-106.75 440.69) rotate(-45)"/><circle class="cls-11" cx="136.41" cy="135.98" r="8.25" transform="translate(-140.52 69.58) rotate(-45)"/><circle class="cls-11" cx="358.2" cy="86.78" r="8.25" transform="translate(-40.77 212) rotate(-45)"/><circle class="cls-11" cx="530.9" cy="95.03" r="8.25" transform="translate(267.73 537.15) rotate(-80.78)"/><g class="cls-12"><path class="cls-13" d="M326.69,424.21a9.58,9.58,0,0,0-.05-4.06,11.16,11.16,0,0,0-1.51-3.59,12.76,12.76,0,0,0-2.53-2.87,14,14,0,0,0-1.62-1.15,15.66,15.66,0,0,0-1.62-.85,23.36,23.36,0,0,0-6.12-1.71l-2.53-.39-2.53-.34A147.67,147.67,0,0,0,285,408.14c-14.35.45-33.41,3.17-33.43,6.36s18.63,6.42,33.4,7.11a138,138,0,0,0,23-.87c1.68-.2,3.41-.44,4.85-.68a18.67,18.67,0,0,1,3.84-.33,6.78,6.78,0,0,1,1.65.26,5.41,5.41,0,0,1,1.53.74,4.49,4.49,0,0,1,1.94,2.85Z" transform="translate(-84.32 -66.7)"/><path class="cls-14" d="M324.2,423.48a7.12,7.12,0,0,0-.69-3.13,8.14,8.14,0,0,0-1.68-2.35,9,9,0,0,0-2.23-1.61,11.2,11.2,0,0,0-2.41-.89,20.81,20.81,0,0,0-4.59-.49l-4.26,0-17-.09-34-.2" transform="translate(-84.32 -66.7)"/><line class="cls-14" x1="187.96" y1="348.07" x2="184.47" y2="351.27"/><line class="cls-14" x1="191.98" y1="348.09" x2="189.29" y2="343.86"/><line class="cls-14" x1="200.72" y1="348.15" x2="198.17" y2="351.91"/><line class="cls-14" x1="207.02" y1="348.18" x2="203.3" y2="343.73"/><line class="cls-14" x1="214.06" y1="348.22" x2="210.35" y2="352.85"/><line class="cls-14" x1="225.45" y1="348.29" x2="222.35" y2="345.19"/><path class="cls-13" d="M360.75,438.86c-.56-2.51-5.85-9-7.28-11.37a32.23,32.23,0,0,0-5.38-6.54,61,61,0,0,0-11.34-8.17c-3.25-1.89-6.65-3.86-10.25-5.77s-7.36-3.84-11.34-5.64q-3-1.37-6.07-2.73c-2.07-.88-4.19-1.75-6.34-2.61s-4.35-1.71-6.6-2.5-4.53-1.61-6.85-2.38a242.71,242.71,0,0,0-29.86-7.65c-17.76-3.3-38.72-4.89-55.18-4s-28.34,3.67-28.64,7.52,10.58,8.52,25.58,13.54,34.17,10.59,51.12,15.18C271.79,421,289.79,424.92,306,428c4.06.76,8,1.53,11.81,2.15s7.54,1.32,11,1.86a48.57,48.57,0,0,1,9.27,2.12,16.91,16.91,0,0,1,3.9,2,12.33,12.33,0,0,1,3.09,3.15Z" transform="translate(-84.32 -66.7)"/><path class="cls-15" d="M350.33,436.35a19.61,19.61,0,0,0-1.65-3.06c-.32-.48-.68-.93-1-1.39s-.79-.91-1.18-1.35a26,26,0,0,0-5.15-4.06A55.63,55.63,0,0,0,331,421.8q-9.86-3.63-19.78-6.93-19.86-6.57-40.07-11.67a579.15,579.15,0,0,0-81.52-14.5" transform="translate(-84.32 -66.7)"/><path class="cls-15" d="M225.6,393.59c-3.22,2.13-6.41,4.3-9.56,6.45" transform="translate(-84.32 -66.7)"/><path class="cls-15" d="M235.24,395.31q-2.31-5.67-4.74-11.35" transform="translate(-84.32 -66.7)"/><path class="cls-15" d="M256.15,399.61c-2.67,2.54-5.35,5.16-8,7.75" transform="translate(-84.32 -66.7)"/><path class="cls-15" d="M271.17,403.2c-2.09-4.24-4.23-8.54-6.45-12.75" transform="translate(-84.32 -66.7)"/><path class="cls-15" d="M287.83,407.68q-5.9,4.2-11.67,8.58" transform="translate(-84.32 -66.7)"/><path class="cls-15" d="M314.6,416c-1.62-3.23-3.3-6.39-5-9.6" transform="translate(-84.32 -66.7)"/><path class="cls-13" d="M442.1,435.59c9.86-4,21.82-8.94,35.38-14.63s28.79-12.07,45.48-19.47c14-6.22,30.62-13.25,44-19.06s23.39-10.68,22.83-14.25c-.52-3.4-11.66-5.36-27-4.62-1.92.1-3.9.21-5.93.37s-4.09.44-6.21.69c-4.23.46-8.57,1.27-13,2.08-2.2.38-4.39.93-6.58,1.43s-4.4,1-6.56,1.62-4.3,1.24-6.42,1.88l-3.14,1-3.07,1.07c-2.33.82-4.61,1.67-6.86,2.52s-4.41,1.85-6.56,2.8l-3.19,1.42c-1.05.5-2.08,1-3.1,1.53-2.05,1-4.05,2.06-6,3.09s-3.84,2.19-5.71,3.28-3.69,2.17-5.43,3.34-3.46,2.32-5.13,3.47l-2.47,1.72-2.38,1.79a167.74,167.74,0,0,0-28.85,27.64Z" transform="translate(-84.32 -66.7)"/><path class="cls-16" d="M439.54,430.48a348.34,348.34,0,0,1,137.25-60.27" transform="translate(-84.32 -66.7)"/><path class="cls-16" d="M544.24,378.37c1.79-3,3.62-6.11,5.54-9.06" transform="translate(-84.32 -66.7)"/><polyline class="cls-16" points="451.34 314.37 455.65 317.87 459.91 321.48"/><polyline class="cls-16" points="432.99 321 434.09 316.03 435.27 311.11"/><path class="cls-16" d="M504.35,393.11c3.88,1.9,7.66,3.78,11.42,5.84" transform="translate(-84.32 -66.7)"/><path class="cls-16" d="M490.21,399.7c.9-4.31,1.92-8.55,3-12.88" transform="translate(-84.32 -66.7)"/><path class="cls-16" d="M468.07,411.71c3.15.82,6.21,1.59,9.31,2.53" transform="translate(-84.32 -66.7)"/><path class="cls-13" d="M363.9,344.26C355.28,329.11,340.08,302.68,325,283A361.53,361.53,0,0,0,267,222.74c-2.49-2.09-5.18-4.09-7.84-6.15s-5.39-4.11-8.2-6.11-5.69-3.95-8.56-5.9L238,201.69l-4.42-2.76c-3-1.82-5.9-3.61-8.82-5.34s-5.93-3.29-8.83-4.86-5.77-3.08-8.63-4.44-5.69-2.62-8.42-3.82l-4-1.74-2-.82-2-.74c-2.6-.95-5.1-1.83-7.47-2.6s-4.63-1.47-6.74-2-4.17-1-6-1.27c-7.43-1.27-12.3-.88-13.64,1.59s.82,6.85,5.35,12.42c1.12,1.41,2.43,2.81,3.8,4.42s2.88,3.25,4.5,5,3.36,3.48,5.2,5.29,3.68,3.82,5.66,5.78,4.05,3.95,6.16,6,4.24,4.25,6.45,6.4c4.47,4.22,8.95,8.85,13.65,13.31l1.76,1.68,1.74,1.73,3.49,3.45c2.34,2.3,4.74,4.52,7.06,6.82s4.66,4.58,7,6.81l3.49,3.31,3.42,3.31c2.6,2.51,5.22,4.94,7.82,7.34s5.14,4.83,7.7,7.17l3.85,3.46L259,280q3.79,3.42,7.56,6.67c5,4.41,9.94,8.6,14.8,12.66S291,307.2,295.68,311a591.67,591.67,0,0,0,50.77,36.16Z" transform="translate(-84.32 -66.7)"/><path class="cls-17" d="M358,343.15c-27.34-29.07-60.49-60.32-89.79-87.46-14.64-13.56-29.7-26.61-45.32-38.81a483.54,483.54,0,0,0-48.63-33.57" transform="translate(-84.32 -66.7)"/><path class="cls-17" d="M217.12,212.5c-5.52.58-10.9,1.12-16.38,1.93" transform="translate(-84.32 -66.7)"/><path class="cls-17" d="M228.22,221.13l.89-8.82c.28-2.95.49-5.87.72-8.82" transform="translate(-84.32 -66.7)"/><polyline class="cls-17" points="167.42 174.12 159.72 176.21 152.03 178.43"/><path class="cls-17" d="M268.21,255.69c.28-6.8.58-13.7.66-20.54" transform="translate(-84.32 -66.7)"/><path class="cls-17" d="M286.2,272.77c-6.89.86-13.81,1.85-20.65,2.85" transform="translate(-84.32 -66.7)"/><path class="cls-17" d="M314.58,301.29c0-5.16.08-10.35.05-15.52" transform="translate(-84.32 -66.7)"/><path class="cls-13" d="M415.91,340a457.66,457.66,0,0,0-13.27-74.47,456.68,456.68,0,0,0-14.26-44.48c-2.93-7.71-6.08-15.48-9.65-23.46-1.74-4-3.68-8-5.61-12s-4.06-8.11-6.24-12.19A300.63,300.63,0,0,0,340.14,132c-10.27-13.28-21.79-25.26-33.07-34.25-2.75-2.31-5.63-4.32-8.35-6.22-1.37-.94-2.7-1.86-4-2.72s-2.7-1.61-4-2.35-2.57-1.46-3.79-2.13l-1.82-1c-.62-.3-1.23-.58-1.83-.85-2.41-1.08-4.65-2-6.72-2.75a35.47,35.47,0,0,0-5.8-1.6,25.56,25.56,0,0,0-4.69-.54c-2.72,0-4.6.62-5.56,2s-1,3.36-.3,5.88a27.8,27.8,0,0,0,1.56,4.13c.34.74.74,1.5,1.15,2.31s.82,1.7,1.28,2.59c.93,1.77,2,3.64,3.18,5.59s2.34,4.18,3.69,6.37,2.66,4.61,4.11,7c.72,1.23,1.48,2.44,2.22,3.73s1.45,2.62,2.2,4c6.06,10.68,12.52,23.09,18.81,36.36s12.41,27.34,18.32,40.77q2.58,5.79,5.09,11.47L326.92,221c3.42,7.46,6.89,14.78,10.35,21.84,6.94,14.13,13.89,27.37,20.72,39.71,13.67,24.66,26.8,45.72,38,62.73Z" transform="translate(-84.32 -66.7)"/><path class="cls-18" d="M405.35,341.72q-23.07-67.28-52.11-131.8c-9.65-21.47-20.12-42.59-32.28-62.4a298.35,298.35,0,0,0-19.85-28.34l-2.69-3.33-1.35-1.67c-.45-.55-.94-1.07-1.41-1.6L290,106.2l-5.91-6.07c-1-1-2-2-3-2.92L278,94.35" transform="translate(-84.32 -66.7)"/><path class="cls-18" d="M316.4,140.37c-3.12-.8-6.35-1.45-9.49-2.11s-6.24-1.27-9.39-1.78" transform="translate(-84.32 -66.7)"/><path class="cls-18" d="M325.07,154.38c3.14-6.15,6.23-12.48,9-18.9" transform="translate(-84.32 -66.7)"/><path class="cls-18" d="M342.12,186.21c-6.24-.83-12.51-1.54-18.71-2.19" transform="translate(-84.32 -66.7)"/><path class="cls-18" d="M353.24,209.92c3.48-7.27,6.82-14.6,10.13-22.06" transform="translate(-84.32 -66.7)"/><path class="cls-18" d="M365,236.72q-11.89-3.25-23.78-6.32" transform="translate(-84.32 -66.7)"/><path class="cls-18" d="M383,280.69q3.61-8.42,7.11-16.9" transform="translate(-84.32 -66.7)"/><path class="cls-13" d="M390.75,437.37c-7.8-10-28.05-33.5-40.27-46.31a425.52,425.52,0,0,0-43.92-40.17c-28.85-22.86-70.51-49.73-75.93-43.53s25.42,43.93,53.49,70a320.33,320.33,0,0,0,47.26,36.34c15,9.46,28.59,19.48,40.12,24.56Z" transform="translate(-84.32 -66.7)"/><path class="cls-19" d="M381.93,435.59c-45.67-36-96.3-79.69-140.25-118.07" transform="translate(-84.32 -66.7)"/><line class="cls-19" x1="186.35" y1="276.06" x2="174.18" y2="276.45"/><line class="cls-19" x1="194.18" y1="282.83" x2="196.01" y2="270.04"/><line class="cls-19" x1="211.25" y1="297.5" x2="199.97" y2="300.66"/><line class="cls-19" x1="223.61" y1="308.03" x2="223.65" y2="293.09"/><line class="cls-19" x1="237.45" y1="319.7" x2="222.49" y2="322.74"/><line class="cls-19" x1="260.02" y1="338.41" x2="258.87" y2="327.18"/><path class="cls-13" d="M406.7,439.69c9.59-11.53,21.1-25.65,33.81-42.06s26.75-35,41.44-56.14c12.33-17.73,26.81-38.57,38-55.66s18.93-30.55,15.5-34.22S517.92,254.52,500.7,267c-2.14,1.55-4.36,3.18-6.59,4.9s-4.44,3.57-6.71,5.44c-4.57,3.72-9.06,7.85-13.6,12.06-2.29,2.08-4.45,4.32-6.66,6.51s-4.4,4.42-6.51,6.7-4.17,4.57-6.19,6.85l-3,3.43c-1,1.16-1.92,2.31-2.86,3.46q-3.24,4-6.3,7.9c-2,2.66-3.92,5.33-5.8,8l-2.78,4c-.9,1.33-1.76,2.67-2.62,4q-2.58,4-5,7.91c-1.6,2.63-3.08,5.29-4.55,7.89s-2.91,5.17-4.2,7.78-2.57,5.16-3.79,7.7l-1.79,3.77L410.09,379c-8.71,20-15.08,44.5-18.09,59.37Z" transform="translate(-84.32 -66.7)"/><path class="cls-20" d="M398,438.36A672.68,672.68,0,0,1,453.6,345,627,627,0,0,1,522,264" transform="translate(-84.32 -66.7)"/><path class="cls-20" d="M490.23,298.27c-.16-4.9-.31-9.88-.32-14.79" transform="translate(-84.32 -66.7)"/><polyline class="cls-20" points="397.8 241.14 405.51 242.09 413.22 243.17"/><polyline class="cls-20" points="380.87 262.46 378.58 255.74 376.38 249.03"/><path class="cls-20" d="M453.6,345c6-.49,11.9-1,17.89-1.23" transform="translate(-84.32 -66.7)"/><path class="cls-20" d="M441.25,362.92c-1.93-5.84-3.72-11.67-5.51-17.6" transform="translate(-84.32 -66.7)"/><path class="cls-20" d="M422.7,392.84c4.4-1.15,8.68-2.31,13.09-3.33" transform="translate(-84.32 -66.7)"/></g></g><g id="OBJECTS"><path class="cls-2" d="M567.39,357.2l-.34.16c-3.51,1.68-5.38,1.4-8.8-.18a36,36,0,0,1-8.83-5.49,18.43,18.43,0,0,1-6.4-11.25,4,4,0,0,1,.47-2.86,3.2,3.2,0,0,1,3.71-.77,11.16,11.16,0,0,1,3.27,2.38,3.68,3.68,0,0,0,1.45.93,1.37,1.37,0,0,0,1.53-.51c.45-.8-.33-1.73-1-2.32-1.64-1.37-3.18-2.16-4.9-3.37a16.13,16.13,0,0,1-5.36-5.75,8.48,8.48,0,0,1-.21-7.63,4.6,4.6,0,0,1,1.57-1.79,5.6,5.6,0,0,1,4.15-.43,39.85,39.85,0,0,0,4.16,1c3.35.35,4.67-2,4.61-5.1,0-2.07-.72-4.08-.84-6.15-.21-3.64,1.59-7.51,4.88-9.07s7.9-.07,9.08,3.38c1.28,3.75-1.64,8,.29,11.54a11,11,0,0,0,3.18,3.47c1.84,1.14,4.49-.2,6.63-.1a2,2,0,0,1,1.33.42,1.89,1.89,0,0,1,.41,1,8,8,0,0,1-2.4,7.23c-2.22,2-6.06,3.05-7,6.21-.58,2-.33,6.85,2.8,6.36,1.17-.19,2-1.35,3.08-1.73a3.12,3.12,0,0,1,3.6,1.78,5.49,5.49,0,0,1-.1,4.28,17.94,17.94,0,0,1-4.11,5.55C573.93,351.77,571.76,355,567.39,357.2Z" transform="translate(-84.32 -66.7)"/><line class="cls-21" x1="478.43" y1="244.88" x2="478.43" y2="372.42"/><polyline class="cls-21" points="487.27 258.09 478.43 266.93 469.58 258.09"/><polyline class="cls-21" points="487.27 275.85 478.43 284.69 469.58 275.85"/><path class="cls-22" d="M581.2,411.05l-.3.15c-3.15,1.5-4.83,1.25-7.9-.17a32.23,32.23,0,0,1-7.91-4.92A16.55,16.55,0,0,1,559.35,396a3.61,3.61,0,0,1,.42-2.57,2.89,2.89,0,0,1,3.33-.69,10.23,10.23,0,0,1,2.94,2.14,3.18,3.18,0,0,0,1.29.83,1.21,1.21,0,0,0,1.37-.45c.41-.72-.29-1.55-.93-2.08-1.47-1.23-2.85-1.94-4.39-3a14.6,14.6,0,0,1-4.8-5.15,7.62,7.62,0,0,1-.2-6.85,4.19,4.19,0,0,1,1.41-1.6,5,5,0,0,1,3.72-.38,37.31,37.31,0,0,0,3.73.87c3,.32,4.19-1.8,4.13-4.57,0-1.85-.64-3.66-.75-5.51-.18-3.26,1.43-6.74,4.38-8.13s7.08-.06,8.14,3c1.15,3.36-1.48,7.13.26,10.34a9.73,9.73,0,0,0,2.84,3.11c1.65,1,4-.18,6-.09a1.77,1.77,0,0,1,1.19.38,1.67,1.67,0,0,1,.37.86A7.14,7.14,0,0,1,591.6,383c-2,1.81-5.44,2.73-6.28,5.56-.53,1.76-.3,6.15,2.5,5.7,1-.16,1.75-1.2,2.76-1.54a2.79,2.79,0,0,1,3.23,1.59,4.93,4.93,0,0,1-.09,3.84,16,16,0,0,1-3.69,5C587.06,406.18,585.11,409.12,581.2,411.05Z" transform="translate(-84.32 -66.7)"/><line class="cls-21" x1="492.72" y1="303.46" x2="492.72" y2="371.63"/><polyline class="cls-21" points="500.64 315.3 492.71 323.23 484.79 315.3"/><polyline class="cls-21" points="500.64 331.22 492.71 339.15 484.79 331.22"/><path class="cls-23" d="M126.31,424.93l-.41.19c-4.18,2-6.41,1.67-10.49-.21a43,43,0,0,1-10.52-6.55c-3.94-3.48-7-8.19-7.63-13.41a4.69,4.69,0,0,1,.56-3.4,3.81,3.81,0,0,1,4.42-.92,13.51,13.51,0,0,1,3.91,2.84,4.4,4.4,0,0,0,1.72,1.11,1.62,1.62,0,0,0,1.82-.61c.54-1-.39-2.06-1.24-2.76-2-1.63-3.79-2.58-5.84-4a19.37,19.37,0,0,1-6.38-6.85,10.11,10.11,0,0,1-.26-9.1,5.53,5.53,0,0,1,1.87-2.14,6.71,6.71,0,0,1,5-.5,47.53,47.53,0,0,0,5,1.16c4,.42,5.57-2.4,5.49-6.07-.06-2.47-.85-4.87-1-7.33-.26-4.34,1.89-9,5.81-10.82s9.42-.07,10.82,4c1.53,4.46-2,9.48.35,13.75a13,13,0,0,0,3.78,4.13c2.2,1.36,5.35-.24,7.91-.12a2.26,2.26,0,0,1,1.58.51A2.18,2.18,0,0,1,143,379a9.44,9.44,0,0,1-2.86,8.61c-2.64,2.41-7.22,3.64-8.35,7.4-.7,2.34-.39,8.17,3.33,7.58,1.4-.22,2.33-1.6,3.67-2.06a3.72,3.72,0,0,1,4.3,2.13,6.51,6.51,0,0,1-.13,5.1c-1,2.57-3,4.63-4.9,6.61C134.1,418.46,131.51,422.36,126.31,424.93Z" transform="translate(-84.32 -66.7)"/><line class="cls-24" x1="36.45" y1="303.86" x2="36.45" y2="372.58"/><polyline class="cls-24" points="46.99 319.6 36.45 330.14 25.91 319.6"/><polyline class="cls-24" points="46.99 340.77 36.45 351.31 25.91 340.77"/><path class="cls-22" d="M637.83,393.65A40.58,40.58,0,0,0,629,389.1a78.8,78.8,0,0,0-12.85-3.4c-8.27-1.55-20.29-2.37-20.27-4.16,0-.83,2.89-1.77,7-2.46a54.09,54.09,0,0,1,14.5-.42,34.24,34.24,0,0,1,14.4,5,24.52,24.52,0,0,1,7.87,8.06Z" transform="translate(-84.32 -66.7)"/><path class="cls-25" d="M638.66,392.57c-4.58-5-11.17-8.08-18-9.64s-14.1-1.67-21.16-1.54" transform="translate(-84.32 -66.7)"/><line class="cls-25" x1="524.52" y1="314.75" x2="522.42" y2="312.98"/><path class="cls-25" d="M611.35,381.6q-1,1.06-1.86,2.13" transform="translate(-84.32 -66.7)"/><path class="cls-25" d="M616.79,382.2c-.41-.74-.83-1.47-1.26-2.2" transform="translate(-84.32 -66.7)"/><path class="cls-25" d="M620.65,382.93c-.95.59-1.86,1.2-2.75,1.84" transform="translate(-84.32 -66.7)"/><path class="cls-25" d="M624.85,384.1c-.44-1-.93-2-1.46-3" transform="translate(-84.32 -66.7)"/><path class="cls-25" d="M631.27,386.88c-.83.18-1.63.35-2.43.59" transform="translate(-84.32 -66.7)"/><path class="cls-22" d="M642.5,394.54a36.59,36.59,0,0,1-6.08-5.39c-1.94-2.1-3.79-4.44-5.63-6.71a63.84,63.84,0,0,0-5.92-6.49,74.93,74.93,0,0,0-7.62-6.24A149.93,149.93,0,0,0,601.06,360c-5.14-2.73-9-4.88-8.63-6.07s4.79-1.3,10.87-.17a61.66,61.66,0,0,1,9.93,2.73,53.93,53.93,0,0,1,10,4.87,43.31,43.31,0,0,1,9.12,7.67,39.86,39.86,0,0,1,5.86,8.71c1.4,2.82,2.48,5.4,3.54,7.73a51.89,51.89,0,0,0,3.28,6.26Z" transform="translate(-84.32 -66.7)"/><path class="cls-26" d="M643.61,392.91c-3.81-3.88-6.3-8.42-9-12.63-.68-1.06-1.38-2.09-2.1-3.11s-1.55-2-2.33-2.94a50.75,50.75,0,0,0-5.4-5.27,64.27,64.27,0,0,0-12.88-8.17,100.18,100.18,0,0,0-14.36-5.53" transform="translate(-84.32 -66.7)"/><path class="cls-26" d="M610.19,360c-.59-1.19-1.22-2.34-1.88-3.5" transform="translate(-84.32 -66.7)"/><path class="cls-26" d="M613.46,361.59c-1.24.58-2.44,1.15-3.64,1.79" transform="translate(-84.32 -66.7)"/><path class="cls-26" d="M620.25,365.57c-.06-1.22-.17-2.44-.32-3.64" transform="translate(-84.32 -66.7)"/><path class="cls-26" d="M624.77,369c-1.57.1-3.18.37-4.68.61" transform="translate(-84.32 -66.7)"/><path class="cls-26" d="M629.3,373.27a40.71,40.71,0,0,0,.21-4.83" transform="translate(-84.32 -66.7)"/><path class="cls-26" d="M635.29,381.35c-1.17-.37-2.33-.74-3.49-1.05" transform="translate(-84.32 -66.7)"/><path class="cls-22" d="M640.12,391.25c-1-6.17-2.33-15-3.13-25.67-.34-4.49-.69-9.76-.85-14s-.09-7.35.77-7.54,2.41,2.59,3.9,6.66A74.72,74.72,0,0,1,644.33,365a66.63,66.63,0,0,1-1.5,26.22Z" transform="translate(-84.32 -66.7)"/><path class="cls-27" d="M641.51,391.06a173.1,173.1,0,0,0-3.69-43.32" transform="translate(-84.32 -66.7)"/><line class="cls-27" x1="555.25" y1="290.5" x2="556.63" y2="288.05"/><path class="cls-27" d="M640,359.76l-2.54-1.43" transform="translate(-84.32 -66.7)"/><line class="cls-27" x1="556.33" y1="298.64" x2="558.21" y2="296.83"/><path class="cls-27" d="M641,369.37c-.88-.75-1.75-1.49-2.64-2.21" transform="translate(-84.32 -66.7)"/><line class="cls-27" x1="557.04" y1="307.16" x2="559.42" y2="304.68"/><line class="cls-27" x1="557.31" y1="314.44" x2="555.58" y2="312.46"/><path class="cls-22" d="M643.29,393.09a105.43,105.43,0,0,1,4.91-26.7c2.91-9,8.13-20.53,9.84-19.95s-.27,12.83-2.62,22.24a117.34,117.34,0,0,1-9.4,24.95Z" transform="translate(-84.32 -66.7)"/><path class="cls-28" d="M644.74,393.2q5.67-21.69,12.25-43.07" transform="translate(-84.32 -66.7)"/><line class="cls-28" x1="569.82" y1="292.83" x2="572.19" y2="291.2"/><line class="cls-28" x1="569.07" y1="295.37" x2="567.32" y2="292.93"/><line class="cls-28" x1="567.46" y1="300.89" x2="569.95" y2="299.93"/><line class="cls-28" x1="566.31" y1="304.88" x2="564.62" y2="301.76"/><line class="cls-28" x1="565.06" y1="309.34" x2="568.21" y2="307.77"/><line class="cls-28" x1="563.06" y1="316.59" x2="561.94" y2="314.1"/><path class="cls-22" d="M637.52,397.67a29.68,29.68,0,0,1,8.87-9.71,50,50,0,0,1,14.6-7.4,52,52,0,0,1,7.67-1.76,56.76,56.76,0,0,1,7.37-.59,51.49,51.49,0,0,0,5.38-.41c1.39-.2,2.34-.36,2.6,0s-.26,1.32-1.54,2.39a18.53,18.53,0,0,1-5.53,2.88c-2.25.77-4.53,1.5-6.76,2.27s-4.67,1.68-6.86,2.53c-5,2-9.56,3.91-13.6,5.73a44.48,44.48,0,0,0-9.88,5.67Z" transform="translate(-84.32 -66.7)"/><path class="cls-29" d="M638.83,398.36a33,33,0,0,1,9-7.47,76,76,0,0,1,10.24-5.15,77.27,77.27,0,0,1,10.79-3.53c1.84-.45,3.67-.82,5.54-1.14a40,40,0,0,0,5.72-1.29" transform="translate(-84.32 -66.7)"/><path class="cls-29" d="M670.25,381.89c.88.45,1.73.88,2.58,1.35" transform="translate(-84.32 -66.7)"/><path class="cls-29" d="M667.66,382.53c.39-.94.81-1.87,1.24-2.8" transform="translate(-84.32 -66.7)"/><path class="cls-29" d="M662.07,384.24c.76.5,1.5,1,2.23,1.54" transform="translate(-84.32 -66.7)"/><path class="cls-29" d="M658.12,385.74c.47-1.11,1-2.21,1.52-3.32" transform="translate(-84.32 -66.7)"/><path class="cls-29" d="M653.8,387.68c1.11.44,2.22.92,3.29,1.4" transform="translate(-84.32 -66.7)"/><path class="cls-29" d="M647.05,391.4c.3-.88.63-1.77,1-2.64" transform="translate(-84.32 -66.7)"/><path class="cls-30" d="M542.73,322.12h25.92a7.4,7.4,0,0,1,7.4,7.4v24.08a19,19,0,0,1-19,19h-5.12a16.2,16.2,0,0,1-16.2-16.2V329.13A7,7,0,0,1,542.73,322.12Z"/><path class="cls-31" d="M626.61,426V394.56a5.73,5.73,0,0,1,5.73-5.73h-6.55a5.74,5.74,0,0,0-5.74,5.73V426a13.27,13.27,0,0,0,13.28,13.27h6.55A13.27,13.27,0,0,1,626.61,426Z" transform="translate(-84.32 -66.7)"/><rect class="cls-30" x="530.86" y="320.24" width="49.21" height="9.21" rx="3"/><rect class="cls-32" x="318.78" y="118.27" width="144.93" height="104.24" rx="8.27"/><rect class="cls-33" x="322.1" y="120.56" width="138.29" height="99.67" rx="8.27"/><line class="cls-34" x1="382.33" y1="194.2" x2="409.73" y2="194.2"/><line class="cls-34" x1="382.33" y1="198.18" x2="409.73" y2="198.18"/><line class="cls-34" x1="382.33" y1="202.16" x2="409.73" y2="202.16"/><line class="cls-34" x1="382.33" y1="206.13" x2="409.73" y2="206.13"/><line class="cls-34" x1="382.33" y1="210.11" x2="392.96" y2="210.11"/><line class="cls-35" x1="359.44" y1="139.75" x2="398.55" y2="139.75"/><line class="cls-35" x1="359.44" y1="145.43" x2="398.55" y2="145.43"/><line class="cls-35" x1="359.44" y1="151.1" x2="398.55" y2="151.1"/><line class="cls-35" x1="359.44" y1="156.78" x2="398.55" y2="156.78"/><line class="cls-35" x1="359.44" y1="162.46" x2="374.61" y2="162.46"/><path class="cls-8" d="M501,219.32h3.65a4.83,4.83,0,0,0,.12-1.08v-8.17h-9.56v13.19h4.55a5.08,5.08,0,0,0,1.24-.16Z" transform="translate(-84.32 -66.7)"/><path class="cls-36" d="M501,223.1a5,5,0,0,0,3.65-3.78H501Z" transform="translate(-84.32 -66.7)"/><path class="cls-37" d="M517.65,256.85h7.86a10.88,10.88,0,0,0,.25-2.3V237H505.24v28.31H515a10.52,10.52,0,0,0,2.65-.35Z" transform="translate(-84.32 -66.7)"/><path class="cls-38" d="M517.65,265a10.76,10.76,0,0,0,7.86-8.11h-7.86Z" transform="translate(-84.32 -66.7)"/><path class="cls-37" d="M523.73,215.76h7.86a10.78,10.78,0,0,0,.25-2.29V195.92H511.32v28.3h9.76a10.93,10.93,0,0,0,2.65-.34Z" transform="translate(-84.32 -66.7)"/><path class="cls-38" d="M523.73,223.88a10.77,10.77,0,0,0,7.86-8.12h-7.86Z" transform="translate(-84.32 -66.7)"/><path class="cls-39" d="M641.84,189.15H586l-15,9.74V157.55c0-8.31,7.72-15,17.25-15h53.56c9.53,0,17.26,6.73,17.26,15v16.56C659.1,182.42,651.37,189.15,641.84,189.15Z" transform="translate(-84.32 -66.7)"/><rect class="cls-40" x="502.72" y="87.16" width="54.8" height="5.15" rx="1.45"/><rect class="cls-40" x="502.72" y="96.48" width="54.8" height="5.15" rx="1.45"/><rect class="cls-40" x="502.72" y="105.78" width="32.97" height="5.15" rx="1.45"/><path class="cls-39" d="M188,205.5H219l16.88,11V169.91c0-9.36-8.7-16.94-19.43-16.94H188c-10.73,0-19.43,7.58-19.43,16.94v18.65C168.61,197.92,177.31,205.5,188,205.5Z" transform="translate(-84.32 -66.7)"/><path class="cls-33" d="M202.14,195.29a4.31,4.31,0,1,1,.1,0Zm-2.63-11.11-1-21.69H206L205,184.18Z" transform="translate(-84.32 -66.7)"/><path class="cls-13" d="M452.47,171.16H421.53l-16.88,11V135.57c0-9.36,8.7-16.94,19.43-16.94h28.39c10.73,0,19.43,7.58,19.43,16.94v18.65C471.9,163.58,463.2,171.16,452.47,171.16Z" transform="translate(-84.32 -66.7)"/><path class="cls-33" d="M423,160.49c0-.11,0-.16,0-.19.93-1.84-.59-2.73-1.49-3.86a.61.61,0,0,0-.58-.15c-.28,0-.57.08-.86.1-1.13.09-1.13.09-1.6-.92a15.56,15.56,0,0,1-.85-2.46c-.1-.4-.06-.73.33-.88,1.39-.53,1.57-1.61,1.62-2.94a1.78,1.78,0,0,0-.88-1.82c-.21-.13-.38-.31-.58-.46a.55.55,0,0,1-.21-.7,14,14,0,0,1,1.47-3.14.52.52,0,0,1,.68-.27c1.41.59,2.4,0,3.37-1a1.74,1.74,0,0,0,.62-1.63c-.23-1.43-.17-1.45,1.18-2a13.58,13.58,0,0,1,2.18-.72.62.62,0,0,1,.83.32,2.57,2.57,0,0,0,2.68,1.61,2.27,2.27,0,0,0,2.22-1c.6-.89.66-.84,1.67-.46a17.22,17.22,0,0,1,2.29,1.1c.45.26.66.57.47,1.05a2.48,2.48,0,0,0,.71,2.83,2.3,2.3,0,0,0,2.56.87c.61-.17.9.09,1.14.61a14.57,14.57,0,0,1,1,2.87c.09.35.06.64-.29.77-1.42.55-1.66,1.65-1.65,3a1.69,1.69,0,0,0,.82,1.72c.21.12.38.32.58.46a.57.57,0,0,1,.25.74,14.42,14.42,0,0,1-1.42,3.09.61.61,0,0,1-.78.32c-1.3-.52-2.18,0-3.19.87a2.21,2.21,0,0,0-.65,2.4.88.88,0,0,1-.61,1.1,14.42,14.42,0,0,1-2.85,1c-.38.09-.68.06-.83-.31-.56-1.36-1.61-1.57-3-1.65a2,2,0,0,0-1.92,1.07c-.62.77-.62.76-1.53.44a13.48,13.48,0,0,1-2.56-1.25C423.15,160.91,422.91,160.77,423,160.49Zm7.31-16.79a6.39,6.39,0,1,0,6.4,6.4A6.26,6.26,0,0,0,430.33,143.7Z" transform="translate(-84.32 -66.7)"/><path class="cls-33" d="M443.89,145.18a.71.71,0,0,1,0-.14c.7-1.38-.44-2-1.12-2.9a.43.43,0,0,0-.43-.11c-.22,0-.43.06-.65.07-.85.07-.85.07-1.2-.69a10.12,10.12,0,0,1-.64-1.85c-.08-.3-.05-.54.25-.66,1-.39,1.18-1.21,1.21-2.2a1.33,1.33,0,0,0-.66-1.37c-.15-.1-.28-.24-.43-.34a.42.42,0,0,1-.16-.53,10.15,10.15,0,0,1,1.1-2.36.4.4,0,0,1,.51-.21,2.06,2.06,0,0,0,2.53-.75,1.32,1.32,0,0,0,.47-1.23c-.17-1.07-.13-1.08.89-1.52a10,10,0,0,1,1.63-.54c.28-.07.5,0,.62.23a1.94,1.94,0,0,0,2,1.22,1.72,1.72,0,0,0,1.67-.73c.44-.67.49-.63,1.25-.35a13.61,13.61,0,0,1,1.72.83c.34.19.49.43.35.79a1.85,1.85,0,0,0,.54,2.12,1.69,1.69,0,0,0,1.92.65c.46-.12.68.07.85.47a10.77,10.77,0,0,1,.76,2.15c.06.26,0,.48-.22.58-1.07.41-1.25,1.24-1.24,2.28a1.25,1.25,0,0,0,.62,1.29c.15.09.28.24.43.35a.43.43,0,0,1,.19.56,11.08,11.08,0,0,1-1.07,2.32.45.45,0,0,1-.59.23,2.07,2.07,0,0,0-2.39.66,1.66,1.66,0,0,0-.49,1.8.66.66,0,0,1-.45.83,11,11,0,0,1-2.15.76c-.28.06-.51,0-.62-.23-.42-1-1.21-1.19-2.24-1.25a1.54,1.54,0,0,0-1.45.81c-.46.58-.46.57-1.15.33a10.67,10.67,0,0,1-1.92-.94C444,145.5,443.81,145.39,443.89,145.18Zm5.5-12.61a4.8,4.8,0,1,0,4.8,4.81A4.7,4.7,0,0,0,449.39,132.57Z" transform="translate(-84.32 -66.7)"/><path class="cls-13" d="M350.31,223.23H319.37l-16.88,11V187.64c0-9.36,8.7-16.94,19.43-16.94h28.39c10.73,0,19.43,7.58,19.43,16.94v18.65C369.74,215.65,361,223.23,350.31,223.23Z" transform="translate(-84.32 -66.7)"/><polygon class="cls-9" points="251.8 112.88 257 123.42 268.63 125.12 260.21 133.32 262.2 144.91 251.8 139.44 241.39 144.91 243.38 133.32 234.96 125.12 246.59 123.42 251.8 112.88"/><path class="cls-6" d="M254.42,272.81a5.13,5.13,0,0,0,.69-5.83,5.33,5.33,0,0,0-2.19-2.07,5.16,5.16,0,0,0-3-.51,8.66,8.66,0,0,0-4.22,1.68A5.34,5.34,0,0,0,244,268.6a9.39,9.39,0,0,0-.35,4.7,9.7,9.7,0,0,0,.84,2.15c.47,1,.95,2,1.45,2.95,1,1.93,2.15,3.77,3.25,5.63a22,22,0,0,1,1.36,2.53,15.1,15.1,0,0,0,1,2.25,3,3,0,0,0,1.15,1.07c.83.44,1.69.79,2.49,1.29,1.78,1.12,3.52,2.29,5.38,3.27A30.08,30.08,0,0,0,266,296.6,42.23,42.23,0,0,0,271.9,298c1.24.2,2.41.44,4,.59a34.94,34.94,0,0,0,4.86.11l8-3.82.42-3.65-2.58-3.58-1.91-.44-6,2.95-1.68,2.31-2.81.17a40.41,40.41,0,0,1-5.34-3.43,51.21,51.21,0,0,0-4.9-3.64c-1.55-1-2.41-1.44-2.41-1.44a17.64,17.64,0,0,1-2.47-1.4,6.58,6.58,0,0,1-1.95-3.1c-.42-1.05-.84-2.1-1.24-3.16s-.8-1.91-1.2-2.87c-.61-1.46-1.5-3.36-2.63-5.65Z" transform="translate(-84.32 -66.7)"/><path class="cls-7" d="M270.11,433.92a12.54,12.54,0,0,0-4-.41A13.61,13.61,0,0,1,261,432a31.13,31.13,0,0,1-4.75-3,22.93,22.93,0,0,1-2.16-1.78,1.81,1.81,0,0,0-.81-.59,2.65,2.65,0,0,0-.38-.05c.49-.3.22-.9.08-1.35-.32-1-.68-2-1-3-.2-.74-.22-1.48-.36-2.23-.21-1.12-1-2.15-.92-3.31a2.4,2.4,0,0,0,.05-.84c-.09-.32-.37-.54-.45-.85a6.69,6.69,0,0,1,0-1.55c0-1.16-.1-2.31-.15-3.47-.09-2.07-.13-4.14-.07-6.21s.19-3.92.41-5.86c.27-2.33.53-4.63.64-7a19.7,19.7,0,0,1,.28-2.77,18.33,18.33,0,0,0,.17-2.67,6.5,6.5,0,0,1,.39-2c.31-.9.51-1.83.8-2.73a15.22,15.22,0,0,1,.94-2,11.28,11.28,0,0,0,.8-2.53,33.73,33.73,0,0,0,.42-6.19,29.63,29.63,0,0,1,1-5.82c.53-2.29,1.18-4.56,1.78-6.84.5-1.88,1-3.76,1.44-5.65a56.66,56.66,0,0,0,1.07-5.93c.27-2.28.58-4.56.78-6.84.09-1.05.1-2.1.18-3.15.07-.88.27-1.75.35-2.63a22.57,22.57,0,0,0-.07-2.47,9.22,9.22,0,0,1,.62-2.89,13,13,0,0,1,.65-1.48,6.85,6.85,0,0,0,.72-1.43,28.18,28.18,0,0,0,.57-3,22.92,22.92,0,0,0,.18-2.87L240,311.83c-.68.79-1.32,1.6-1.92,2.44a26.18,26.18,0,0,0-3.29,5.62,15.08,15.08,0,0,0-1,6.23,28.78,28.78,0,0,0,1.42,6.8c.34,1.14.72,2.27,1.08,3.4a13.76,13.76,0,0,0,1,2.57c.21.35.56.6.76.95a1.52,1.52,0,0,1,.12.84c0,1.5.81,2.77,1,4.23a4.76,4.76,0,0,1-.17,1.45A5.1,5.1,0,0,0,239,348a18.07,18.07,0,0,1,.1,2.85c0,1.27,0,2.54,0,3.81,0,2.33,0,4.67.12,7,.06,1.44.13,2.87.18,4.31a13.58,13.58,0,0,1-.15,2.78,8.4,8.4,0,0,0-.28,2.22,5.83,5.83,0,0,1-.15,1.82,9.27,9.27,0,0,0-.42,2.27,11.29,11.29,0,0,0,.26,1.63,11.8,11.8,0,0,1-.07,2c0,1.11,0,2.22-.07,3.33-.18,2.32-.58,4.62-.82,6.94a70.27,70.27,0,0,0-.41,7.11,49.41,49.41,0,0,0,.58,7c.35,2.33.81,4.64,1.06,7,.28,2.59.4,5.2.57,7.81.15,2.2.51,4.38.67,6.58.09,1.19.1,2.39.15,3.58a4.82,4.82,0,0,0,.3,1.81c-.46.1-.63.6-.76,1a23.09,23.09,0,0,0-.86,5.61,14.14,14.14,0,0,0,0,2.52,1.32,1.32,0,0,0,.19.64c.4.56,1.43.65,2,.73a35.58,35.58,0,0,0,4.73.2h8.23a101.36,101.36,0,0,0,11.56-.29,15.18,15.18,0,0,0,5.08-1.31c.55-.28,1.07-.61,1.12-1.28A3.35,3.35,0,0,0,270.11,433.92Z" transform="translate(-84.32 -66.7)"/><path class="cls-1" d="M260,231.23c.12.51.22,1,.29,1.53a20.7,20.7,0,0,1,.22,3.33c0,1-.26,2-.23,3.07a3.9,3.9,0,0,0,.67,1.67,17.68,17.68,0,0,1,1.29,2.62c.15.46.23,1.09-.3,1.29s-1.67-.09-1.89.71c-.11.41.05.87-.1,1.28s-.35.35-.55.54a.94.94,0,0,0-.28.64,5.4,5.4,0,0,1-.17,1.44c-.16.44-.48.64-.72,1a1.87,1.87,0,0,0-.19,1c0,1,0,2.17-1.24,2.45a6.65,6.65,0,0,1-2.18-.08,10.71,10.71,0,0,0-2.76-.2,1.65,1.65,0,0,0-1.07.63,7.44,7.44,0,0,0-1.24,2.06,29.66,29.66,0,0,0,1.41,5.8c.8,1.69-2.53,2.4-2.53,2.4l-8.72-4-3.08-4.75,2-5.28a8.92,8.92,0,0,0,.62-2.64l.44-17.38,11.75-4.16,8.57,4.91Z" transform="translate(-84.32 -66.7)"/><g class="cls-41"><path class="cls-6" d="M252.63,253.61s-5-2.26-6.51-6.89c.09,3.66,4.43,9.69,4.43,9.69Z" transform="translate(-84.32 -66.7)"/></g><path class="cls-8" d="M258.38,319.1a22.92,22.92,0,0,1-.18,2.87,28.22,28.22,0,0,1-.58,3,6.81,6.81,0,0,1-.71,1.43,11.45,11.45,0,0,0-.65,1.48,8.7,8.7,0,0,0-.62,2.89,22.57,22.57,0,0,1,.07,2.47c-.09.88-.28,1.75-.35,2.63-.08,1.05-.1,2.1-.19,3.15-.19,2.28-.5,4.56-.78,6.84a56.63,56.63,0,0,1-1.06,5.93c-.44,1.89-.94,3.77-1.44,5.65-.61,2.28-1.25,4.55-1.78,6.84a29.63,29.63,0,0,0-1,5.82,34.64,34.64,0,0,1-.43,6.19,11.25,11.25,0,0,1-.79,2.53,15.22,15.22,0,0,0-.94,2c-.29.9-.49,1.83-.81,2.73a6.49,6.49,0,0,0-.38,2,18.33,18.33,0,0,1-.17,2.67,19.7,19.7,0,0,0-.28,2.77c-.11,2.33-.37,4.63-.64,7-.23,1.94-.35,3.9-.41,5.86s0,4.14.07,6.21l.15,3.47a7.3,7.3,0,0,0,0,1.55c.09.31.37.53.45.85a2.18,2.18,0,0,1-.05.84c-.11,1.16.71,2.19.93,3.31.14.75.16,1.49.36,2.23.28,1,.64,2,1,3,.15.46.44,1.08-.11,1.37l-2.79,4.5c-1.86.9-9.46-1.34-9.46-1.34a4.82,4.82,0,0,1-.3-1.81c-.05-1.19-.07-2.39-.15-3.58-.16-2.2-.53-4.38-.67-6.58-.18-2.61-.3-5.22-.57-7.81-.26-2.34-.71-4.65-1.06-7a49.41,49.41,0,0,1-.58-7,67.48,67.48,0,0,1,.41-7.11c.23-2.32.64-4.62.81-6.94.09-1.11,0-2.22.08-3.33a11.8,11.8,0,0,0,.07-2,11.29,11.29,0,0,1-.26-1.63,9.75,9.75,0,0,1,.41-2.27,5.29,5.29,0,0,0,.15-1.82,8.83,8.83,0,0,1,.28-2.22,12.91,12.91,0,0,0,.16-2.78c0-1.44-.12-2.87-.18-4.31-.1-2.33-.11-4.67-.12-7,0-1.27,0-2.54,0-3.81a19.35,19.35,0,0,0-.1-2.85,5.1,5.1,0,0,1-.16-1.6,5.48,5.48,0,0,0,.17-1.45c-.15-1.46-1-2.73-1-4.23a1.56,1.56,0,0,0-.12-.83c-.2-.36-.55-.61-.76-1a13.76,13.76,0,0,1-1-2.57c-.37-1.13-.74-2.26-1.08-3.4a28.78,28.78,0,0,1-1.42-6.8,15.08,15.08,0,0,1,1-6.23,25.78,25.78,0,0,1,3.29-5.62c.6-.84,1.24-1.65,1.91-2.44Z" transform="translate(-84.32 -66.7)"/><path class="cls-2" d="M235.34,284.25A34.16,34.16,0,0,1,232.65,274a26.36,26.36,0,0,1,.94-10.07c.48-1.62,1.36-3,1.7-4.7l2.39-6.5a50.66,50.66,0,0,0,8.32,6.68,9,9,0,0,0,4.12,1.39l.53,0,10.13,11.7a9.23,9.23,0,0,1,2.3,2.6,10.36,10.36,0,0,1,1.13,5.74c-.09,1.21-.33,2.41-.41,3.62a13.68,13.68,0,0,0,.23,3.19c.41,2.4.81,4.79,1.06,7.21.28,2.62,1.43,17.69,1.6,19.06s.36,2.44.5,3.16a16.74,16.74,0,0,1-7.6,2.59c-4,.31-8.56-1-10.79,0a1.93,1.93,0,0,1-1.51.16c-.32-.18-.31-.8-.35-1.09-.09-.61-.16-1.21-.26-1.82a1.74,1.74,0,0,0-.13-.59.26.26,0,0,0-.38-.12c-.31.12-2.12,2.06-2.42,2.31-.8.63-3.39-.45-10.79-7.07a9.66,9.66,0,0,0,2.79-2.08,7.8,7.8,0,0,0,1-1.32,2.8,2.8,0,0,1,1.12-1.28,3,3,0,0,0,1.05-1c.25-.39.27-.87.5-1.25s.58-.38.86-.56a2.53,2.53,0,0,0,.8-.95Z" transform="translate(-84.32 -66.7)"/><g class="cls-42"><path class="cls-31" d="M249.45,272.25s-3.45,13.65-3.12,14.58S250.21,307,250.21,307l-11-22.67,6.32-12.3Z" transform="translate(-84.32 -66.7)"/></g><path class="cls-43" d="M234.79,429.74c-.46.09-.64.6-.77,1a23.09,23.09,0,0,0-.86,5.61,15.15,15.15,0,0,0,0,2.52,1.32,1.32,0,0,0,.19.64c.4.56,1.43.65,2,.74a37.18,37.18,0,0,0,4.72.19h8.23a101.3,101.3,0,0,0,11.56-.29,15.12,15.12,0,0,0,5.08-1.31c.56-.28,1.07-.61,1.13-1.28a3.35,3.35,0,0,0-1.81-3.63,12.54,12.54,0,0,0-4-.41,13.61,13.61,0,0,1-5.13-1.49,31.13,31.13,0,0,1-4.75-3,21.72,21.72,0,0,1-2.16-1.78,1.89,1.89,0,0,0-.81-.59c-2-.47-2.77,1.84-4,2.89a5,5,0,0,1-2.72,1.1,8.14,8.14,0,0,1-2.56-.1c-.89-.17-1.73-.51-2.6-.7A2,2,0,0,0,234.79,429.74Z" transform="translate(-84.32 -66.7)"/><path class="cls-1" d="M245.47,277.15a5.5,5.5,0,0,0,3-2.66,6.33,6.33,0,0,0,.81-3.25,7.06,7.06,0,0,0-1.16-3.54,6.3,6.3,0,0,0-2.82-2.32,9.53,9.53,0,0,0-5.26-.67,5.78,5.78,0,0,0-3.18,1.68,11.36,11.36,0,0,0-2.87,4.89,12.77,12.77,0,0,0-.29,2.83c0,1.36-.07,2.71-.07,4.07,0,2.68.21,5.35.35,8a28,28,0,0,1,.06,3.55,20.45,20.45,0,0,0-.17,3,4,4,0,0,0,.62,1.84c.63,1,1.33,1.86,1.9,2.88,1.24,2.27,2.41,4.57,3.82,6.74a43,43,0,0,0,4.48,5.57c1.8,2,3.56,4,5.5,5.87s3.84,3.37,5.85,4.91a13.88,13.88,0,0,0,4.9,2,16.08,16.08,0,0,0,8.22-.28,9.59,9.59,0,0,0,2.37-5.66,9.88,9.88,0,0,0-.67-4.32,16.5,16.5,0,0,1-5.58-1.86c-.24-.13-.48-.26-.7-.4a10.16,10.16,0,0,1,2.85-1.33c1-.27,1.69-.3,1.94-.86a1.8,1.8,0,0,0-.34-1.61,2.84,2.84,0,0,0-3.18-.75l-9.24,5.61a7.37,7.37,0,0,1-.55-.52c-2-2-2.48-4-3.91-6.72-1.24-2.38-2.35-4.84-3.59-7.23-.54-1-1.1-2-1.73-3a21.62,21.62,0,0,1-1.81-3,8.64,8.64,0,0,1-.37-4.51c.14-1.39.26-2.78.41-4.17s.19-2.54.29-3.82a70.42,70.42,0,0,0,.3-7.69Z" transform="translate(-84.32 -66.7)"/><path class="cls-7" d="M259.57,233.48c-3.13,2.75-5.12,3-6.42,2.64-1.47-.44-2.79-2-3.76-1.44a1.4,1.4,0,0,0-.64,1,5,5,0,0,1,.56,2.41c-.05,1-.48,2.53-1.05,2.56-1,.06-1.59-3.68-2.4-3.6s-.6,2.83-1.49,6.25c-.71,2.73-1.81,7-5.23,9-.47.28-3.79,2.2-6.83.63A6.15,6.15,0,0,1,229,248a6.3,6.3,0,0,1,1.46-4.5,7.37,7.37,0,0,1-3.71-3.84c-.1-.25-1.33-3.43.24-5.77,1.14-1.7,2.68-1.39,3.13-2.81s-1.13-2.21-1.2-4.49c-.1-3,2.58-5.09,2.72-5.21a7.1,7.1,0,0,1,3.45-1.36,8.53,8.53,0,0,1,5.77,1.44,6.84,6.84,0,0,1,2.48-3.44,7.18,7.18,0,0,1,5.38-1,6.28,6.28,0,0,1,4,1.84A5.52,5.52,0,0,1,254,221a7.57,7.57,0,0,1,3.92-2.32,6.67,6.67,0,0,1,4.73.48,7.12,7.12,0,0,1,3.29,5.29c.25,2.37-1,2.69-.88,5.21.12,3.36,2.38,4.64,1.6,6.09-.63,1.18-2.77,1.59-4.41,1A4.52,4.52,0,0,1,259.57,233.48Z" transform="translate(-84.32 -66.7)"/><path class="cls-1" d="M247.29,238.84c0-.11-.09-.27-.16-.45a4.31,4.31,0,0,0-.34-.72,3.32,3.32,0,0,0-1.95-1.57,1.93,1.93,0,0,0-2,.88c-.65,1.11-.08,2.85.44,3.89s1.42,2.37,2.6,2.63c.11,0,1.11.14,1.54-.49a1.32,1.32,0,0,0,.14-1Z" transform="translate(-84.32 -66.7)"/><path class="cls-6" d="M245.47,240.17c-.08-.81-1-.35-1.13-1s.79-.57.74-1.18-1.77-.49-1.46,1.54S245.53,240.86,245.47,240.17Z" transform="translate(-84.32 -66.7)"/><path class="cls-43" d="M432.65,426.93c0,1.49,2.81,10.44,2.81,10.44h13.75s1.16-3,.83-4.14-4.76-4.48-5-5.14-3.63-9.28-3.63-9.28S432.65,425.44,432.65,426.93Z" transform="translate(-84.32 -66.7)"/><path class="cls-43" d="M365.64,418.73s-2.11,6.71-3.11,8.32-6.7,5.72-6.95,6.22-1,5.09-1,5.09h19s.87-7,.87-8.45-.62-5.59-.62-5.59l-.5-4.84Z" transform="translate(-84.32 -66.7)"/><path class="cls-5" d="M380.47,314.28s-5,15.91-5.3,20.21-4.92,32.49-5.49,35.08c-2.78,12.76-5.78,40.86-5.78,40.86l2,2.59-2,3.86v5a27,27,0,0,1,4.72-.87c1.49,0,5.59,1.74,5.59,1.74s4.44-12.18,4.44-14,2-2.65,1.82-4-.65-4.8,0-6.29a144.43,144.43,0,0,0,3.8-18.22c.25-3.48,4.22-14.42,4.22-14.42s4.72-13.91,5.47-15.9,1.93-12.42,6.55-12.42,12.08,14.91,13.33,20.37,9.19,32.31,10.43,34.29,6,8.7,6,8.7l-1.84,7.23,1.25,9.9s.82,5.13.94,6.24,4.26,0,4.26,0,7.69-1.63,8.93-2.25,1.37-3.35,1.12-4.22a18.23,18.23,0,0,1-1-3.48c0-.87-5.35-36.18-5.84-38.91s-4.64-12.32-5.55-16.3a111.74,111.74,0,0,1-1.78-16.36c0-3-.49-6.21-.49-7.45s-7-23.11-7-23.11Z" transform="translate(-84.32 -66.7)"/><g class="cls-44"><path class="cls-43" d="M392.23,334.87c2.68,1.71,6.15,2.36,9.67,3C397,345.37,395.38,338.59,392.23,334.87Z" transform="translate(-84.32 -66.7)"/><polygon class="cls-43" points="297.97 339.85 291.35 341.18 295.49 345.32 297.97 339.85"/><polygon class="cls-43" points="341.08 330.29 348.79 335.63 342.32 334.14 341.08 330.29"/></g><path class="cls-7" d="M385.11,241.89c-1.45.81-1.72.71-6.42,2.41a42.34,42.34,0,0,0-4.85,1.86c-2.64,2.36-1,6.27-2.32,12.46-.69,3.23-3.22,6.28-3,7.62s4.37,1.2,7.62,1.16c3.61,0,4.18-.87,5.14-.33,3.81,2.19-3.55,16.64-3,31.64.06,1.43.3,6,0,12.18-.13,2.84-.34,5.17-.49,6.71a126.44,126.44,0,0,0,23.35,4c9.77.73,14.21-.12,18.14-2.23a23.26,23.26,0,0,0,6.71-5.47,15.63,15.63,0,0,1-1.49-6.21c0-2.07.39-2.84.25-5.47a27.82,27.82,0,0,0-.75-4.72c-.8-3.74-1.3-5.09-1.73-7-.53-2.26-2.43-10.52,1.73-16.4a14.36,14.36,0,0,1,1.25-1.49c.71.44,1.32,1.78,2.15,1.33s2-9.07,3.07-11.68a18.55,18.55,0,0,0,2-6.79,9.29,9.29,0,0,0-4-9.11c-.65-.51-2-1.53-7.46-4-1.87-.84-2.8-1.26-3.72-1.57a29.85,29.85,0,0,0-6.22-1.41c-8.81-1.1-10.85,1.31-17.18,0a8.92,8.92,0,0,0-4.43-.08C387.68,239.8,387.46,240.59,385.11,241.89Z" transform="translate(-84.32 -66.7)"/><g class="cls-45"><path class="cls-43" d="M382.79,255s.62,6.76.62,11.37c0,1.82-1.72.1-1.87.9-.54,2.82-1.18,4.57-2.4,5.79C383.08,275.44,388.84,266.25,382.79,255Z" transform="translate(-84.32 -66.7)"/><path class="cls-43" d="M416.06,265.57s4.16-9.6,4.66-11.09-8.12,9.78-8.12,9.78Z" transform="translate(-84.32 -66.7)"/></g><path class="cls-6" d="M400.51,226.82q-1.08,7-2.15,13.91h12.42q-1-7.12-2-14.24Z" transform="translate(-84.32 -66.7)"/><g class="cls-46"><path class="cls-47" d="M396.33,231.46l17.27,1.28s-2,6.34-8.64,6.34-8.63-7-8.63-7" transform="translate(-84.32 -66.7)"/></g><path class="cls-6" d="M389.5,239.33a14.39,14.39,0,0,0,27.83,1.49,41.82,41.82,0,0,0-27.83-1.49Z" transform="translate(-84.32 -66.7)"/><path class="cls-43" d="M396.2,222.93c-.2-3.65-.41-7.29-.62-10.94a11.2,11.2,0,0,1,20.38.38l-.75,11.3Z" transform="translate(-84.32 -66.7)"/><polygon class="cls-47" points="310.11 171.49 309.94 176.26 314.04 179.55 315.59 183.67 319.09 195.27 316.2 178.17 312.19 174.99 310.55 169.41 310.11 171.49"/><path class="cls-6" d="M369.8,266.29c-.5,3.4.7,12.06.89,18.34a6.59,6.59,0,0,0,5.47,7.13c4,1.06,15.77,2.13,31.64,2.65l11.1-5.3c3.54-3.74,5.33-7.83,4-9.84-1.66-2.59-8.2-1.43-12.31,1.06a16,16,0,0,0-6.13,6.95c-3.72-.76-7.72-1.73-11.93-3-3.68-1.09-7.11-2.27-10.27-3.48a38.86,38.86,0,0,0,.48-7.44,29.17,29.17,0,0,0-.73-6.33C377.93,265.89,372.23,265.6,369.8,266.29Z" transform="translate(-84.32 -66.7)"/><g class="cls-48"><rect class="cls-47" x="283.68" y="196.48" width="16.28" height="5.72"/><path class="cls-47" d="M406.16,281.88s4,4.25,8.41,3.75,10.75-7.25,10.75-7.25l-6.75-1.25Z" transform="translate(-84.32 -66.7)"/></g><path class="cls-6" d="M413.72,214.1l.33,7a2,2,0,0,1,1.58.2c.87.61.71,2,.62,2.78a2.48,2.48,0,0,1-.71,1.78,2.12,2.12,0,0,1-1.36.45,13.9,13.9,0,0,1-2.69,6.54c-1.13,1.48-3.35,4.37-6.34,4.23-2.72-.13-4.53-2.72-5.84-4.6a15.78,15.78,0,0,1-2.61-6.58,1.41,1.41,0,0,1-1.12-.25c-.21-.19-.34-.49-.25-2.11.12-2.09.37-2.4.53-2.56a2.12,2.12,0,0,1,1.34-.55c.41-2.53.83-5.05,1.24-7.58a11.09,11.09,0,0,1,6.62-2.56A11.58,11.58,0,0,1,413.72,214.1Z" transform="translate(-84.32 -66.7)"/><path class="cls-47" d="M401.35,245.44c.4,2.84.84,3.38,1.22,5.91,2.15-1.07,4.66-.46,7.09-1.83-1.45-3.28-1.72-3.77-2.13-5,.25-2.17.54-3.91.77-5.11s.39-1.86.58-3.07a38.17,38.17,0,0,0,.44-4.1l-1.49.31-1.68,2.55c-.8-1-1.71-2-2.73-3s-2-1.88-2.9-2.65l-1.76,1.75c.21,1.78,3.11,4.1,3.31,5.88C403.9,238.89,399.52,243.65,401.35,245.44Z" transform="translate(-84.32 -66.7)"/><path class="cls-6" d="M418.07,266.74c1.63,1.06,2.89,1.28,5.3,2.82a24.72,24.72,0,0,1,2.9,2.15c-1,5.78-4.65,10.37-9.45,11.73a12.07,12.07,0,0,1-6.68-.13,7.15,7.15,0,0,1-1.77-1,9,9,0,0,1-3.05-5.31c-.83-3.44-2.83-14.48-5-29.57l-5.47-5.38c-.21-1.78-.41-3.56-.62-5.34l5.26-5.26c.93.77,1.9,1.65,2.9,2.65s1.93,2,2.73,3l1.68-2.55,1.49-.31a38.17,38.17,0,0,1-.44,4.1c-.19,1.21-.35,1.86-.58,3.07s-.52,2.94-.77,5.11c.76,2.28,3.45,10.11,7.4,15.76A14.53,14.53,0,0,0,418.07,266.74Z" transform="translate(-84.32 -66.7)"/><path class="cls-49" d="M485.47,382c.17,0,.34,0,.51.06l-.55.22,0-.27A.11.11,0,0,1,485.47,382Z" transform="translate(-84.32 -66.7)"/><path class="cls-49" d="M477.9,438.34a1.16,1.16,0,0,1,.19-.24,5.61,5.61,0,0,1,.62-.47,40.36,40.36,0,0,0,3.62-3.39c.13-.13.39-.24.61-.45a1.46,1.46,0,0,0,.35-.66c.06-.24.1-.49.14-.68a13.75,13.75,0,0,0-.1-3.85c-.24-2.17-1-8.09-1-8.88,0-.15,0-.4,0-.65a3.25,3.25,0,0,0-.06-.77l-.05-.15a5.39,5.39,0,0,0,1.05,0,21.79,21.79,0,0,0,5.6-.92,14.85,14.85,0,0,0,2.4-.84c.23-.12.6-.27.66-.55a1.79,1.79,0,0,0-.27-1,5.11,5.11,0,0,0,.46.28c.4.2.81.37,1.09.52a5.75,5.75,0,0,1,1.18.78,4.73,4.73,0,0,1,1.09,1.61,7.23,7.23,0,0,1,.43,1.29c.54,2.2.15,4.48.4,6.91.2,1.93.51,3.85.86,5.76.09.49.3,1.52.3,1.52.05.19.19.62.27,1a1.57,1.57,0,0,1,.05.25h0l-.06,0-.46.13L497,435h0l0-.05c0-.12-.05-.27-.08-.41s0-.25-.05-.34c-.54-2.2-1.65-6.6-1.65-6.6,0-.15-.1-.65-.2-1.09a4.27,4.27,0,0,0-.18-.54.91.91,0,0,0-.36-.42.59.59,0,0,0-.41-.06,2.66,2.66,0,0,0-1.12.77,8.09,8.09,0,0,0-.81,1,5.91,5.91,0,0,0-.89,1.86,36.23,36.23,0,0,0-.79,5.28,3.33,3.33,0,0,1-.62,1.79,4.91,4.91,0,0,1-2.25,1.06q-.88.27-1.8.48c-1.35.33-2.73.61-4.1.93h0c-.28.07-.7.2-1.18.32a6.44,6.44,0,0,1-1.22.19,1.67,1.67,0,0,1-1-.17.66.66,0,0,1-.32-.37v0A.35.35,0,0,1,477.9,438.34Z" transform="translate(-84.32 -66.7)"/><path class="cls-49" d="M480.7,414.61c-.36-3.91-.55-7.72-1.81-11.48-1.43-4.23-2.8-8.44-3.93-12.77-.57-2.16-1.11-4.33-1.64-6.51a45.34,45.34,0,0,1-1.21-5.76,6.85,6.85,0,0,1,1.23-5.12c1.79-2.24,4.9-3,7.5-3.66,1-.25,2-.48,2.94-.71l0,.28h0a.29.29,0,0,0,.2-.19.29.29,0,0,0,0-.24l.18,0c10.53-3.42,21-7,31.48-10.63a2.75,2.75,0,0,0,1.9-2.15,62.39,62.39,0,0,1,13.19,6.42c0,.31,0,.62,0,.93a7,7,0,0,1-.09.82,3.4,3.4,0,0,0,0,.64l.2-.08c.69,2.09,1.3,5.23,0,7.19-1.42,2.15-4.45,2.94-6.72,3.64-4.09,1.28-8.3,2.2-12.48,3.11-4.39.95-8.79,1.86-13.2,2.68q-3,.57-6.14.95a34.45,34.45,0,0,1-5.92.4c-2.68-.13.26-1.52,2.37,11.12a127.64,127.64,0,0,1,1.05,12.8,30.76,30.76,0,0,0,.72,5.65,19.75,19.75,0,0,0,.78,2.36c.06.14.17.35.29.58a1.79,1.79,0,0,1,.27,1c-.06.28-.43.43-.66.55a14.85,14.85,0,0,1-2.4.84,21.79,21.79,0,0,1-5.6.92,5.39,5.39,0,0,1-1.05,0,1.3,1.3,0,0,1-.84-.39C480.71,417,480.78,415.47,480.7,414.61Z" transform="translate(-84.32 -66.7)"/><rect class="cls-50" x="486.55" y="374.87" width="44.3" height="8.46" rx="2.03" transform="translate(933.08 691.5) rotate(180)"/><path class="cls-50" d="M541.47,348.07c0-7.21-.19-14.31.09-21.48a77.82,77.82,0,0,0-.55-14.23c-.3-2.07-1.69-11.52-5.79-9.73-.79.34-1.15,1.46-1.28,2l.54,43.45a3.17,3.17,0,0,0,2.83,3.42h1.33A3.17,3.17,0,0,0,541.47,348.07Z" transform="translate(-84.32 -66.7)"/><path class="cls-51" d="M541.65,323.69v45.46A13.79,13.79,0,0,1,527.84,383h-34" transform="translate(-84.32 -66.7)"/><rect class="cls-52" x="509.77" y="383.33" width="3.45" height="49.38" transform="translate(938.66 749.34) rotate(180)"/><rect class="cls-52" x="507.01" y="405.9" width="8.96" height="16.89" transform="translate(938.66 761.97) rotate(180)"/><path class="cls-52" d="M481.33,434.36a54.41,54.41,0,0,1,60.32,0v-2.79a56.12,56.12,0,0,0-60.32,0Z" transform="translate(-84.32 -66.7)"/><path class="cls-52" d="M537.79,434.36a3.86,3.86,0,1,1,3.86,3.86A3.85,3.85,0,0,1,537.79,434.36Z" transform="translate(-84.32 -66.7)"/><path class="cls-52" d="M477.47,434.36a3.86,3.86,0,1,1,3.86,3.86A3.85,3.85,0,0,1,477.47,434.36Z" transform="translate(-84.32 -66.7)"/><path class="cls-52" d="M507.85,434.36a3.64,3.64,0,1,1,3.64,3.65A3.64,3.64,0,0,1,507.85,434.36Z" transform="translate(-84.32 -66.7)"/><path class="cls-49" d="M498.39,438.65Z" transform="translate(-84.32 -66.7)"/><path class="cls-1" d="M450.61,436.2a.94.94,0,0,1,.28-.22,5.81,5.81,0,0,1,.86-.36,49,49,0,0,0,5.16-2.82c.19-.12.52-.17.83-.34a1.6,1.6,0,0,0,.59-.65,8.12,8.12,0,0,0,.36-.73,15.2,15.2,0,0,0,1-4.34c.34-2.52,1.16-9.37,1.3-10.27,0-.18.11-.45.18-.74a3.84,3.84,0,0,0,.14-.88v-.18a8.42,8.42,0,0,0,1.2.33,27.38,27.38,0,0,0,6.76.49,18,18,0,0,0,3-.29c.3-.07.77-.14.92-.44a2,2,0,0,0,0-1.23,3.84,3.84,0,0,0,.46.44c.4.34.83.64,1.11.88a6.87,6.87,0,0,1,1.15,1.21,5.31,5.31,0,0,1,.81,2.11,8.38,8.38,0,0,1,.14,1.56c0,2.62-1.1,5.08-1.5,7.88-.31,2.22-.49,4.47-.62,6.7,0,.59-.09,1.8-.09,1.8,0,.23.05.75.05,1.17,0,.1,0,.2,0,.28v0h-.08a5.15,5.15,0,0,1-.57,0h-.36v-.06c0-.14,0-.32,0-.48s0-.3,0-.4c0-2.62-.05-7.87-.05-7.87,0-.18.07-.75.07-1.28a3.43,3.43,0,0,0-.05-.65,1.05,1.05,0,0,0-.3-.58.64.64,0,0,0-.46-.17,3.15,3.15,0,0,0-1.51.56,10,10,0,0,0-1.23.88,7.41,7.41,0,0,0-1.55,1.85,41.49,41.49,0,0,0-2.42,5.72A3.82,3.82,0,0,1,465,437a6.14,6.14,0,0,1-2.92.58c-.74,0-1.48.05-2.22.05-1.67,0-3.35-.07-5-.09h-.06c-.34,0-.86,0-1.45,0a8.85,8.85,0,0,1-1.47-.11,2.27,2.27,0,0,1-1.06-.45.84.84,0,0,1-.26-.52v0A.29.29,0,0,1,450.61,436.2Z" transform="translate(-84.32 -66.7)"/><path class="cls-8" d="M460.57,410.29c.68-4.5,1.54-8.83,1.13-13.4-.45-5.15-.86-10.25-.95-15.42,0-2.59-.05-5.18-.05-7.77a50,50,0,0,1,.22-6.81,7.82,7.82,0,0,1,2.88-5.42c2.7-2,6.52-2,9.73-2.05,1.2,0,2.41,0,3.61,0l0,.33h0a.32.32,0,0,0,.31-.43h.22c13.19-1,26.36-2.14,39.54-3.33a3.23,3.23,0,0,0,2.81-1.9,74.47,74.47,0,0,1,13.49,10.82c-.08.35-.16.7-.26,1s-.21.58-.33.9a4.44,4.44,0,0,0-.21.71l.25,0c.22,2.54,0,6.23-2,8.08-2.25,2-6,2.08-8.82,2.26-5.11.32-10.25.19-15.37.07-5.35-.13-10.71-.32-16.06-.6-2.47-.13-4.94-.32-7.4-.61a43.09,43.09,0,0,1-7-1.16c-.38-.11-1.11-.39-1.11-.39a55.72,55.72,0,0,1,.71,13.53c-.37,4.94-1.52,9.8-2.4,14.67a34.34,34.34,0,0,0-.76,6.54,23,23,0,0,0,.24,2.87c0,.18.1.45.17.73a2,2,0,0,1,0,1.23c-.15.3-.62.37-.92.44a18,18,0,0,1-3,.29,27.38,27.38,0,0,1-6.76-.49,8.42,8.42,0,0,1-1.2-.33,1.57,1.57,0,0,1-.87-.67C459.89,413,460.41,411.28,460.57,410.29Z" transform="translate(-84.32 -66.7)"/><g class="cls-53"><path class="cls-7" d="M469.85,371.2l8.18,6v4.44S470.49,375.73,469.85,371.2Z" transform="translate(-84.32 -66.7)"/></g><path class="cls-1" d="M520.16,304.29A96,96,0,0,0,510,310.6v0a.36.36,0,0,0,0-.27.4.4,0,0,0-.22-.16.38.38,0,0,1,0-.18,2.88,2.88,0,0,1,.1-.61c.31-1.54.72-3.11,1.1-4.66a5.83,5.83,0,0,1,.83-2,4.22,4.22,0,0,1,.58-.62c.12-.11.25-.19.4-.31a.82.82,0,0,0,.3-.62V301h0a3.06,3.06,0,0,0-.8-1.58,2.33,2.33,0,0,0-1.69-.84c-.43,0-.4.23-1.14.46a2.44,2.44,0,0,1-1.71.11,1.93,1.93,0,0,1-.78-.71,4.37,4.37,0,0,1-.28-.42,4.08,4.08,0,0,1-.4-1.27,34.43,34.43,0,0,0-2.44-5.82,1.51,1.51,0,0,0-.92-.54,2.89,2.89,0,0,1-.77-.19.46.46,0,0,1-.25-.22.77.77,0,0,1-.08-.36,1.7,1.7,0,0,1,.16-.69c.28-.62.92-1.14,1.28-2a7.11,7.11,0,0,0,.24-2.22c.08-1.33.44-2.71.59-4.12a27.91,27.91,0,0,1,.78-4.58,16.8,16.8,0,0,1,.57-1.69l0-.15a6.3,6.3,0,0,1-.06-.8c0-.45,0-.82.25-1,4.92-3.46,29.86-5.67,19.69,19.57a6.49,6.49,0,0,0-.24,1.18,1.62,1.62,0,0,1-.33.84l-.06.06a.36.36,0,0,0-.3,0,.32.32,0,0,0-.14.27,11.6,11.6,0,0,0,.09,1.44c0,.07,0,.23,0,.39a1.12,1.12,0,0,0,.14.54.66.66,0,0,0,.2.21.4.4,0,0,0,.28.08h.26a.92.92,0,0,1,.68.27,3.42,3.42,0,0,1,.68,1.42,7.32,7.32,0,0,1,.22,1.73c0,.1,0,.19,0,.28s-.06.3-.08.52a1.93,1.93,0,0,0,0,.23.49.49,0,0,0,0,.12,13.2,13.2,0,0,0-3,1.17A35.5,35.5,0,0,0,520.16,304.29Z" transform="translate(-84.32 -66.7)"/><g class="cls-54"><path class="cls-6" d="M510.19,298.78s4.35-2.48,5.89-5l1.54-2.49-5.34,9.26Z" transform="translate(-84.32 -66.7)"/></g><path class="cls-1" d="M521.42,320a1.43,1.43,0,0,1,.21.32,2.18,2.18,0,0,1-.25-.28Z" transform="translate(-84.32 -66.7)"/><path class="cls-9" d="M533.51,364.91a11.79,11.79,0,0,0,.31-2.12v-.2c0-1.48-.71-2.78-1.06-4.39-.63-3.06,1.42,4-.14-21.95v0c0-4.92,4.48-8.54-.32-22.45A63.77,63.77,0,0,0,529,305.9c-.63-1.24-1.31-2.46-2-3.65-.1-.16,0-.62-.07-.74s-.22.17-.23.07c-1,.25-2.67-.57-3.62-.07a38.56,38.56,0,0,0-3.89,1.3c-3.54,1.71-5.87,5.63-9.19,7.79-1.42,4.33-6.44,7.72-4.46,17.82a94.81,94.81,0,0,1,1.77,10.42c.08.94.15,1.9.15,2.87a14.45,14.45,0,0,1-.06,1.47,27.24,27.24,0,0,1-.66,2.95c-.15.73-.26,1.48-.35,2.24,0,.26-.37,3.3-.39,3.56,1.58.29,3.46-2.16,5-1.75C519.6,352.43,527.12,358.68,533.51,364.91ZM521.38,320l0,0a1.43,1.43,0,0,1,.21.32A2.18,2.18,0,0,1,521.38,320Z" transform="translate(-84.32 -66.7)"/><g class="cls-55"><path class="cls-38" d="M517.62,320.12s-5,13.76-5.72,20.75-.42,8.58-.42,8.58l7.84-3.6Z" transform="translate(-84.32 -66.7)"/></g><path class="cls-56" d="M475.17,438.08Z" transform="translate(-84.32 -66.7)"/><path class="cls-56" d="M513,301Z" transform="translate(-84.32 -66.7)"/><path class="cls-9" d="M526.91,301.51a50.83,50.83,0,0,1,5.2,10.75,38.59,38.59,0,0,1,2.78,11.9,22.44,22.44,0,0,1-.42,5c-.37,1.86-1.1,3.64-1.41,5.5a23.32,23.32,0,0,0,0,4.87c.09,2,.34,4,.51,6a60.08,60.08,0,0,1,.2,6.15,18,18,0,0,1-.56,4.68c-.62,2.08.88,3.86.91,6a13.92,13.92,0,0,1-.76,4.28c-1.44,4.49-4.89-2.29-15.83-2.3-7.75,0-6-5.93-9.79-5.71l11.11-10Z" transform="translate(-84.32 -66.7)"/><g class="cls-57"><path class="cls-38" d="M529.58,322.45s-.63,28.69-1.27,30.81-20.12,5.52-20.12,5.52l16.74-12Z" transform="translate(-84.32 -66.7)"/></g><path class="cls-43" d="M472.4,415.17a18.58,18.58,0,0,1-.78,2.43,42.62,42.62,0,0,1-3.79,6.23c-1.42,2.17-2.73,4.42-4.18,6.58a4.17,4.17,0,0,1-2.93,2.14,6.37,6.37,0,0,1-1.9,0c-.38-.07-.77-.32-1.14-.35a1.64,1.64,0,0,0-.9.32c-1,.56-2,1.26-3,1.83s-1.85.81-2.77,1.25c-.29.13-.7.3-.8.64-.14.5.38,1,.76,1.23,1.17.64,2.92.37,4.18.39a62,62,0,0,0,8.18-.07,3.41,3.41,0,0,0,2.37-1c1.1-1.33,1.47-3.33,2.09-4.88a10.67,10.67,0,0,1,2.18-3.69,7.25,7.25,0,0,1,2.64-1.64c.34-.12.5-.22.66.13a6.17,6.17,0,0,1,.05,2.19c0,1.26.05,7.62.05,8.07,0,.18-.09.65,0,.81s0,.09.31.15a3.41,3.41,0,0,0,1.15,0c.22-.16.11-1.44.12-1.8.05-1.26.12-2.52.23-3.77a41,41,0,0,1,1-7.25,17.26,17.26,0,0,0,1-5.6,7.41,7.41,0,0,0-.74-3.17,14.46,14.46,0,0,0-3.42-3.43Z" transform="translate(-84.32 -66.7)"/><path class="cls-38" d="M523.46,297a42,42,0,0,0-7.54,2.59,11.75,11.75,0,0,0-4.33,2.76c-1.08,1.32-1.19,3.27-1.57,4.85-.1.42-1.25,3.15-.27,3.33s2.11-1.31,2.6-1.76a29.12,29.12,0,0,1,6.38-4.88,14.34,14.34,0,0,1,5.68-1.81c.79,0,2.22.24,2.58-.73a5.51,5.51,0,0,0-.42-3.41,1.54,1.54,0,0,0-1.81-1.19C524.32,296.77,523.89,296.86,523.46,297Z" transform="translate(-84.32 -66.7)"/><path class="cls-43" d="M519.68,287.85a30.79,30.79,0,0,1,.91,4.48c.72,5.93-.93,7.61.42,10,1.8,3.19,5.64,1.82,7.41,5.18,1.29,2.46-.42,3.86.85,6.67s4.52,5.21,7.43,4.69c3.89-.69,6.47-6.57,5.38-10.61-1.21-4.45-6.27-4.5-7.41-9.53-.66-2.91.92-3.37.1-6.67-.95-3.82-3.31-4.15-4.12-7.92-.59-2.75.59-2.94.31-6.48-.13-1.67-.53-6.7-4.32-9.31a9.54,9.54,0,0,0-6.31-1.49,11,11,0,0,0-9.11-.95,10.51,10.51,0,0,0-5.87,6c-.52,1.23-1.27,3.66-.56,4.13.17.12.31,0,.62.07,1.14.15,1.61,1.77,2.39,2.95A8.26,8.26,0,0,0,511,281.6c2.63,1.26,5.54.29,6.74-.2Z" transform="translate(-84.32 -66.7)"/><path class="cls-1" d="M516.08,287.88a1.59,1.59,0,0,0,2,1.27c1.08-.24,1.78-1.44,2.23-2.35a7,7,0,0,0,.89-3.91c-.25-1.81-2-2.71-3.46-1.49Z" transform="translate(-84.32 -66.7)"/><path class="cls-6" d="M518.18,282.9c-.23.86.92.73.77,1.5s-1,.29-1.21.94,1.65,1.16,2.09-1S518.37,282.16,518.18,282.9Z" transform="translate(-84.32 -66.7)"/><path class="cls-9" d="M516.92,319.81c-.26,1-.59,2.48-.89,4.23a69,69,0,0,0-.84,9.74c-.09,3-.09,6.88.21,11.43-3,1.8-5.65,3.16-7.66,4.14a67,67,0,0,1-7.42,3.15,51,51,0,0,1-7.48,1.92c-.85.17-.89.7-.73,1.47.37,1.8,1.33,3.44,1.45,5.29.06.82,0,1.67,1,1.75,1.74.14,3.71-.82,5.32-1.34,2.79-.9,5.57-1.83,8.33-2.81s5.2-1.9,7.78-2.91,5.21-1.94,7.69-3.14c2.73-1.33,3.42-4.07,3.93-6.88.4-2.23.6-4.48.81-6.72q.54-5.91,1.1-11.81c.2-2.23.45-4.46.48-6.7a35.33,35.33,0,0,0-1-8.25Z" transform="translate(-84.32 -66.7)"/><path class="cls-1" d="M492,355.05c-8-.43-3.1-4.46-12.56,1.21-.36.22-4.57,3.72-.9,3.06,6.19-1.13,7.42.69,11.23,1.38a10.7,10.7,0,0,0,3.7-.09Z" transform="translate(-84.32 -66.7)"/><path class="cls-1" d="M597.5,419.67s.46,5.65.61,7,1.53,2.9,1.53,5.5-14.81,5-14.81,5H574.75l2.44-6.26s7.79-3.21,9-4.58,2.08-7.94,2.08-7.94Z" transform="translate(-84.32 -66.7)"/><g class="cls-58"><path class="cls-6" d="M585.26,422.19s7.21,1.71,9,1.63,7.79,0,7.79,0l-2.36-6.47-20.42-.82Z" transform="translate(-84.32 -66.7)"/></g><path class="cls-43" d="M599.88,428.6a2,2,0,0,0-3.14-1.11,42.51,42.51,0,0,1-4.32,3c-1.61.8-8.32.3-10.95.3s-4.28.16-4.28.16-7.82,2.9-9.54,3a1.85,1.85,0,0,0-1.14,3.25c1.25,1.1,32.63,1,32.63,1s2.63-1.83,2.06-4.24C600.9,432.71,600.34,430.45,599.88,428.6Z" transform="translate(-84.32 -66.7)"/><path class="cls-3" d="M600.4,313.56s4.12,9.16,3.66,12.67-3.35,9.16-3.66,15.72-3.21,17.72-3.21,19.7.46,12.06.46,12.06,4.35,5.65,5,16.41,1.41,30.69,1.41,30.69a39.21,39.21,0,0,1-6.91,1.38c-2.06,0-10.07-2.29-10.07-2.29s.68-19.47,0-22.45-2.75-9.84-3-11.91-3.21-3.89-3.21-6.18-2.29-18.55-3.43-19.47-4.78-19.69-4.57-21.52.72,1.14-.1-4.35,0-8.25,0-8.25l.25-2.64s7.62-11.79,10.53-12S600.4,313.56,600.4,313.56Z" transform="translate(-84.32 -66.7)"/><g class="cls-59"><path class="cls-60" d="M575.16,325.36s5.57,9.28,13.72,10.05" transform="translate(-84.32 -66.7)"/><path class="cls-60" d="M589.56,322.4s-1.71,29.37-1.28,35.76,6.63,28.69,6.94,30.71,4.42,34.95,4.42,34.95" transform="translate(-84.32 -66.7)"/><polyline class="cls-60" points="521.2 252.29 515.7 253.92 501.6 255.7 482.15 261.05"/></g><path class="cls-39" d="M592.17,248.36s-14.82,8.86-16.81,13.13-3.21,12.83-2.14,15.27.31,18,.31,18l-.46,29.16s11-4,17.56-5.19,12.52-2.45,12.52-2.45-4.12-11-4.43-19.84,2.14-25,.61-31.76S592.17,248.36,592.17,248.36Z" transform="translate(-84.32 -66.7)"/><path class="cls-43" d="M588,245.2c10.46-11.47-.26-23.19-4.8-28.46-3.26-3.79-18.77,4.1-19.39,4.82-1,1.15-1.35,3.43,0,4.16s2.81.94,4.15,1.65c1.72,1.4,3.51,2.75,5.28,4.1-.36,1.28,1.9,2.85,2.77,5.09s4.76,1.19,4.75-2.43C580.75,233.05,586.83,245.69,588,245.2Z" transform="translate(-84.32 -66.7)"/><path class="cls-1" d="M565.68,226.38a26.64,26.64,0,0,0-1,4.88c-.09,1.53.55,1.53,1,3s-1.44,3.62-1.32,5a1,1,0,0,0,.18.45c.6.94,2.37.73,2.77.67,1.14,2.51,2.29,5,3.41,7.51a2.75,2.75,0,0,0,1.18,1.38c1.72.93,4.11-.79,4.88-1.35a10.63,10.63,0,0,0,3.88-5.74,11.63,11.63,0,0,0-.39-7.25l-3.17,1.34A29.18,29.18,0,0,0,575,231.6a2.23,2.23,0,0,0-.82-.89c-.84-.45-1.71.09-2.32-1-.8-1.41-1.45-3.93-3-3.87S567,226.33,565.68,226.38Z" transform="translate(-84.32 -66.7)"/><path class="cls-1" d="M593.66,250.08c-.91-1-1.75-2-2.55-3a7.23,7.23,0,0,1-1.42-2.23,6.21,6.21,0,0,1-.36-1.86,4.79,4.79,0,0,1-.89-1,5.17,5.17,0,0,1-.77-2c-.19-.86-.88-2-3.13-3.47.05-.36.47-3.81-1.61-5.59a4.94,4.94,0,0,0-1.87-.93c-3.36-.86-4.45,2.66-2,5a6.86,6.86,0,0,1,.84,8.8c-.92,1.44-1.43,2.54-1.84,3a8.61,8.61,0,0,1-.81.81c-.49.42-1.61.81-4.43,2,2.16-.88,4.79,1.34,5.87,3.69s-.08,4.46.78,5.21S583.88,258.15,593.66,250.08Z" transform="translate(-84.32 -66.7)"/><g class="cls-61"><polygon class="cls-6" points="488.97 182.08 496.77 173.35 492.87 185.91 487.17 182.54 488.97 182.08"/></g><path class="cls-40" d="M584.22,265.38l11,24.08c-2.42.34-12.05-13.68-11-16.43C585.15,270.62,584.22,265.38,584.22,265.38Z" transform="translate(-84.32 -66.7)"/><path class="cls-1" d="M601.32,269.66,608,291.19s2.06,3.32,1.37,4.92-6.41,8.59-6.41,8.59-14.12,15-15.35,15.88-1.22,5.65-1.45,6.64-3.81,3.74-4.88,4.12-5.5-5-5.57-5.72.61-2.67.38-3.28-2.67.53-3.06-.62,1.07-2.9,2-2.9,5.8.31,6.56-.3,15.42-24.13,15-26-2.75-3-3.67-5-6-16.49-6-16.49Z" transform="translate(-84.32 -66.7)"/><g class="cls-62"><path class="cls-6" d="M589.59,278.7s5.08-4.06,6.59-4.53,7,1.43,7,1.43l-1.62-5s-5.46-1.16-7.44,0a58.22,58.22,0,0,0-6.1,4.93Z" transform="translate(-84.32 -66.7)"/></g><path class="cls-39" d="M592.16,247.9s7.93,6.72,9.46,11.91,1.53,14.05,1.53,14.05-3.44-2.6-5-2.14a33.94,33.94,0,0,0-7.33,3.78,6.94,6.94,0,0,1-1.83,1.26l-7.1-9.27s-5-6.46-4.2-7.83S581.16,252.79,592.16,247.9Z" transform="translate(-84.32 -66.7)"/><g class="cls-63"><path class="cls-2" d="M582.35,234.08c-.06-.1.28-.29.3-.62a1.51,1.51,0,0,0-.86-1.18,1.47,1.47,0,0,0-1.49.1c-.34.31-.7.53-.75.42s.07-.31.37-.79a1.82,1.82,0,0,1,2.19-.41,1.75,1.75,0,0,1,1,2,.84.84,0,0,1-.54.52Q582.38,234.15,582.35,234.08Z" transform="translate(-84.32 -66.7)"/></g><path class="cls-43" d="M213.57,433.39c-.11-1.37-1.18-2.39-1.9-3.44a19.83,19.83,0,0,1-3.12-6.36,26.74,26.74,0,0,1-.86-5.64c0-1.14.12-2.27.08-3.4a2.45,2.45,0,0,0-.17-1c-.15-.26-.61-.24-.71-.38l0,0c.92-1,1.77-2.08,2.65-3.12.41.18.74.36,1.16.53a7.38,7.38,0,0,0,3,.76c1.91-.1,3.28-2.24,4.31-3.42a87.29,87.29,0,0,0,13.77-20.57c1.86-4,2.6-7.81,3.62-12,.46-1.91,1-3.64,1.55-5.49a12.81,12.81,0,0,0,.53-2.92,9.87,9.87,0,0,0-.77-3.62c-13.78-10-27.57-17-44.38-21.15-7,.38-18.73,2.51-23.7,5.95s-4.5,6.33-5.35,10.15-.05,5.69.86,8.81a11.91,11.91,0,0,0,3.78,5.85c1.49,1.25,3.39,1.39,5.22,1.46a47.47,47.47,0,0,0,10.42-1.22,212.72,212.72,0,0,1,22.19-3.38c1.77-.14,3.41.07,5.07,0s3.07-.37,4.66-.51a6.32,6.32,0,0,1,3.46.26,1.54,1.54,0,0,1,.84.87,1.57,1.57,0,0,1,0,.73,7.69,7.69,0,0,1-.78,2.15c-.67,1.57-1.15,3-1.94,4.58a45.73,45.73,0,0,1-5.47,8.65,63.11,63.11,0,0,1-7.11,7.86c-2.39,2.12-5.2,4.39-7.13,7-.49.67,0,1.42-.33,2.12h0l-1.89,1.91c-.06-.09-.09-.19-.16-.28a1.46,1.46,0,0,0-1.65-.69,16.07,16.07,0,0,0-4.8,2c-1.58.9-3.52,1.83-4.63,3.36a1.82,1.82,0,0,0-.28,2,11.55,11.55,0,0,0,2.58,3.09c2.35,2.39,4.66,4.64,7,7,3.57,3.66,7,7.41,11,10.77a22.13,22.13,0,0,0,4.91,3.33,3.74,3.74,0,0,0,2.56.47A2.82,2.82,0,0,0,213.57,433.39Z" transform="translate(-84.32 -66.7)"/><path class="cls-6" d="M169.86,318.3a25.4,25.4,0,0,0,2.75,6.9,9.07,9.07,0,0,0,2.26,2.81,18.76,18.76,0,0,0,5.61,2.65c2.86,1,5.78,1.8,8.67,2.67,4.65,1.4,7,1.91,7.7,2a39.63,39.63,0,0,0,12.75.31,12.36,12.36,0,0,0,3.27,2.9,12.1,12.1,0,0,0,4.3,1.59,15.36,15.36,0,0,0,3.38.1,21,21,0,0,1,2.86-.15c1.46.12,2.79.82,4.22,1.05s2.77-.31,2.84-1.82c0-.28-.06-.55-.93-1.71-.69-.91-1.29-1.62-1.73-2.12-1.91-.43-3.42-.83-4.37-1.1-5.22-1.46-8.22-2.4-13.42-3.53h0l-1.46-.29c-6.15-1.37-8.19-3.55-15.76-7.46-5.08-2.62-7.34-3.28-9.91-6.29a19.4,19.4,0,0,1-1.93-2.74Z" transform="translate(-84.32 -66.7)"/><path class="cls-43" d="M170.57,292.58c-.79-.07-.58-.25-3-1-2.2-.68-3.3-1-3.71-1.44a3.63,3.63,0,0,1-1.07-2,5.36,5.36,0,0,1-4.25-1.72,5.28,5.28,0,0,1-.09-6.32,9.25,9.25,0,0,1-.68-6.53,9.43,9.43,0,0,1,4.74-5.75,7.08,7.08,0,0,1,2.22-6.1,6.73,6.73,0,0,1,7.2-.92,6.45,6.45,0,0,1,6.46-3.14,6.65,6.65,0,0,1,4.62,3.51,8,8,0,0,1,4.55,3.71c1.67,3.22.65,7.7-2.75,10.77a46.52,46.52,0,0,1-2.68,5.5,39.94,39.94,0,0,1-4.36,6.26C175.16,290.39,173.06,292.79,170.57,292.58Z" transform="translate(-84.32 -66.7)"/><path class="cls-1" d="M236.87,421.9c-.29-1.31-.54-2.63-.77-3.95l-9.6-1.76-4.11,5.15.94,7.32,15.4-.21Z" transform="translate(-84.32 -66.7)"/><path class="cls-36" d="M155.46,359.21a14.32,14.32,0,0,0,.66,8.39,14.54,14.54,0,0,0,3.81,5.94,11.35,11.35,0,0,0,5.44,1.95,64,64,0,0,0,10.8.65c7.88-.06,15.68-.64,23.56-.18a40.28,40.28,0,0,0,5.6.11c1.76-.14,3.49-.49,5.24-.68a15.76,15.76,0,0,1,4.06-.05,1.42,1.42,0,0,1,1.2.67,2.5,2.5,0,0,1,.14.77c.09.94.15,1.88.23,2.82.19,2.06.39,4.11.61,6.17.41,4,1,7.92,1.52,11.87s1.12,7.69,1.43,11.57c.27,3.36.15,7,1.11,10.3.26.9.67,1.83,1.73,1.84a17.7,17.7,0,0,0,3.68-.86c2-.47,4-.93,6.05-1.45a45.68,45.68,0,0,0,5-1.51,7.51,7.51,0,0,0,2.52-1.36c1.24-1.19.51-3.62.32-5.07-1-7.91-2.06-15.81-3.38-23.68-.69-4.18-1.47-8.34-2-12.54-.24-1.91-.33-3.81-.47-5.73a9.69,9.69,0,0,0-.56-2.92,14.61,14.61,0,0,0-2-3.42l-46.55-16.72s-19.19,0-24.07,3.58A15.12,15.12,0,0,0,155.46,359.21Z" transform="translate(-84.32 -66.7)"/><path class="cls-43" d="M222.43,424a1.26,1.26,0,0,0-1.62.66,13.76,13.76,0,0,0-1.39,5,20.17,20.17,0,0,0-.32,5.9,2,2,0,0,0,1.12,1.72,11,11,0,0,0,4.08.37l10,.05c5.07,0,10.23.29,15.28-.15a20.41,20.41,0,0,0,5.74-1.16,4.23,4.23,0,0,0,2.14-1.55,3.32,3.32,0,0,0-.61-3.86c-1-.91-2.46-1-3.68-1.15a27.89,27.89,0,0,1-6.91-2.11,20.93,20.93,0,0,1-5.06-3.07c-.89-.76-1.68-1.63-2.59-2.37a3,3,0,0,0-.93-.6c-1-.27-1.35,1.19-1.72,1.81a4.53,4.53,0,0,1-1.79,1.71c-2.79,1.52-5.65,1-8.5,0C224.6,424.77,223.53,424.33,222.43,424Z" transform="translate(-84.32 -66.7)"/><path class="cls-4" d="M164.33,294.05a18.53,18.53,0,0,0-2,3.94c-.69,1.68-1.32,3.39-1.9,5.11a81.5,81.5,0,0,0-2.87,10.64c-1.51,7.74-1.81,15.63-2.29,23.49-.23,3.7-.5,7.39-.75,11.09a17.52,17.52,0,0,0,1.13,8.36c.39.85,1.12,2.22,2.26,1.84a4.17,4.17,0,0,0,1.46-1.15,22.17,22.17,0,0,1,3-3c2.65-1.91,6.12-2.73,9.23-3.57,3.6-1,7.29-1.5,10.91-2.38a19.64,19.64,0,0,0,2.26-.69c.64-6,1.25-12,2-17.93a44.34,44.34,0,0,0-1.17-18.36,34.89,34.89,0,0,0-3.91-8.67c-1.78-2.8-4.26-5.31-6.31-7.95l-9.81-2.12Z" transform="translate(-84.32 -66.7)"/><g class="cls-64"><path class="cls-40" d="M163.48,311c0,3.64.11,3.64.28,7.27.18,3.91.07,7.92,1.16,11.72,1,3.51,3.37,7.62,7.49,7.65,1,0,4.91-.39,5.11-1.45.06-.32-.54-1.24-.67-1.55-.79-1.85-5.57-13-7.16-16.67a4.87,4.87,0,0,0-.3-.71Z" transform="translate(-84.32 -66.7)"/></g><path class="cls-1" d="M173.71,335.27a25.37,25.37,0,0,0,2.1,7.12,9.11,9.11,0,0,0,2,3,18.74,18.74,0,0,0,5.33,3.16c6.51,2.91,4.2,2.06,8.39,3.46a201.06,201.06,0,0,0,20.9,5.38c3,3.16,5.43,3.83,6.37,4a20.28,20.28,0,0,0,3.35.42A19.49,19.49,0,0,1,225,362c1.44.25,2.7,1.07,4.11,1.43,1.26.33,2.78-.06,3-1.55a2.19,2.19,0,0,0-.77-1.79,15.69,15.69,0,0,0-5.24-3.49c-3.4-1.14-7.22-2.35-11.5-3.57a133.67,133.67,0,0,0-17.84-10.35c-2.24-1-6.81-2.9-9.94-7.6a23.18,23.18,0,0,1-1.67-2.9Z" transform="translate(-84.32 -66.7)"/><g class="cls-65"><path class="cls-6" d="M172.26,338.4s5.69-2.77,7.64-2.88,9.17-.76,9.17-.76l-3.74-5.09L172.58,334Z" transform="translate(-84.32 -66.7)"/></g><path class="cls-1" d="M178.46,296a7.43,7.43,0,0,1,1.93-2.73,9.9,9.9,0,0,1,3.85-1.66c.89-.27,1.72-.54,1.78-1.57,0-.1,1.2-6.88,1.28-7,.34-.41,1.13-.34,1.58-.5,2.57-.92-.8-4.59-1.42-5.55s-.12-1.37-.14-2.31a4.63,4.63,0,0,0-.52-1.6,5.69,5.69,0,0,1-.29-1.88c0-.43-.08-.86-.14-1.29-.73.39-.49-.09-1.29-.08s-1.15.85-1.41,1.6a7.69,7.69,0,0,1-1.84,3.28,5.15,5.15,0,0,0-1.88,2.74c-.08.41.27,4.8-1.34,3.72-.8-.54-.73-2.39-.87-3.15a4.18,4.18,0,0,0-1.5-2.33c-1-.94-1.15-2.74-3-2.26-2.37.63-1.23,3.46-.83,5a5.93,5.93,0,0,0,1.37,2.89,1.72,1.72,0,0,0,1.95.11l-.12.2c-.45.86.08,1.68.1,2.42,0,1.23-1.33,2.2-2,2.65a6,6,0,0,1-4.06,1,5.41,5.41,0,0,1-4.25,2.25Z" transform="translate(-84.32 -66.7)"/><g class="cls-66"><path class="cls-6" d="M185.16,291.36c.38.54-6.16.42-9.13-3.49,1,2.93,6.5,7.75,6.5,7.75Z" transform="translate(-84.32 -66.7)"/></g><path class="cls-40" d="M162.26,294.71c-.95-.26.82-2.74,1.05-3a4,4,0,0,1,2.89-1.82,9,9,0,0,1,4.57.92,39.44,39.44,0,0,1,7,4.69,18.75,18.75,0,0,1,4.76,4.64,5.1,5.1,0,0,1,.62,1.44,6.91,6.91,0,0,1,.19,1.09,4.63,4.63,0,0,1,.15,1.56c-.12.49-.37.15-.64-.14-.94-1-1.69-2.22-2.54-3.31a19.54,19.54,0,0,0-5.78-4.92,12.73,12.73,0,0,0-5.4-1.84c-2.18-.16-4.19.63-6.33.76A1.62,1.62,0,0,1,162.26,294.71Z" transform="translate(-84.32 -66.7)"/><path class="cls-4" d="M163.44,310c1.67,6,3.08,12,4.8,18a17.36,17.36,0,0,0,2.51,5.88,5.28,5.28,0,0,0,2.23,1.51,5,5,0,0,0,1.07.42c1.15.24,2-.39,3.25-1,2.26-1,2.41-.32,4.88-1.42a10,10,0,0,1,2.67-1.13c.57-.1,1.08-.1,1.32-.46s-.12-1.3-.23-1.52c-.19-.38.35.13-1.27-7.74-1.22-5.91-2-12-4.1-17.66-.27-.72-.57-1.44-.87-2.15Z" transform="translate(-84.32 -66.7)"/><path class="cls-6" d="M175.29,278.34c-.2-1-1-.42-1.28-1.32s.68-.75.53-1.53-1.81-.59-1.17,2S175.47,279.23,175.29,278.34Z" transform="translate(-84.32 -66.7)"/><rect class="cls-50" x="73.98" y="308.17" width="44.3" height="8.46" rx="2.03"/><path class="cls-50" d="M147.69,348.07c0-7.21.18-14.31-.09-21.48a76.94,76.94,0,0,1,.55-14.23c.3-2.07,1.69-11.52,5.79-9.73.79.34,1.15,1.46,1.28,2q-.27,21.72-.55,43.45c0,1.88-1.26,3.42-2.82,3.42h-1.34C149,351.49,147.69,350,147.69,348.07Z" transform="translate(-84.32 -66.7)"/><path class="cls-51" d="M147.51,323.69v45.46A13.79,13.79,0,0,0,161.31,383h34" transform="translate(-84.32 -66.7)"/><rect class="cls-52" x="91.63" y="316.63" width="3.45" height="49.38"/><rect class="cls-52" x="88.87" y="339.19" width="8.96" height="16.89"/><path class="cls-52" d="M207.83,434.36a54.41,54.41,0,0,0-60.32,0v-2.79a56.12,56.12,0,0,1,60.32,0Z" transform="translate(-84.32 -66.7)"/><path class="cls-52" d="M151.36,434.36a3.86,3.86,0,1,0-3.85,3.86A3.85,3.85,0,0,0,151.36,434.36Z" transform="translate(-84.32 -66.7)"/><path class="cls-52" d="M211.69,434.36a3.86,3.86,0,1,0-3.86,3.86A3.85,3.85,0,0,0,211.69,434.36Z" transform="translate(-84.32 -66.7)"/><path class="cls-52" d="M181.31,434.36a3.64,3.64,0,1,0-3.64,3.65A3.64,3.64,0,0,0,181.31,434.36Z" transform="translate(-84.32 -66.7)"/><rect class="cls-50" x="286.2" y="368.64" width="44.3" height="8.46" rx="2.03" transform="translate(532.38 679.03) rotate(180)"/><path class="cls-67" d="M330.5,376.48H286.2" transform="translate(-84.32 -66.7)"/><rect class="cls-68" x="306.63" y="377.1" width="3.45" height="55.61" transform="translate(532.38 743.1) rotate(180)"/><rect class="cls-52" x="303.87" y="405.9" width="8.96" height="16.89" transform="translate(532.38 761.97) rotate(180)"/><path class="cls-52" d="M278.19,434.36a54.41,54.41,0,0,1,60.32,0v-2.79a56.12,56.12,0,0,0-60.32,0Z" transform="translate(-84.32 -66.7)"/><path class="cls-52" d="M334.66,434.36a3.86,3.86,0,1,1,3.85,3.86A3.85,3.85,0,0,1,334.66,434.36Z" transform="translate(-84.32 -66.7)"/><path class="cls-52" d="M274.33,434.36a3.86,3.86,0,1,1,3.86,3.86A3.85,3.85,0,0,1,274.33,434.36Z" transform="translate(-84.32 -66.7)"/><path class="cls-52" d="M304.71,434.36a3.64,3.64,0,1,1,3.64,3.65A3.64,3.64,0,0,1,304.71,434.36Z" transform="translate(-84.32 -66.7)"/><path class="cls-43" d="M333.08,417s-3.59,10.44-4.08,15,.65,6.85,2,6.85S346,437.77,346,437.77s2.28-3.64,2.28-4.29-2.77-7.34-2.77-9.45-2-7-2-7Z" transform="translate(-84.32 -66.7)"/><path class="cls-43" d="M273.57,417v8.32s-7.33,6.85-7.33,9.13,3,4.09,5.12,3.76,12.86.3,13.84-.68,1.25-12.86,1.25-12.86L284.82,417Z" transform="translate(-84.32 -66.7)"/><path class="cls-3" d="M290.69,343.65s-9.78,4.57-13.37,9.62-4.89,4.57-6.52,6.68-2,3.75-.81,6.36,1.79,47.93,1.79,47.93v6.2s3.79-1.14,5.58-1,6.65,1,8.44,1.3,1.14-5.54,1.14-5.54l1.47-4.73s1.3-30.81,2.28-33.42,9.13-7.17,9.13-7.17,0-1.3,8.8,0,17.29-2.94,19.24-.65,2.28,13.69,2.28,19.89.66,10.43,0,14,1.31,13,1.63,14.34a10.4,10.4,0,0,1,.22,2.83,9.33,9.33,0,0,1,5-1.2c3.26,0,8.8-.32,8.8-.32s-2.28-7.5,0-12.39,3.27-23.15,3.27-28.37,2.28-15.32,0-19.24-24.13-15.16-24.13-15.16Z" transform="translate(-84.32 -66.7)"/><g class="cls-69"><path class="cls-43" d="M299.82,369.9s-11.09,6.77-14.51,6.77,3.91.73,4.56,7.44C290.23,387.88,299.82,369.9,299.82,369.9Z" transform="translate(-84.32 -66.7)"/><path class="cls-43" d="M298,411.75s-11.08,2.57-14.51,2.57,3.91.28,4.56,2.83C288.36,418.58,298,411.75,298,411.75Z" transform="translate(-84.32 -66.7)"/><path class="cls-43" d="M326.44,368.64s6.46,3.87,9.88,3.87-6.52,2.3-6.52,6.09S326.44,368.64,326.44,368.64Z" transform="translate(-84.32 -66.7)"/><path class="cls-43" d="M326.44,406.4s6.46,3.86,9.88,3.86-6.52,2.3-6.52,6.09S326.44,406.4,326.44,406.4Z" transform="translate(-84.32 -66.7)"/></g><path class="cls-5" d="M300,286.18c-9.7,3.93-21.48,6.73-24.36,18-.7,2.76-1.06,5.61-1.81,8.37-.51,1.89-2.5,4.94-1.57,6.9,1.26,2.65,7.86,3.46,10.38,3.65L300,351.31l22.5-5.38,13-24.78,4.08-1.22s2.45.24,2.45-1.06c0-3.18-1.41-6.78-2.12-9.84-1.05-4.51-1.48-10.23-3.51-14.35-2.34-4.75-8.42-4.93-13-6q-5.17-1.26-10.37-2.46Z" transform="translate(-84.32 -66.7)"/><g class="cls-70"><path class="cls-7" d="M288.49,322.25s1,.4,1.41-1a73.23,73.23,0,0,0,1.77-13.66c-.16-2.77,1.15,11.9,0,16.31a16.55,16.55,0,0,1-3.75,7Z" transform="translate(-84.32 -66.7)"/><path class="cls-7" d="M326.63,322.44a1.13,1.13,0,0,1-.85-.92c-.46-2.69-2-12-1.87-14.32.16-2.77-1.15,11.9,0,16.3a16.63,16.63,0,0,0,3.76,7l-.29-7.89Z" transform="translate(-84.32 -66.7)"/><ellipse class="cls-71" cx="222.52" cy="224.62" rx="12.06" ry="10.76"/></g><path class="cls-1" d="M298.35,286.59c-.24.06,0,6.19,0,6.73a4.87,4.87,0,0,0,.32,2.47,7,7,0,0,0,5.29,3.83,11.51,11.51,0,0,0,12.66-5.69V282.19Z" transform="translate(-84.32 -66.7)"/><g class="cls-72"><path class="cls-6" d="M296.8,292.3c3.67,2.44,6.71,3.42,10.63,3.05S319,287.58,319,287.58l-1.51-5.39-20.67,2.89Z" transform="translate(-84.32 -66.7)"/></g><path class="cls-49" d="M293.79,263s-.33,14.84,0,19.24,5.22,9.46,8.31,9.94,6.69,2.12,8.48,0,6.36-4.88,7.17-8.47-.32-13.7,0-14.84-.81-9.45-2.6-11.08-7-2.12-9.3-2.12S295.26,256.76,293.79,263Z" transform="translate(-84.32 -66.7)"/><path class="cls-1" d="M297.21,267.68s-1.63,7.17-1.47,9.46.17,6.68,2.12,6.52,4.08-4.89,7.83-4.89,5.38,3.91,7.82,3.75,2.94-2.94,3.1-7.5S313,263,310.74,263s-1.47,2.28-4.56,2.28S302.92,263,300.8,263,297.21,267.68,297.21,267.68Z" transform="translate(-84.32 -66.7)"/><path class="cls-1" d="M327.37,322.62s2.39-3.63,5.32-3.87a58.47,58.47,0,0,1,8.07.26l-3.12,19.51s1,2.2.25,3.3-4.4,2.44-4.4,2.44l-19.93,11.62h-1.72l-1-2.32-2.69-.49-2.08,2.81h-2.45v-7.09l3.79-2.33,2.81,1.84s13.21-8.18,14.92-10.45l1.71-2.27Z" transform="translate(-84.32 -66.7)"/><g class="cls-73"><path class="cls-6" d="M324.27,327.35s4.24-4.73,8.48-5.06,10.93-.16,10.93-.16l.65-5.05-13.53-1.63-8.59,8Z" transform="translate(-84.32 -66.7)"/></g><path class="cls-6" d="M288.49,322.25l.49,13.09,14.67,13.45v7.09h2.45l2.08-2.81,2.69.49,1,2.32s3.06.73,3.31,1.59-1.72,7.09-2.69,7.33-7.83-.61-7.83-.61l-6-4s.24-7.34,0-8.44-17-8-18.59-9.9c-.66-.82-1-2.39-1.83-5.38A127.77,127.77,0,0,1,274.59,320c1.29-.33,3.47,0,5.22-.06C283.72,319.77,286.43,321.48,288.49,322.25Z" transform="translate(-84.32 -66.7)"/><g class="cls-74"><path class="cls-47" d="M274.22,319.28v3.59a69.7,69.7,0,0,1,7.67-.66c1.38.17,7.5,2.29,7.5,2.29l1.46-3.26S275.91,318.73,274.22,319.28Z" transform="translate(-84.32 -66.7)"/></g><rect class="cls-31" x="128.31" y="273.68" width="273.37" height="9.57" rx="3.6"/><path class="cls-75" d="M482.4,347.86H216.23a3.6,3.6,0,0,1-3.6-3.6v2.09a3.6,3.6,0,0,0,3.6,3.6H482.4a3.6,3.6,0,0,0,3.6-3.6v-2.09A3.6,3.6,0,0,1,482.4,347.86Z" transform="translate(-84.32 -66.7)"/><path class="cls-3" d="M439.81,350l1.11,1.92a6.43,6.43,0,0,0,5.56,3.2H459l-.51-5.12Z" transform="translate(-84.32 -66.7)"/><polygon class="cls-43" points="374.72 288.36 383.11 371.66 386.81 371.66 386.81 283.25 374.21 283.25 374.72 288.36"/><path class="cls-3" d="M239.58,355.07h12.56a6.43,6.43,0,0,0,5.56-3.2l1.11-1.92H240.1Z" transform="translate(-84.32 -66.7)"/><polygon class="cls-43" points="143.17 283.25 143.17 371.66 146.88 371.66 155.78 283.25 143.17 283.25"/><polygon class="cls-3" points="200.9 271 171.52 271 182.4 235.6 211.78 235.6 200.9 271"/><polygon class="cls-43" points="203.34 271 173.97 271 184.85 235.6 214.22 235.6 203.34 271"/><rect class="cls-3" x="143.17" y="269.94" width="53.92" height="3.74"/><rect class="cls-43" x="170.13" y="269.94" width="31.01" height="3.74"/><path class="cls-32" d="M281.73,320.68c.42-2-.15-3.85-1.28-4.22s-2.4.91-2.83,2.87.14,3.84,1.28,4.21S281.3,322.63,281.73,320.68Z" transform="translate(-84.32 -66.7)"/><rect class="cls-3" x="237.74" y="235.6" width="44.75" height="35.39"/><rect class="cls-43" x="239.17" y="235.6" width="47.05" height="35.39"/><rect class="cls-43" x="239.34" y="271" width="45.41" height="2.69"/><path class="cls-32" d="M349.91,320a3.54,3.54,0,1,0-3.54,3.54A3.55,3.55,0,0,0,349.91,320Z" transform="translate(-84.32 -66.7)"/><polygon class="cls-3" points="338.55 271 367.92 271 357.04 235.6 327.67 235.6 338.55 271"/><polygon class="cls-43" points="336.1 271 365.47 271 354.59 235.6 325.22 235.6 336.1 271"/><rect class="cls-3" x="426.67" y="336.64" width="53.92" height="3.74" transform="translate(822.95 610.32) rotate(180)"/><rect class="cls-43" x="422.62" y="336.64" width="31.01" height="3.74" transform="translate(791.93 610.32) rotate(180)"/><path class="cls-32" d="M426.35,320.68c-.42-2,.15-3.85,1.28-4.22s2.4.91,2.83,2.87-.14,3.84-1.28,4.21S426.78,322.63,426.35,320.68Z" transform="translate(-84.32 -66.7)"/><line class="cls-76" x1="2.14" y1="372.58" x2="578.14" y2="372.58"/></g></g></svg>