<?xml version="1.0" encoding="utf-8"?>
<!-- Generator: Adobe Illustrator 22.1.0, SVG Export Plug-In . SVG Version: 6.00 Build 0)  -->
<svg version="1.1" id="layer_1" xmlns="http://www.w3.org/2000/svg" xmlns:xlink="http://www.w3.org/1999/xlink" x="0px" y="0px"
	 viewBox="0 0 1400 1400" style="enable-background:new 0 0 1400 1400;" xml:space="preserve">
<style type="text/css">
	.st0{fill:#FFFFFF;}
	.st1{fill:#E4F6F9;}
	.st2{fill:#B8D7E0;}
	.st3{fill:#BCE4EE;}
	.st4{fill:#E0F2F8;}
	.st5{fill:#EDB67B;}
	.st6{fill:#58A0B8;}
	.st7{fill:#D58A56;}
	.st8{fill:#28265D;}
	.st9{fill:#AC2250;}
	.st10{fill:#E73D6F;}
	.st11{fill:#CECECF;}
	.st12{fill:#23100A;}
	.st13{fill:#A8512A;}
	.st14{fill:#8174B0;}
	.st15{fill:#BFB8DB;}
	.st16{fill:#8E82BD;}
</style>
<g>
	<rect x="0" class="st0" width="1400" height="1400"/>
	<g>
		<path class="st1" d="M191.8,1144.1c-173.3-231,86.4-237.8,41.5-356.2s-246.8-461.4-64.1-557.6S1442-111.7,1252.8,465.2
			c-48.1,146.6-173.1,213.6-109,316.4s101.8,253.7,39.7,362.6H191.8z"/>
		<path class="st2" d="M764.7,98.5c-15.4,5.7-36.7,12.5-58,23.9L598.9,97.7l-11.7,8.6l67.4,47.1c-14.3,9.4-27.2,18.6-37.4,26.4
			L588.7,167l-14,4.7l10.1,21h-26.5l3.9,11.7l20.2,4.7l62.3-23.4l-0.2,0c13.3-4.8,28.6-10.4,44.7-16.3l80.7,18.1l8-4.3l-39.5-31.8
			c47.3-17.3,90.4-33.1,97.9-35.8C853.5,109.4,845.2,68.9,764.7,98.5z"/>
		<g>
			<g>
				<polygon class="st3" points="558.8,327.5 558.8,301.5 534.7,301.5 534.7,276.8 515.1,276.8 515.1,109.9 500.6,109.9 
					500.6,276.8 483.5,276.8 483.5,301.5 460.7,301.5 460.7,327.5 431,327.5 431,1208.3 590.2,1208.3 590.2,327.5 				"/>
				<path class="st0" d="M497.8,431.1h25.9v-28h-25.9V431.1z M497.8,388h25.9v-28h-25.9V388z M456.6,388h25.9v-28h-25.9V388z
					 M497.8,474.2h25.9v-28h-25.9V474.2z M497.8,517.4h25.9v-28h-25.9V517.4z M456.6,517.4h25.9v-28h-25.9V517.4z M537.9,474.2h25.9
					v-28h-25.9V474.2z M537.9,431.1h25.9v-28h-25.9V431.1z M456.6,474.2h25.9v-28h-25.9V474.2z M537.9,359.9v28h25.9v-28H537.9z
					 M537.9,517.4h25.9v-28h-25.9V517.4z M456.6,431.1h25.9v-28h-25.9V431.1z M456.6,561.7h25.9v-28h-25.9V561.7z M456.6,604.8h25.9
					v-28h-25.9V604.8z M456.6,691.1h25.9v-28h-25.9V691.1z M456.6,647.9h25.9v-28h-25.9V647.9z M537.9,691.1h25.9v-28h-25.9V691.1z
					 M537.9,647.9h25.9v-28h-25.9V647.9z M537.9,604.8h25.9v-28h-25.9V604.8z M537.9,561.7h25.9v-28h-25.9V561.7z M497.8,561.7h25.9
					v-28h-25.9V561.7z M497.8,691.1h25.9v-28h-25.9V691.1z M497.8,647.9h25.9v-28h-25.9V647.9z M497.8,604.8h25.9v-28h-25.9V604.8z"
					/>
			</g>
			<g>
				<polygon class="st2" points="761.3,1208.3 590.2,1208.3 590.2,356.8 676.5,272.4 761.3,356.8 				"/>
				<path class="st0" d="M660,465.2h31.5v-34.1H660V465.2z M660,412.7h31.5v-34.1H660V412.7z M609.8,412.7h31.5v-34.1h-31.5V412.7z
					 M660,517.7h31.5v-34.1H660V517.7z M660,570.2h31.5v-34.1H660V570.2z M609.8,570.2h31.5v-34.1h-31.5V570.2z M708.7,517.7h31.5
					v-34.1h-31.5V517.7z M708.7,465.2h31.5v-34.1h-31.5V465.2z M609.8,517.7h31.5v-34.1h-31.5V517.7z M708.7,378.6v34.1h31.5v-34.1
					H708.7z M708.7,570.2h31.5v-34.1h-31.5V570.2z M609.8,465.2h31.5v-34.1h-31.5V465.2z M609.8,624.1h31.5V590h-31.5V624.1z
					 M609.8,676.6h31.5v-34.1h-31.5V676.6z M609.8,781.6h31.5v-34.1h-31.5V781.6z M609.8,729.1h31.5V695h-31.5V729.1z M708.7,781.6
					h31.5v-34.1h-31.5V781.6z M708.7,729.1h31.5V695h-31.5V729.1z M708.7,676.6h31.5v-34.1h-31.5V676.6z M708.7,624.1h31.5V590
					h-31.5V624.1z M660,624.1h31.5V590H660V624.1z M660,781.6h31.5v-34.1H660V781.6z M660,729.1h31.5V695H660V729.1z M660,676.6
					h31.5v-34.1H660V676.6z"/>
			</g>
			<g>
				<polygon class="st3" points="882.3,356.9 882.3,332.2 859.5,332.2 832.7,308.8 811,332.2 789.4,332.2 789.4,356.9 761.3,356.9 
					761.3,1208.3 912.1,1208.3 912.1,356.9 				"/>
				<path class="st0" d="M777.7,805.2h15.7V374.1h-15.7V805.2z M812.1,805.2h15.7V374.1h-15.7V805.2z M846.4,805.2h15.7V374.1h-15.7
					V805.2z M880.7,374.1v431.1h15.7V374.1H880.7z"/>
			</g>
			<path class="st4" d="M191.8,1144.1c70.4,109.4,265.8,188.1,495.8,188.1s425.4-78.7,495.8-188.1H191.8z"/>
		</g>
		<g>
			<path class="st5" d="M704,317.7c-14.1,0.6-36.2,8.5-50.4,16.4c-14.1,7.9-23.8,6.8-31.1,22.6l48.1,99.6c0,0,4.5,17.5,21.5,14.1
				c4-27.2,14.7-41.9,14.7-41.9c14.3,9.6,23.9,4.4,28.2-1.5c4.2-4.4,6.2-18.5,10.4-19.5c0,0,0,0,0,0c4.4-0.7,8.4-2.9,9.5-5.9l0,0
				c0,0,0,0,0,0c0-0.1,0.1-0.2,0.1-0.4c0,0.1-0.1,0.2-0.1,0.3c0.3-1,0.3-2.2-0.1-3.4c-1.9-4.9-3.2-10.1-4.3-17.2
				c0.4-11.7,6.8-19.6,2.3-29.4l4.1-2C750.6,340.9,716.9,317.2,704,317.7z"/>
			<path class="st3" d="M1054.2,1165.8c-58.8-11.3-715.2-9.2-749.1-6.8c-158.4,11.3,72.4,45.3,362.1,49.8
				C956.8,1213.3,1112.6,1177,1054.2,1165.8z"/>
			
				<ellipse transform="matrix(0.9871 -0.1602 0.1602 0.9871 -177.9289 72.2923)" class="st6" cx="359.4" cy="1139.8" rx="17" ry="17"/>
			<path class="st7" d="M499.8,1115.1c-1.8,11.6,6.1,13,13.1,7.1c7-6,58.7-77.8,75.4-98.4l-49.1-17
				C539.2,1006.7,501.6,1103.4,499.8,1115.1z"/>
			<path class="st8" d="M515.8,1141.3c0,0-0.6-8.6-5-18.1c-8.3,1-10.9-6-10.9-6s-9.2,3.9-12.6,5.3c-3.4,1.4-28.9,16.2-29.6,18.2
				c-0.7,2.1,1.4,7.8,13.7,17.2c12.3,9.4,53.9,28.5,60.2,30.7c6.3,2.2,15.8-1.3,14.7-3.6C545.1,1182.8,515.8,1141.3,515.8,1141.3z"
				/>
			<path class="st8" d="M532.9,865.6c-3.8,5.3-6,8.3-12.1,15.8l16.6,17.4C554.1,870.1,536.7,860.3,532.9,865.6z"/>
			<path class="st5" d="M842.2,1014.9l-40,33.2c0,0,63.4,82.2,72.4,89.8c9.1,7.5,14.3,1.5,12.8-7.5
				C886,1121.3,851.3,1039.8,842.2,1014.9z"/>
			<path class="st9" d="M606.1,818C604.5,955.3,505,1005.1,505,1005.1s10.1,53.6,83.2,60.3C616.2,956.1,691.1,838,691.1,838
				l-73.7-75.8C617.4,762.2,606.9,787.9,606.1,818z"/>
			<path class="st10" d="M816.3,927.4c-21.9-57.3-42-132-54.8-171.3c-12.8-39.2-22.3-46-22.4-78.1C707.2,646,627.6,673,627.6,673
				s-22.6,33.4-14.7,77.1c8.1,44.6,42.2,70.2,47.5,80c3,5.5,70.7,50.9,97.7,111.5c23,51.7,26.6,104.1,6.9,133
				c111.6,9.8,93.4-57.5,93.4-57.5S838.2,984.8,816.3,927.4z"/>
			<path class="st11" d="M458.8,1177.7c0,0,8.2,5.2,23.9-23.3C498.4,1125.9,675,804.4,675,804.4l-8.5-4.7L458.8,1177.7z"/>
			<path class="st7" d="M759.2,655.1c-14-11.7-50.5-18.1-78.1-32.8c-27.5-14.7-59.2-24.1-68.6-30.6c11.3-14.7,15.8-29,15.8-29
				l-46.6,9.1c0,0-10.7,19.8-10.7,32.2c0,12.4,15.1,19.8,42.6,27.7c27.5,7.9,66.8,6.8,92.4,18.5c25.6,11.7,29.8,23.4,37.3,27.2
				c7.5,3.8,15.5,4.9,10.9,2.6c-4.5-2.3-3.4-6-6.8-8.3c-3.4-2.3,9.4,2.6,12.1,4.9c2.6,2.3,2.6,6,3.8,7.5c1.1,1.5,2.3-4.9,1.5-8.7
				c1.1,2.6,4.5,0.8,2.6-4.5S773.2,666.8,759.2,655.1z"/>
			<path class="st8" d="M681.9,459.7c0,0-54.9-11.3-53.2,97.9c0,0,6.2,65.6-1.1,115.4c62.2,31.1,111.5,5.1,111.5,5.1
				s-2.8-49.8,0-65.6c2.8-15.8,9.6-22.1,14.7-41.9c5.1-19.8-14.7-43-31.7-66.2C705.1,481.2,681.9,459.7,681.9,459.7z"/>
			<path class="st5" d="M695.1,603c1.1-31.7,3.8-93.5,2.6-116.9c-0.4-7.9-20.7-29.8-45.3,10.9c-2.5,14,1.1,67.9,5.7,110.9
				c4.5,43,25.5,128.4,19.2,169.2c-0.8,5-7.2,4-13.6,9.2c-6.4,5.3-7.2,16.2-8.3,22.3c-1.1,6,0.4,7.9,7.2-0.8c4.5-5.7,11.6-2.1,7.2,6
				c-5.5,10.2-9.9,19-12.5,22.3c-2.6,3.4,6.9,1.4,9.9-1.6c3.8,1.1,9.4-3.8,9.4-3.8s6.8-0.8,11.7-8.3c4.9-7.5,3.4-12.4,7.5-35.8
				c4.2-23.4,4.7-73,3-106.4C697.4,650.2,694,634.7,695.1,603z"/>
			<path class="st12" d="M697.8,285.5c-47.3-10.8-74.7,35.6-91.1,94.5c-16.4,58.8-71.4,35.8-110.3,95.6
				c-73.5,113.2,89.4,190.1,162.4,52c11.9,15.3,31.7,3.4,28.9,2.3c-2.8-1.1-10.7-0.6-17-21.5c-6.2-20.9,44.1-72.4,8.5-111.5
				c-26-24.9,2.3-49.8,14.7-25.5c0,0-0.6,8.5-1.1,16.4c-0.6,7.9,11.3,0,15.3-28.3c0,0,10.2-0.6,18.7-13l3.4,7.4
				c0,0,19.2,9.1,36.8-4.5C756,335.3,767.3,301.3,697.8,285.5z"/>
			<path class="st7" d="M681.5,368.4c-6.9-1.7-8.7,7.3-7.5,5.8c4-4.9,11.3,0.9,12.6,2.8C688.9,380.4,688.3,370.1,681.5,368.4z"/>
			<path class="st13" d="M680.8,384.5c1.1,5.7,7.7,9.6,6.2-0.6C686.6,381.5,679.7,378.8,680.8,384.5z"/>
			<path class="st8" d="M958.6,1134.4c-2.5-0.3-53.2,3.4-53.2,3.4s-7.6-4-18.1-5.1c-3.4,7.6-10.7,6.2-10.7,6.2s-1.4,9.9-2,13.6
				c-0.6,3.7-1.1,33.1,0.3,34.8c1.4,1.7,7.4,2.8,21.8-2.8c14.4-5.7,52.3-31.4,57.4-35.6C959.1,1144.6,961.1,1134.7,958.6,1134.4z"/>
			<path class="st14" d="M537.5,888.9c-30.9-30.2-66.4-37-80-23.4c-13.6,13.6-21.7,32.6-27.2,38.5c-61.9,65.6-108.7,194-104.9,201.4
				c30.9,58.8,125.2,71.8,127.5,69.4c61.1-64.1,107.9-185.6,115.4-211.2C575.9,938,568.4,919.1,537.5,888.9z"/>
			<path class="st8" d="M407.7,1024c0,0-65.2,70.1-78,88.7c34.5,52.7,127.4,67.8,129.1,65.1c12.5-19.8,39.1-60.8,56.9-93.7
				C434.2,1079.1,407.7,1024,407.7,1024z"/>
			<path class="st15" d="M447.1,878.2c-7.6,10.8-12.9,21.7-16.8,25.9c-61.9,65.6-108.7,194-104.9,201.4c5.8,11,13.8,20.4,23,28.4
				c8.5-13.3,63.9-100.4,109.8-182.3C505.4,867.2,467.3,860.1,447.1,878.2z"/>
			<path class="st16" d="M325.5,1105.4c5.8,11,13.8,20.4,23,28.4c5.7-9,32.8-51.4,63.8-103.2c-19.2-22.3-30.5-44.9-34.2-52.8
				C344.3,1037.8,322.8,1100.4,325.5,1105.4z"/>
			<circle class="st8" cx="385.5" cy="1169.2" r="17"/>
			<path class="st8" d="M531.5,881.1c-2,14.2-14.8,79.9-91.1,193l5.6,3.8c87.8-130.2,92.6-198.7,92.6-199.3l-6.8-0.5
				C531.8,878.2,531.8,879.1,531.5,881.1z"/>
		</g>
	</g>
</g>
</svg>
