<?xml version="1.0" encoding="utf-8"?>
<!-- Generator: Adobe Illustrator 21.0.0, SVG Export Plug-In . SVG Version: 6.00 Build 0)  -->
<svg version="1.1" id="Layer_1" xmlns="http://www.w3.org/2000/svg" xmlns:xlink="http://www.w3.org/1999/xlink" x="0px" y="0px"
	 width="2000px" height="2000px" viewBox="0 0 2000 2000" style="enable-background:new 0 0 2000 2000;" xml:space="preserve">
<style type="text/css">
	.st0{fill:#FFFFFF;}
	.st1{fill:#E5DCF9;}
	.st2{fill:#F3EEFF;}
	.st3{fill:#D7CAFC;}
	.st4{fill:#C6B5F4;}
	.st5{fill:#4A3F89;}
	.st6{fill:#EBE4FB;}
	.st7{fill:#E0D6FD;}
	.st8{fill:#D2C6F7;}
	.st9{fill:#F6F2FF;}
	.st10{fill:#472E6D;}
	.st11{fill:url(#SVGID_1_);}
	.st12{fill:#7346A3;}
	.st13{fill:#8861BC;}
	.st14{fill:#28DBD5;}
	.st15{fill:#44E2DA;}
	.st16{fill:#FFC68D;}
	.st17{fill:#F9D2AF;}
	.st18{fill:#FF9620;}
	.st19{fill:url(#SVGID_2_);}
	.st20{fill:url(#SVGID_3_);}
	.st21{fill:url(#SVGID_4_);}
	.st22{fill:url(#SVGID_5_);}
	.st23{fill:url(#SVGID_6_);}
	.st24{fill:url(#SVGID_7_);}
	.st25{fill:url(#SVGID_8_);}
	.st26{fill:url(#SVGID_9_);}
	.st27{fill:url(#SVGID_10_);}
	.st28{fill:url(#SVGID_11_);}
	.st29{fill:#BC5C06;}
</style>
<g>
	<rect class="st0" width="2000" height="2000"/>
	<g>
		<path class="st1" d="M1869.4,1240c-10.9-58.8-21.7-117.8-25.1-177.6c-3.4-60.7,2.5-121.1,12.8-181c19.4-112.9,53-224.2,55-339.4
			c1.6-95.8-17.3-195.9-77.5-273.1c-61.8-79.1-160.2-117.8-257.9-126.6c-115.7-10.4-229.9,21.4-339.7,53.9
			c-115.1,34.1-233.2,71.5-354.8,63.9C766,252.9,656.5,205.7,540.4,197c-51.2-3.8-102.8,0.8-151.6,16.9
			c-44.3,14.6-85.4,37.1-122.4,65.5C190.5,338,135,421.1,108.3,513c-30.4,104.8-25.6,218.2,5.2,322.3C129,887.8,151.8,937,177,985.4
			c24.6,47.4,50.9,94.6,67.5,145.6c17.9,54.9,20.6,110.7,12.1,167.6c-8.9,59.5-27.5,117-41.5,175.4
			c-20.9,87.2-29.1,184.6,12.3,267.5c19.6,39.3,51.1,71,91.2,89.2c49.1,22.3,104.5,21,156.8,14.1c56.4-7.5,111.7-21,168.1-28.5
			c33.1-4.4,66.3-7.6,99.6-9.5c121.1-3.5,241.5,10.1,361.5,24.9c117.7,14.5,235.8,29.3,354.6,27.9c96.6-1.2,200-10.9,284.3-62.4
			c40.9-25,75.2-59.3,99.8-100.5c24.8-41.7,39.4-88.3,47.4-135.9C1908.8,1453.4,1889,1345.8,1869.4,1240z"/>
		<g>
			<path class="st2" d="M1472.5,464.8c16.8,7.3,35.9,3.8,52.9-1c9.6-2.7,19.2-5.9,29-7.9c9.7-2,19.5-2.3,29.3-1.1
				c19.2,2.5,37.7,9.7,57.2,10c7.7,0.2,15.9-0.8,22.7-4.7c6.7-3.7,11-10.2,11.7-17.8c1.5-16.1-10.6-30.7-23.5-38.7
				c-7.1-4.4-15.1-7.3-23.3-8.4c-9-1.2-17.9,0.2-26.9,0.7c-9.1,0.5-18-0.4-25.6-5.9c-6-4.3-10.8-10.1-16.4-14.9
				c-5-4.2-10.8-7.6-17.4-7.9c-6.4-0.2-12.5,2.5-17.9,5.8c-11.2,6.8-23.3,18.8-37.6,14.1c-7.8-2.6-13.6-9.1-18.6-15.3
				c-5.5-6.8-10.6-13.9-16.5-20.4c-12.1-13.1-27-24.3-44.6-28.8c-16.6-4.2-34.1-1.9-48.2,8.1c-13,9.2-22.2,22.9-28.4,37.4
				c-5.4,12.4-10.8,34.1-28.8,28.5c-4.1-1.3-7.9-3.3-12-4.6c-3.8-1.2-7.7-1.5-11.6-0.9c-8.4,1.4-15.6,6.6-20.8,13
				c-4.3,5.3-7.6,11.2-10.5,17.4c-1,2.8-2,7.4-1.3,13.9c0,0.2,0,0.4,0.1,0.6c3.6,13,13.3,23.9,26.3,28.5c7.8,2.8,16.5,3.2,24.6,1.1
				c8.5-2.2,15.9-7.1,24-10.1c4.1-1.5,8.3-2.4,12.7-2.1c4.9,0.3,9.6,2.1,14,4.2c8.2,3.8,16,7.9,24.8,10c17.1,4,35.4,2.3,51.4-4.9
				c8.1-3.6,16.4-10.7,25.8-9.6C1457.8,454.3,1464.6,461.4,1472.5,464.8z"/>
			<path class="st2" d="M1893,526.3c-13.3-9.4-29.7-11.6-45.3-7.6c-16.5,4.2-30.5,14.7-41.9,27c-5.6,6.1-10.4,12.7-15.5,19.1
				c-4.7,5.8-10.2,12-17.5,14.4c-13.4,4.4-24.8-6.9-35.3-13.3c-5.1-3.1-10.8-5.6-16.8-5.4c-6.3,0.2-11.7,3.4-16.4,7.4
				c-5.3,4.5-9.8,9.9-15.5,14c-7.2,5.1-15.5,6-24.1,5.5c-8.4-0.5-16.8-1.8-25.3-0.7c-7.8,1.1-15.3,3.8-21.9,7.9
				c-12.1,7.5-23.5,21.3-22.1,36.4c0.7,7.2,4.7,13.2,11,16.8c6.4,3.6,14.1,4.5,21.4,4.4c18.3-0.4,35.7-7.1,53.8-9.4
				c9.3-1.2,18.4-0.9,27.6,1c9.2,1.9,18.2,4.8,27.2,7.4c15.9,4.5,33.9,7.8,49.7,1c7.4-3.2,13.9-9.9,22.1-10.8c8.9-1,16.6,5.6,24.3,9
				c15,6.7,32.3,8.3,48.3,4.6c7.8-1.8,14.8-5.3,22-8.7c4.9-32.9,8.3-66.1,9.2-99.5C1906.9,538.9,1900.7,531.8,1893,526.3z"/>
			<path class="st2" d="M511.4,359.8c0-0.2,0-0.4,0.1-0.6c0.6-6-0.3-10.4-1.2-13c-2.7-5.8-5.8-11.4-9.9-16.4
				c-5-6-11.7-10.9-19.6-12.2c-3.7-0.6-7.3-0.3-10.9,0.8c-3.9,1.2-7.4,3.2-11.3,4.4c-17,5.2-22.1-15.2-27.1-26.8
				c-5.9-13.6-14.5-26.5-26.7-35.1c-13.3-9.4-29.7-11.6-45.3-7.6c-16.5,4.2-30.5,14.7-41.9,27c-5.6,6.1-10.4,12.7-15.5,19.1
				c-4.7,5.8-10.2,12-17.5,14.4c-13.4,4.4-24.8-6.9-35.3-13.3c-1.6-1-3.2-1.9-4.9-2.7c-28.2,24.8-53.1,53.2-74.2,84.1
				c7.7-1.8,15.4-3.6,23.2-4.6c9.3-1.2,18.4-0.9,27.6,1c9.2,1.9,18.2,4.8,27.2,7.4c15.9,4.5,33.9,7.8,49.7,1
				c7.4-3.2,13.9-9.9,22.1-10.8c8.9-1,16.6,5.6,24.3,9c15,6.7,32.3,8.3,48.3,4.6c8.4-1.9,15.7-5.7,23.4-9.4c4.1-1.9,8.5-3.7,13.1-4
				c4.1-0.3,8.1,0.6,11.9,2c7.7,2.8,14.7,7.4,22.6,9.5c7.6,2,15.7,1.6,23.1-1C498.9,382.3,508,372,511.4,359.8z"/>
		</g>
		<g>
			<path class="st3" d="M770.3,565.2l-14.6-6c-2.5-1-5.3-0.9-7.6,0.4l-71.5,39c-2.9,1.6-6.4,1.8-9.5,0.6l-113.4-45.4
				c-2.1-0.9-2.1-3.9,0.1-4.7l95.9-34.5c2-0.7,3.7-2.2,4.6-4.2l6.4-13.7c1.5-3.2-1.2-6.8-4.7-6.3l-3.5,0.6c-0.8,0.1-1.5,0.5-2.2,1
				l-10.4,8.8c-1.4,1.2-3.1,1.9-4.9,2l-161.7,15c-2.3,0.2-4.6-0.2-6.8-1.1c-19.1-8.2-116.2-49.7-132.6-52
				c-18.1-2.6-77.8-4.7-81.4,2.6s-7.8,25.9,33.7,43.5c37.5,15.9,106.7,44.1,119.7,49.4c1.4,0.6,2.6,1.5,3.6,2.7l87.5,106.5
				c1.1,1.3,2.7,2.2,4.4,2.3l30.6,2.1c2.7,0.2,5.2-1.4,6.3-3.8l5.3-12.5c0.6-1.4-0.5-2.9-2-2.8l-7.2,0.6c-0.9,0.1-1.8,0.5-2.4,1.1
				l-6,6.1c-0.6,0.6-1.7,0.4-1.9-0.4l-22.5-68.2c-0.7-2.2,1.4-4.3,3.6-3.5c26.4,9,144,48.3,201,52.7c5.4,0.4,10.6-1.8,13.9-6
				l51.9-65.2C773.8,569.7,772.9,566.3,770.3,565.2z"/>
			<path class="st3" d="M736.3,645.3L736.3,645.3c-1.5,3.6,0.1,7.7,3.6,9.3l225.3,104.6L746.2,641.8
				C742.5,639.8,737.9,641.5,736.3,645.3z"/>
			<path class="st3" d="M542.8,619.9L877,765.5L544.2,635.4c-0.9-0.3-1.6-1-1.9-1.9l-3.3-10C538.2,621.2,540.5,619,542.8,619.9z"/>
			<path class="st3" d="M778.8,601.6l226.1,128.9L771.7,614.3c-2-0.9-2.7-3.4-1.6-5.2l3.7-6.2C774.8,601.2,777,600.6,778.8,601.6z"
				/>
		</g>
		<path class="st4" d="M1680.4,1531V163.8c-6.2-2.1-12.4-4-18.7-5.8h-19.9v1373h-622.6V252c-12.8,2.1-25.7,3.9-38.6,5.4V1531H358.2
			V225.6c-13.2,5.6-26.1,11.9-38.6,18.9V1531H203.8c-1.6,10.7-3,21.4-4,32.2h119.7v2.4h38.6v-2.4h622.6h38.6h871
			c0.1-0.8,0.3-1.6,0.4-2.4c1.7-9.9,3-19.9,4.1-29.8H1680.4z"/>
		<path class="st5" d="M1459.2,1859.6c96.6-1.2,200-10.9,284.3-62.4c40.9-25,75.2-59.3,99.8-100.5c24-40.3,38.4-85.2,46.6-131.1
			H199.7c-5.3,60.2,0.4,121.3,27.7,176c19.6,39.3,51.1,71,91.2,89.2c49.1,22.3,104.5,21,156.8,14.1c56.4-7.5,111.7-21,168.1-28.5
			c33.1-4.4,66.3-7.6,99.6-9.5c121.1-3.5,241.5,10.1,361.5,24.9C1222.3,1846.2,1340.4,1861,1459.2,1859.6z"/>
		<g>
			<path class="st6" d="M524.5,597l-7.6,43.3l7.3,22c0.2,0.5,0.6,0.8,1.1,0.8c0.3,0,0.6-0.1,0.8-0.3l6-6.1c0.6-0.7,1.5-1.1,2.4-1.1
				l7.2-0.6c0.1,0,0.1,0,0.2,0c1.4,0,2.4,1.5,1.8,2.8l-5.3,12.5c-1,2.4-3.3,3.9-5.8,3.9c-0.1,0-0.3,0-0.4,0l-20.9-1.4l-151,858.5
				h155.6L665,682.6l-120.8-47.2c-0.9-0.3-1.6-1-1.9-1.9l-3.3-10c-0.7-2,0.9-3.8,2.8-3.8c0.4,0,0.7,0.1,1.1,0.2l123.7,53.9l6.2-35.5
				C623.8,628.7,559.2,608.4,524.5,597 M593.7,203.5l-54.2,308.2l95.5-8.8c1.8-0.2,3.5-0.9,4.9-2l10.4-8.8c0.6-0.5,1.4-0.9,2.2-1
				l3.5-0.6c0.2,0,0.5-0.1,0.7-0.1c3.1,0,5.4,3.3,4,6.3l-6.4,13.7c-0.9,1.9-2.6,3.4-4.6,4.2l-95.9,34.5c-2.2,0.8-2.2,3.8-0.1,4.7
				L667,599.2c1.3,0.5,2.7,0.8,4.2,0.8c1.8,0,3.7-0.5,5.4-1.4l3.6-1.9l63.3-359.8C693.6,225.1,644.1,211.7,593.7,203.5"/>
			<path class="st7" d="M516.9,640.3l-5.7,32.2l20.9,1.4c0.1,0,0.3,0,0.4,0c2.5,0,4.8-1.5,5.8-3.9l5.3-12.5c0.6-1.3-0.4-2.8-1.8-2.8
				c-0.1,0-0.1,0-0.2,0l-7.2,0.6c-0.9,0.1-1.8,0.5-2.4,1.1l-6,6.1c-0.2,0.2-0.5,0.3-0.8,0.3c-0.5,0-0.9-0.3-1.1-0.8L516.9,640.3
				 M656.6,490.4c-0.2,0-0.5,0-0.7,0.1l-3.5,0.6c-0.8,0.1-1.5,0.5-2.2,1l-10.4,8.8c-1.4,1.2-3.1,1.9-4.9,2l-95.5,8.8l-15,85.2
				c34.7,11.4,99.4,31.7,148.3,41.3l7.3-41.6l-3.6,1.9c-1.7,0.9-3.5,1.4-5.4,1.4c-1.4,0-2.8-0.3-4.2-0.8l-113.4-45.4
				c-2.1-0.9-2.1-3.9,0.1-4.7l95.9-34.5c2-0.7,3.7-2.2,4.6-4.2l6.4-13.7C662,493.7,659.8,490.4,656.6,490.4"/>
			<path class="st7" d="M541.7,619.7c-1.9,0-3.4,1.9-2.8,3.8l3.3,10c0.3,0.9,1,1.6,1.9,1.9L665,682.6l1.5-8.8l-123.7-53.9
				C542.5,619.8,542.1,619.7,541.7,619.7"/>
			<polyline class="st8" points="515.8,1531 360.2,1531 360.1,1531.9 515.6,1531.9 515.8,1531 			"/>
			<path class="st6" d="M745.8,714.2L602.1,1531h77.8l138.6-788.4L745.8,714.2 M755,661.7l-8.3,47.1l72.3,31.5l7.9-45.1L755,661.7
				 M826.7,253.9l-54.9,312.4c1.4,1.5,1.6,3.9,0.2,5.7l-1.6,2l-13,73.9l71.1,38.1l7-39.9l-63.8-31.8c-2-0.9-2.7-3.4-1.6-5.2l3.7-6.2
				c0.7-1.2,1.9-1.8,3.2-1.8c0.6,0,1.3,0.2,1.8,0.5l58.7,33.5l65.8-374c-7-0.1-14-0.4-21-0.9C863.6,259,845.1,256.8,826.7,253.9"/>
			<path class="st7" d="M771.8,566.3l-1.3,7.7l1.6-2C773.4,570.2,773.2,567.8,771.8,566.3"/>
			<polyline class="st7" points="757.4,647.8 755,661.7 826.9,695.1 828.5,686 757.4,647.8 			"/>
			<polyline class="st7" points="746.7,708.7 745.8,714.2 818.6,742.6 819,740.2 746.7,708.7 			"/>
			<path class="st7" d="M776.9,601.1c-1.3,0-2.5,0.6-3.2,1.8l-3.7,6.2c-1.1,1.9-0.4,4.3,1.6,5.2l63.8,31.8l1.9-11.1l-58.7-33.5
				C778.2,601.3,777.6,601.1,776.9,601.1"/>
			<polyline class="st8" points="679.9,1531 602.1,1531 602,1531.9 679.8,1531.9 679.9,1531 			"/>
			<path class="st6" d="M216.4,377.5L128.2,879c13.8,36.5,30.7,71.6,48.8,106.4c2.6,4.9,5.1,9.9,7.7,14.8L272,503.8
				c-26.1-15.3-22.6-30.2-19.4-36.5c1.5-3,12.8-4.4,26.7-4.9l13-73.9c-4.8,1.4-9.8,1.9-14.8,1.9c-9.9,0-20-2.2-29.4-4.9
				c-9.1-2.6-18-5.5-27.2-7.4C219.4,378,217.9,377.7,216.4,377.5 M317.4,245.7c-17.7,10-34.7,21.4-51,33.8c-7.6,5.9-15,12-22.2,18.3
				c1.7,0.8,3.3,1.7,4.9,2.7c8.9,5.4,18.4,14.3,29.1,14.3c2,0,4.1-0.3,6.2-1c7.3-2.4,12.8-8.5,17.5-14.4c2.6-3.3,5.1-6.6,7.7-9.9
				L317.4,245.7"/>
			<path class="st9" d="M309.7,289.5c-2.6,3.3-5.1,6.6-7.7,9.9c-4.7,5.8-10.2,12-17.5,14.4c-2.1,0.7-4.2,1-6.2,1
				c-10.8,0-20.2-8.9-29.1-14.3c-1.6-1-3.2-1.9-4.9-2.7c-3.5-1.6-7.3-2.8-11.2-2.8c-0.2,0-0.5,0-0.7,0c-0.5,0-1,0.1-1.5,0.1
				l-14.5,82.4c1.5,0.2,3,0.5,4.5,0.8c9.2,1.9,18.2,4.8,27.2,7.4c9.4,2.6,19.4,4.9,29.4,4.9c5,0,10-0.6,14.8-1.9L309.7,289.5"/>
			<path class="st7" d="M279.3,462.5c-13.9,0.4-25.2,1.8-26.7,4.9c-3.1,6.3-6.7,21.1,19.4,36.5L279.3,462.5"/>
			<path class="st6" d="M1411,152c-55.1,10-109.4,25.2-162.8,40.9l-228.9,1301.7v36.4h149.2l187.9-1068.8c-3.2-1.4-6.3-3-9.5-4.5
				c-4.4-2.1-9.1-3.9-14-4.2c-0.5,0-1,0-1.5,0c-3.8,0-7.6,0.9-11.2,2.2c-8.2,3-15.6,7.9-24,10.1c-3.4,0.9-6.9,1.3-10.4,1.3
				c-4.8,0-9.6-0.8-14.1-2.4c-13-4.6-22.7-15.5-26.3-28.5c0-0.2,0-0.4-0.1-0.6c-0.7-6.4,0.4-11.1,1.3-13.9
				c2.9-6.2,6.2-12.1,10.5-17.4c5.3-6.4,12.5-11.6,20.8-13c1.3-0.2,2.6-0.3,3.9-0.3c2.6,0,5.2,0.4,7.7,1.2c4.1,1.3,7.9,3.4,12,4.6
				c2,0.6,3.8,0.9,5.5,0.9c13.8,0,18.6-18.4,23.3-29.4c6.2-14.4,15.4-28.2,28.4-37.4c6.8-4.8,14.4-7.9,22.3-9.3L1411,152"/>
			<path class="st9" d="M1381.1,321.7c-7.9,1.4-15.5,4.4-22.3,9.3c-13,9.2-22.2,22.9-28.4,37.4c-4.8,11-9.6,29.4-23.3,29.4
				c-1.7,0-3.5-0.3-5.5-0.9c-4.1-1.3-7.9-3.3-12-4.6c-2.5-0.8-5.1-1.2-7.7-1.2c-1.3,0-2.6,0.1-3.9,0.3c-8.4,1.4-15.6,6.6-20.8,13
				c-4.3,5.3-7.6,11.2-10.5,17.4c-1,2.8-2,7.4-1.3,13.9c0,0.2,0,0.4,0.1,0.6c3.6,13,13.3,23.9,26.3,28.5c4.5,1.6,9.3,2.4,14.1,2.4
				c3.5,0,7-0.4,10.4-1.3c8.5-2.2,15.9-7.1,24-10.1c3.6-1.3,7.3-2.2,11.2-2.2c0.5,0,1,0,1.5,0c4.9,0.3,9.6,2.1,14,4.2
				c3.2,1.5,6.3,3,9.5,4.5L1381.1,321.7"/>
			<polyline class="st8" points="1019.3,1494.6 1012.7,1531.9 1168.3,1531.9 1168.5,1531 1019.3,1531 1019.3,1494.6 			"/>
			<path class="st6" d="M1902.9,646.3c-7.2,3.4-14.1,6.9-22,8.7c-5.7,1.3-11.5,2-17.3,2c-10.6,0-21.3-2.2-31-6.6
				c-0.9-0.4-1.7-0.8-2.6-1.2l-149.6,850.7v30.3h150.2l45-256c-2.1-11.4-4.1-22.7-6.2-34c-10.9-58.8-21.7-117.8-25.1-177.6
				c-3.4-60.7,2.5-121.1,12.8-181C1870.7,802.9,1891.1,725.1,1902.9,646.3 M1882,353.2l-28.9,164.4c3.1-0.5,6.3-0.8,9.4-0.8
				c10.8,0,21.4,3.1,30.5,9.5c7.7,5.4,13.9,12.5,19,20.4c0-1.6,0.1-3.2,0.1-4.8C1913.2,478.3,1905.2,412.7,1882,353.2"/>
			<polyline class="st8" points="1680.4,1499.8 1675.1,1530.1 1680.4,1530.1 1680.4,1499.8 			"/>
			<path class="st6" d="M1447,453.2c-0.9,0-1.8,0.1-2.7,0.2L1254.8,1531h77.8L1520,465.2c-8.4,2.1-17.2,3.7-25.8,3.7
				c-7.4,0-14.7-1.2-21.6-4.2c-7.9-3.4-14.7-10.5-23.6-11.5C1448.3,453.2,1447.6,453.2,1447,453.2 M1531,140.3
				c-10.6,0-21.2,0.3-31.8,0.9L1460.4,362c2.6,3.3,5.1,6.6,7.8,9.9c5,6.2,10.8,12.7,18.6,15.3c2.2,0.7,4.4,1.1,6.6,1.1
				c11.5,0,21.5-9.4,31-15.2c4-2.4,8.3-4.5,12.9-5.4l39.6-225.4c0,0,0,0,0,0C1561.5,141,1546.2,140.3,1531,140.3"/>
			<path class="st9" d="M1460.4,362l-16.1,91.3c0.9-0.1,1.8-0.2,2.7-0.2c0.7,0,1.3,0,2,0.1c8.8,1,15.7,8.1,23.6,11.5
				c6.9,3,14.2,4.2,21.6,4.2c8.7,0,17.4-1.6,25.8-3.7l17.1-97.5c-4.6,0.9-8.9,3-12.9,5.4c-9.5,5.7-19.5,15.2-31,15.2
				c-2.1,0-4.3-0.3-6.6-1.1c-7.8-2.6-13.6-9.1-18.6-15.3C1465.5,368.7,1462.9,365.3,1460.4,362"/>
			<polyline class="st8" points="1332.6,1531 1254.8,1531 1254.6,1531.9 1332.4,1531.9 1332.6,1531 			"/>
			<path class="st9" d="M1893,526.3c-9.1-6.5-19.7-9.5-30.5-9.5c-3.1,0-6.3,0.3-9.4,0.8L1830,649.1c0.9,0.4,1.7,0.9,2.6,1.2
				c9.7,4.4,20.4,6.6,31,6.6c5.8,0,11.6-0.7,17.3-2c7.8-1.8,14.8-5.3,22-8.7c4.9-32.9,8.3-66.1,9.2-99.5
				C1906.9,538.9,1900.7,531.8,1893,526.3z"/>
		</g>
		<g>
			<g>
				<path class="st0" d="M801.1,1255.9H679.3v-235.2c0-10.4,8.4-18.8,18.8-18.8h84.3c10.4,0,18.8,8.4,18.8,18.8V1255.9z M688,1247.2
					h104.5v-226.5c0-5.6-4.5-10.1-10.1-10.1h-84.3c-5.6,0-10.1,4.5-10.1,10.1V1247.2z"/>
				<circle class="st10" cx="649.5" cy="1630.3" r="25.2"/>
				<circle class="st10" cx="828.6" cy="1630.3" r="25.2"/>
				<linearGradient id="SVGID_1_" gradientUnits="userSpaceOnUse" x1="739.0486" y1="1306.9374" x2="739.0486" y2="1602.7711">
					<stop  offset="0" style="stop-color:#7346A3"/>
					<stop  offset="1" style="stop-color:#5E398E"/>
				</linearGradient>
				<path class="st11" d="M816.2,1630.3H661.9c-28.4,0-51.5-23.1-51.5-51.5v-281.2c0-28.4,23.1-51.5,51.5-51.5h154.2
					c28.4,0,51.5,23.1,51.5,51.5v281.2C867.7,1607.2,844.6,1630.3,816.2,1630.3z"/>
				<path class="st12" d="M774.1,1017.4h-67.8c-6.1,0-11.1-5-11.1-11.1l0,0c0-6.1,5-11.1,11.1-11.1h67.8c6.1,0,11.1,5,11.1,11.1l0,0
					C785.2,1012.4,780.2,1017.4,774.1,1017.4z"/>
				<g>
					<g>
						<g>
							<path class="st13" d="M825.3,1629.4c0,0.3,0,0.6,0,0.8h5c20.6,0,37.3-16.7,37.3-37.3v-5.9
								C844.2,1587,825.3,1606,825.3,1629.4z"/>
						</g>
						<g>
							<path class="st13" d="M610.4,1587v5.9c0,20.6,16.7,37.3,37.3,37.3h5c0-0.3,0-0.6,0-0.8C652.8,1606,633.9,1587,610.4,1587z"/>
						</g>
						<g>
							<path class="st13" d="M610.4,1283.4v5.1c23.4,0,42.4-19,42.4-42.4h-5.1C627.2,1246,610.4,1262.8,610.4,1283.4z"/>
						</g>
						<g>
							<path class="st13" d="M867.7,1288.4v-5.1c0-20.6-16.7-37.3-37.3-37.3h-5.1C825.3,1269.5,844.2,1288.4,867.7,1288.4z"/>
						</g>
					</g>
				</g>
				<g>
					<path class="st14" d="M793,1414.2l-72.6,19.4c-3.3,0.9-6.7-1.1-7.6-4.4l-11-41c-0.9-3.3,1.1-6.7,4.4-7.6l72.6-19.4
						c3.3-0.9,6.7,1.1,7.6,4.4l11,41C798.3,1409.9,796.3,1413.3,793,1414.2z"/>
					<path class="st15" d="M765.2,1364.7l-47.2,60.7l78.6-21.9l-10.5-39.2c-0.7-2.7-3.5-4.3-6.2-3.6L765.2,1364.7z"/>
				</g>
				<g>
					<g>
						<path class="st16" d="M653.2,1522.6l-12.8-47.9c-0.9-3.3,1.1-6.7,4.4-7.6l25.5-6.8c3.3-0.9,6.7,1.1,7.6,4.4l12.8,47.9
							c0.9,3.3-1.1,6.7-4.4,7.6l-25.5,6.8C657.5,1527.9,654.1,1525.9,653.2,1522.6z"/>
					</g>
					<g>
						<path class="st17" d="M655.2,1519.1l-11.3-42.3c-0.9-3.3,1.1-6.7,4.4-7.6l20.1-5.4c3.3-0.9,6.7,1.1,7.6,4.4l11.3,42.3
							c0.9,3.3-1.1,6.7-4.4,7.6l-20.1,5.4C659.5,1524.4,656,1522.4,655.2,1519.1z"/>
					</g>
				</g>
				<g>
					<circle class="st18" cx="684.7" cy="1373.8" r="27.2"/>
					<circle class="st16" cx="684.7" cy="1373.8" r="23.5"/>
				</g>
				<g>
					<circle class="st15" cx="819.3" cy="1473.5" r="27.2"/>
					<circle class="st14" cx="819.3" cy="1473.5" r="23.5"/>
				</g>
			</g>
			<g>
				<linearGradient id="SVGID_2_" gradientUnits="userSpaceOnUse" x1="965.4768" y1="917.0013" x2="971.3565" y2="855.4833">
					<stop  offset="0" style="stop-color:#FAB0A7"/>
					<stop  offset="1" style="stop-color:#EA8F86"/>
				</linearGradient>
				<path class="st19" d="M981,572.1c0,0-30.8,15.1-32.5,37.2s12.9,142.3,4.5,183.5c-8.4,41.2-5.9,133.6-11.8,154.7s-16,53-9.2,66.4
					c6.7,13.4,16.5,28.6,16.5,28.6s63.3-142.9,65-145.4c1.7-2.5-4.2-115.2-4.2-115.2l-10.9-199.2L981,572.1z"/>
				<linearGradient id="SVGID_3_" gradientUnits="userSpaceOnUse" x1="980.0521" y1="735.3501" x2="1000.7363" y2="657.7077">
					<stop  offset="0" style="stop-color:#28DBD5"/>
					<stop  offset="1" style="stop-color:#0EC0AA"/>
				</linearGradient>
				<path class="st20" d="M953.1,792.8c-2.9,14.4-4.5,35-5.6,56.6c17.8,9.4,42.4,17.5,65.5,8.3c-1.3-33.4-3.5-75.9-3.5-75.9
					l-10.9-199.2l-17.2-12.4c0,0-31,16.9-32.7,39C946.9,631.4,961.5,751.6,953.1,792.8z"/>
				<linearGradient id="SVGID_4_" gradientUnits="userSpaceOnUse" x1="948.2925" y1="1405.4961" x2="948.2925" y2="1166.0439">
					<stop  offset="0" style="stop-color:#FAB0A7"/>
					<stop  offset="1" style="stop-color:#EA8F86"/>
				</linearGradient>
				<path class="st21" d="M1021.2,512.1c0,0,16.8,25.2,7.6,37c-9.2,11.8-53.8,17.7-52.1,30.3c1.7,12.6,13.4,163.9,10.9,183.2
					S974.9,899.3,959,967.1s-42,255.3-49.6,279.6c-7.6,24.4-68.9,317.7-78.2,340.4s-28.6,48.8-43.7,49.7
					c-29.4,1.8-60.5,28.5-43.7,32.7c10.4,2.6,43.7,2,67.5,1.1c15.2-0.5,28.9-9.4,35.7-23c9.4-18.8,24.2-43.5,38.6-47
					c23.8-5.9,17.4-31.1,0-45.4c-17.4-14.3,55.7-136.2,65.8-209.3s15.1-88.3,37-120.2c21.9-31.9,65.2-149.3,72.3-232
					c1.4-16.3,2.5,215.2,0,252.2c-2.5,37,6.7,289.2,7.6,301.8s2.5,37-2.5,56.3c-5,19.3-13.4,37.8-22.7,42.9s-40.3,9.2-40.3,21
					c0,7.7,36.9,6.8,62.3,5.3c12.9-0.8,23.8-9.5,27.6-21.9c4.4-14.5,13.2-32.4,30.3-38.1c30.3-10.1-15.1-37.8-15.1-68.1
					s36.8-194.2,25.5-249.6c-11.2-55.5-20.5-63.9-7-108.4c11.4-37.6,61-220.8,5.5-306.3c-23.3-35.9-30.7-79.8-19.4-121
					c7.9-28.8,15.7-57,19.8-70.3c10.1-32.8,5.9-130.3-4.2-133.6c-10.1-3.4-62.2-0.8-61.4-43.7
					C1067.4,469.2,1021.2,512.1,1021.2,512.1z"/>
				<linearGradient id="SVGID_5_" gradientUnits="userSpaceOnUse" x1="1075.3228" y1="771.0234" x2="1123.7715" y2="728.4858">
					<stop  offset="0" style="stop-color:#FAB0A7"/>
					<stop  offset="1" style="stop-color:#EA8F86"/>
				</linearGradient>
				<path class="st22" d="M1127.4,554.6c0,0,22.2,2.6,35.9,19.6c17,21,98.9,111.3,102.8,137.1c3.9,26.3-84.8,85.7-108.5,100.9
					c-23.7,15.1-40.5,21.9-29.6,36.1s8.3,40,8.3,40l-29.3,5.4l-9.2-73.1c0,0,80.2-84.2,107.1-107.9c2-1.8,1.9-4.9-0.1-6.6
					l-79.7-74.1L1127.4,554.6z"/>
				<linearGradient id="SVGID_6_" gradientUnits="userSpaceOnUse" x1="1029.9274" y1="1150.5298" x2="1054.0159" y2="928.7993">
					<stop  offset="0" style="stop-color:#A78BEF"/>
					<stop  offset="1" style="stop-color:#755BC9"/>
				</linearGradient>
				<path class="st23" d="M1172.3,1018.8c0-74.6-36.1-130.5-36.1-130.5l0,0c-1.4-2.6-2.9-5.1-4.5-7.5c-20.7-31.8-28.8-70-22.5-107
					H986.3c-0.9,8.7-2.2,21-3.7,35.5v0c0,0-66.9,313.3-114.8,337.2c0,0,31.5,31.5,67.4,23.9c35.9-7.6,54.1-23.9,78.7-8.7
					c24.6,15.2,51.8,23,75.7,9.9c23.9-13.1,59.8-14.2,75-4.4c15.2,9.8,26.1,0,26.1,0S1172.3,1093.4,1172.3,1018.8z"/>
				<linearGradient id="SVGID_7_" gradientUnits="userSpaceOnUse" x1="1025.2725" y1="754.1346" x2="1043.2211" y2="687.3358">
					<stop  offset="0" style="stop-color:#28DBD5"/>
					<stop  offset="1" style="stop-color:#0EC0AA"/>
				</linearGradient>
				<path class="st24" d="M1112.6,757.4c7.9-28.8,15.6-53.3,19.7-66.7c10.1-32.8,5.1-132.8-5-136.1c-10.1-3.4-61.4-1.5-60.5-44.4
					c0.8-42.9-46.2,0.7-46.2,0.7s16.8,25.2,7.6,37c-9.2,11.8-53.8,17.7-52.1,30.3S989.5,742,987,761.4c-0.8,6.5-2.5,23.8-5,46.6
					c15,1.3,16.3,14.6,64.7,14.6c50.5,0,40.8-10.3,60.5-12.4C1105.6,793,1108,774.4,1112.6,757.4z"/>
				<linearGradient id="SVGID_8_" gradientUnits="userSpaceOnUse" x1="987.5185" y1="462.272" x2="1106.8823" y2="462.272">
					<stop  offset="0" style="stop-color:#FAB0A7"/>
					<stop  offset="1" style="stop-color:#EA8F86"/>
				</linearGradient>
				<path class="st25" d="M1041.6,395.3c-20.2-0.1-37.9,13.6-43.6,32.9c-5,16.6-10.9,40.2-10.5,56.1c0.8,26.9,5,47.9,25.2,44.5
					s43.7,3.4,66.4-24.4c22.7-27.7,40.3-74.8,16-90.8C1080.5,404.1,1061,395.5,1041.6,395.3z"/>
				<g>
					<g>
						<path class="st0" d="M817.1,1643.2c-9.2-2-15.8-5.5-20.4-9.6c-3.1,1.9-6.2,3-9.2,3.2c-29.4,1.8-60.5,28.5-43.7,32.7
							c10.4,2.6,43.7,2,67.5,1.1c15.2-0.5,28.9-9.4,35.7-23c9.4-18.8,24.2-43.5,38.6-47c23.8-5.9,17.4-31.1,0-45.4
							C885.6,1555.2,846.7,1649.7,817.1,1643.2z"/>
						<polygon class="st0" points="901.1,1586.1 885.3,1671.4 871.9,1671.4 875.5,1597.3 						"/>
					</g>
				</g>
				<path class="st0" d="M1113.6,1565.6c0,0-29.2,82.5-53.4,79.6c-4.6-0.6-8.6-1.5-11.9-2.7c-1.7,1.9-3.4,3.3-5.2,4.3
					c-9.2,5-40.3,9.2-40.3,21c0,7.7,36.9,6.8,62.3,5.3c12.9-0.8,23.8-9.5,27.6-21.9c4.4-14.5,13.2-32.4,30.3-38.1
					C1146.1,1605.5,1124.7,1587.3,1113.6,1565.6z"/>
				<polygon class="st0" points="1133.2,1603.9 1123,1671.4 1110,1671.4 1111.9,1609.9 				"/>
				<linearGradient id="SVGID_9_" gradientUnits="userSpaceOnUse" x1="1217.5878" y1="729.074" x2="1175.121" y2="686.6132">
					<stop  offset="0" style="stop-color:#28DBD5"/>
					<stop  offset="1" style="stop-color:#0EC0AA"/>
				</linearGradient>
				<path class="st26" d="M1266.1,711.3c-3.8-25.8-85.8-116.1-102.8-137.1c-13.8-17-35.9-19.6-35.9-19.6l-2.5,77.4l79.7,74.1
					c2.1,1.7,2.1,4.8,0.1,6.6c-10.3,9.1-28.4,27-46.8,45.7c4,13.3,11.8,28.9,27.3,35.2C1220,769.2,1269,731,1266.1,711.3z"/>
				<linearGradient id="SVGID_10_" gradientUnits="userSpaceOnUse" x1="1088.2533" y1="452.8638" x2="1088.2533" y2="596.2765">
					<stop  offset="0" style="stop-color:#5F4EA8"/>
					<stop  offset="1" style="stop-color:#4A3F89"/>
				</linearGradient>
				<path class="st27" d="M1175.1,594.1c1.7-3,3.7-5.7,5.7-8.4c6.8-9.4,10.7-19.4,8.7-31.1c-1.9-11.3-8.9-19.6-18.1-25.9
					c-10.2-6.9-20.7-12.5-29.6-21.2c-2.6-2.5-5-5.2-7.3-8c-0.7-2.5-1.3-4.9-1.9-7.4c-5.4-24.2-4.4-50.9-18.6-72.4
					c-11.7-17.7-31.8-29.5-53-31c-21.6-1.5-43.3,8.4-57.1,25c-1.9,2.2-3.6,4.6-5.1,7c0,0-0.8,1.8-1.5,3.8c-2.4,4-4.3,8.4-4.3,13.1
					c-0.1,5.8,2.8,10.8,6.8,14.7c4.5,4.4,10.1,7.3,15,11.3c2.8,2.3,5.5,5.4,6.8,8.8c-0.1,0.2-0.1,0.3-0.2,0.5
					c-1.8,3.6-5.7,5.2-8.6,7.8c-6.1,5.4-4.8,13.2-2.6,20.1c1.3,3.9,2.8,7.6,3.4,11.7c0.7,4.6,0.4,9.2-0.4,13.7
					c-5.5,8.1-10.9,16.1-16.1,24.3c-5.7,9.1-10.5,19-10.8,30c-0.4,18.3,10.5,33.6,24.9,43.7c3.4,4.5,6.4,13.3,2.6,18.1
					c-8.2,2.7-11.8,12.5-8.9,20.3c0.9,2.6,2.3,4.8,4.1,6.7c1.2,4.6,4.4,8.7,8.4,11.3c9.1,5.9,20.5,4.9,30.4,8.7
					c6,2.3,9.9,6.2,12.2,12.1c1.7,4.3,3.3,8.6,7,11.6c2.3,1.9,5.1,3.1,8.1,3.7c0.4,0.8,0.9,1.6,1.4,2.3c5,7.8,13.3,12,22.6,9.9
					c11.2-2.6,18.5-11.9,23-21.9c5-11,7.6-23.5,15.6-32.8c7.6-8.9,18.5-9.9,29.2-12.7c9.3-2.4,17.8-7.5,20.1-17.6
					c2.5-11.4-2.7-22.3-7.1-32.5C1177.5,606,1175.3,600.2,1175.1,594.1z M1012.3,457.2c-5.4-3.7-11.5-7.4-14.3-13.6
					c-1.5-3.2-1.5-6.5-0.8-9.6c0.9,2.6,2.3,5.1,4.1,7.3c5.4,6.8,14,10.8,18.5,18.3c1.2,2,2.1,4.4,2.5,6.8
					C1019.6,462.8,1015.9,459.7,1012.3,457.2z M990.3,578c0.9-10.6,6.5-20.1,12.2-28.8c2.5-3.9,5.1-7.8,7.7-11.6
					c-2.3,6.3-5.3,12.4-8.2,18.4c-5.6,11.9-11.3,26.1-9.3,39.6C990.6,590.1,989.7,584.2,990.3,578z M1066.5,707
					c-2.4-3.8-3.2-8.5-5.7-12.3c-2.1-3.2-5.2-5.7-8.6-7.4c-7.7-3.9-16.5-4.1-24.7-6.4c-3.5-1-7.5-3-10.6-5.7
					c4.4,2.3,9.4,3.8,14.1,4.7c11.9,2.4,25.6,3.2,33.2,14.1c3.9,5.6,6,12.1,8.8,18.3C1070.4,711.2,1068.1,709.5,1066.5,707z
					 M1146.7,524.6c-4-5-7.1-10.6-9.4-16.6c7.3,7.5,15.7,13.5,24.7,19c11.1,6.7,21.4,14.3,23.9,27.9c1.1,6.2,0.5,12.9-2.1,18.7
					c-2.1,4.7-5.2,8.7-8.2,12.9c0.9-4.7,2.6-9.4,3.6-14.1c2.4-10.7-0.1-19.9-8.1-27.4C1163.3,537.8,1153.6,533.1,1146.7,524.6z"/>
			</g>
			<g>
				<linearGradient id="SVGID_11_" gradientUnits="userSpaceOnUse" x1="1357.0236" y1="1423.4031" x2="1357.0236" y2="1674.1807">
					<stop  offset="0" style="stop-color:#FF9620"/>
					<stop  offset="1" style="stop-color:#E8831F"/>
				</linearGradient>
				<path class="st28" d="M1505.6,1674.2h-297.1c-14.7,0-26.6-11.9-26.6-26.6V1450c0-14.7,11.9-26.6,26.6-26.6h297.1
					c14.7,0,26.6,11.9,26.6,26.6v197.6C1532.1,1662.3,1520.2,1674.2,1505.6,1674.2z"/>
				<g>
					<rect x="1283.4" y="1378.5" class="st0" width="15.2" height="44.9"/>
					<rect x="1415.4" y="1378.2" class="st0" width="15.2" height="45.3"/>
				</g>
				<rect x="1451.9" y="1423.4" class="st29" width="16.7" height="250.8"/>
				<g>
					<g>
						<path class="st29" d="M1532.1,1633.7c-0.2,0-0.4,0-0.6,0c-20.8,0-37.7,16.9-37.7,37.7c0,0.9,0,1.9,0.1,2.8h18.9
							c10.6,0,19.3-8.6,19.3-19.3V1633.7z"/>
						<path class="st29" d="M1219.6,1425.5c0-0.7,0-1.4-0.1-2.1h-18.4c-10.6,0-19.3,8.6-19.3,19.3v20.5
							C1202.7,1463.2,1219.6,1446.3,1219.6,1425.5z"/>
						<path class="st29" d="M1218.4,1671.4c0-20.4-16.2-37-36.5-37.7v21.2c0,10.6,8.6,19.3,19.3,19.3h17.1
							C1218.3,1673.3,1218.4,1672.3,1218.4,1671.4z"/>
						<path class="st29" d="M1495,1425.5c0,20.6,16.5,37.3,37.1,37.7v-20.5c0-10.6-8.6-19.3-19.3-19.3h-17.8
							C1495.1,1424.1,1495,1424.8,1495,1425.5z"/>
					</g>
				</g>
				<path class="st18" d="M1419.6,1388.3h-125.1c-6.1,0-11-4.9-11-11l0,0c0-6.1,4.9-11,11-11h125.1c6.1,0,11,4.9,11,11l0,0
					C1430.6,1383.3,1425.7,1388.3,1419.6,1388.3z"/>
				<g>
					<circle class="st15" cx="1304.7" cy="1493.4" r="27.2"/>
					<circle class="st14" cx="1304.7" cy="1493.4" r="23.5"/>
				</g>
				<g>
					<g>
						<path class="st16" d="M1360.7,1548.8l61.3-24.7c3.2-1.3,6.8,0.3,8.1,3.5l13.7,34.1c1.3,3.2-0.3,6.8-3.5,8.1l-61.3,24.7
							c-3.2,1.3-6.8-0.3-8.1-3.5l-13.7-34.1C1356,1553.7,1357.5,1550.1,1360.7,1548.8z"/>
					</g>
					<g>
						<path class="st17" d="M1365.5,1550.7l54.6-22c3.2-1.3,6.8,0.3,8.1,3.5l11,27.5c1.3,3.2-0.3,6.8-3.5,8.1l-54.6,22
							c-3.2,1.3-6.8-0.3-8.1-3.5l-11-27.5C1360.7,1555.7,1362.3,1552,1365.5,1550.7z"/>
					</g>
				</g>
				<rect x="1245.5" y="1423.4" class="st29" width="16.7" height="250.8"/>
				<g>
					<path class="st14" d="M1370.2,1618.3l-53.1-3.5c-3.4-0.2-6-3.2-5.8-6.6l1.9-28.6c0.2-3.4,3.2-6,6.6-5.8l53.1,3.5
						c3.4,0.2,6,3.2,5.8,6.6l-1.9,28.6C1376.6,1615.9,1373.6,1618.5,1370.2,1618.3z"/>
					<path class="st15" d="M1363.9,1576.6l-48.1,31.8l61,3.3l2-30.3c0.1-2.1-1.4-3.9-3.5-4L1363.9,1576.6z"/>
				</g>
			</g>
		</g>
	</g>
</g>
</svg>
